<svg id="consulting-services-01" xmlns="http://www.w3.org/2000/svg" width="73.795" height="73.816">
    <defs>
        <style>
            .cls-1{fill:#f7c544}.cls-2{fill:#08e4ba}
        </style>
    </defs>
    <path id="Path_64" data-name="Path 64" class="cls-1" d="M969.354 569.838c-.73-9.246 5.2-19.091 13.576-22.582a1.389 1.389 0 0 1 1.027.047 9.333 9.333 0 0 1 5.647 8.143 64.069 64.069 0 0 1-.115 9.925 13.728 13.728 0 0 1-13.194 12.076c-7.291.108-14.581.03-21.872.03a3.45 3.45 0 0 1-.369-.045c0-1.315-.036-2.607.015-3.895a1.176 1.176 0 0 1 1.137-1.133 5.009 5.009 0 0 1 .715-.015h16.861a11.453 11.453 0 0 0 11.807-11.789v-3.441h-2.545v3.606a8.944 8.944 0 0 1-8.669 9.055c-1.329.058-2.653.018-4.021.018z" transform="translate(-918.387 -508.748)"/>
    <path id="Path_65" data-name="Path 65" class="cls-2" d="M827.235 390.242c-.2 1.222-.45 2.255-.517 3.3a3.565 3.565 0 0 0 2.032 3.576.751.751 0 0 1 .49.849 1.771 1.771 0 0 0 0 .4 8.246 8.246 0 0 1-1.867 6.788 3.006 3.006 0 0 0-.624 2.707 1.3 1.3 0 0 1-.554 1.508c-.59.407-1.254.7-2.064 1.145.244-4.384-1.366-7.52-5.072-9.545a5.249 5.249 0 0 0 1.173-4.31 5.091 5.091 0 0 0-8.413-2.836c-2.024 1.829-2.189 4.378-.535 6.989l-3.7 3.3-3.668-3.324a5.088 5.088 0 0 0-7.373-6.968c-2.024 1.829-2.189 4.372-.424 7.157a9.127 9.127 0 0 0-5.061 9.208 3.281 3.281 0 0 1-3.154-2.925q-.974-6.643-1.909-13.293a3.458 3.458 0 0 1 3.483-4q18.094-.019 36.19 0a10.308 10.308 0 0 1 1.567.274z" transform="translate(-785.956 -384.874)"/>
    <path id="Path_66" data-name="Path 66" class="cls-2" d="M847.667 533.21v3.137c-.636.18-1.29.392-1.951.535-.569.121-.955.348-1.061.978a2.622 2.622 0 0 1-.4 1.029 2.034 2.034 0 0 0 .112 2.579c.781 1.16.713 1.2-.252 2.176-.407.412-.793.849-1.194 1.273-.776-.439-1.423-.849-2.121-1.177a1.646 1.646 0 0 0-.931-.03c-.276.055-.516.312-.791.354-1.6.244-2.187 1.317-2.365 2.758a4.138 4.138 0 0 1-.189.636h-3.129c-.212-.728-.373-1.485-.636-2.187a1.8 1.8 0 0 0-.681-.728c-.231-.161-.588-.142-.808-.31-1.245-.944-2.376-.624-3.485.242a3.171 3.171 0 0 1-.526.252c-.933-3.343-1.854-6.635-2.779-9.951h-2.18V533.2c.658-.182 1.358-.405 2.07-.566a.966.966 0 0 0 .849-.793 3.182 3.182 0 0 1 .414-1.109 2.024 2.024 0 0 0-.134-2.711 7.269 7.269 0 0 1-.6-1.05l2.255-2.225h.023c.789.424 1.563 1.148 2.374 1.2a5.741 5.741 0 0 0 2.473-.94 1.606 1.606 0 0 0 .73-.774c.269-.685.424-1.417.636-2.153h3.093a.78.78 0 0 1 .085.148 7.14 7.14 0 0 0 .906 2.564 5.856 5.856 0 0 0 2.435 1.061 2.385 2.385 0 0 0 .865-.015c.07 0 .136-.078.212-.115.636-.327 1.432-1.061 1.848-.887a6.945 6.945 0 0 1 2.019 1.852.737.737 0 0 1-.063.679 3.19 3.19 0 0 0-.352 3.873c.465.829.819 1.427 1.788 1.563a11.117 11.117 0 0 1 1.445.416zm-12.727 7.933a6.36 6.36 0 1 0-4.5-1.887 6.364 6.364 0 0 0 4.5 1.887z" transform="translate(-814.59 -488.964)"/>
    <path id="Path_67" data-name="Path 67" class="cls-1" d="M992.524 426.13h10.182c-.127.189-.212.337-.314.462a8.826 8.826 0 0 0-.042 11.7 1.141 1.141 0 0 1 .337.6c0 1.612-.049 3.226-.089 4.838a2.205 2.205 0 0 1-.083.469c-.367 1.485-.484 1.61-2.009 1.826-1.152.165-2.306.346-3.464.405a2.223 2.223 0 0 1-1.165-.5 9.235 9.235 0 0 0-1.65-1.207c-1.4-.5-1.6-1.627-1.7-2.836-.053-.711 0-1.43 0-2.145a2.571 2.571 0 0 0-1.415-2.4c-1.273-.721-1.461-1.447-.67-2.641 2.393-3.606 2.053-2.647 2.079-6.987z" transform="translate(-946.697 -413.375)"/>
    <path id="Path_68" data-name="Path 68" class="cls-1" d="M976.035 505.2a9.256 9.256 0 0 0 7.935-2.808c2.14-2.267 2.611-5.065 2.363-8.126l2.546.74a11.476 11.476 0 0 1-2.806 8.85 11.178 11.178 0 0 1-8.623 3.924 517.65 517.65 0 0 1-7.477 0 3.818 3.818 0 1 1-.034-7.632h2.306a3.8 3.8 0 0 1 3.835 4.684c-.02.108-.026.214-.045.368z" transform="translate(-927.817 -467.061)"/>
    <path id="Path_69" data-name="Path 69" class="cls-1" d="M1005.227 385.589h-13.559c-1.256 0-1.727-.515-1.637-1.767a6.311 6.311 0 0 1 5.916-5.833c3.069-.1 6.151-.021 9.28-.021z" transform="translate(-946.734 -375.408)"/>
    <path id="Path_70" data-name="Path 70" class="cls-2" d="M906.668 457.613c-1.222 0-2.359-.038-3.489.019a2.73 2.73 0 0 0-1.309.4c-2.181 1.409-4.323 2.878-6.5 4.289a1.4 1.4 0 0 1-1.061.212c-.212-.091-.352-.6-.358-.935-.034-1.748-.032-3.5-.013-5.248a6.364 6.364 0 0 1 12.727-.038c.003.388.003.788.003 1.301z" transform="translate(-871.023 -432.158)"/>
    <path id="Path_71" data-name="Path 71" class="cls-1" d="M1056.336 438.727a6.364 6.364 0 1 1 6.391-6.364 6.364 6.364 0 0 1-6.391 6.364zm0-5.051c-.751-.18-1.249-.577-1.226-1.368a1.167 1.167 0 0 1 1-1.175c.955-.189 1.353.471 1.608 1.192h2.424a3.767 3.767 0 0 0-3.9-3.78 3.833 3.833 0 0 0-3.7 3.975 3.708 3.708 0 0 0 3.782 3.585z" transform="translate(-993.991 -413.273)"/>
    <path id="Path_72" data-name="Path 72" class="cls-1" d="M1097.952 387.42c5.129 3.322 7.778 7.836 7.6 13.788-.172 5.5-2.8 9.673-7.594 12.7 0-1.3-.032-2.431.025-3.557 0-.212.327-.488.565-.636a8.688 8.688 0 0 0 4.476-7.9 8.562 8.562 0 0 0-4.5-7.558.959.959 0 0 1-.581-.976c.028-1.89.009-3.772.009-5.861z" transform="translate(-1031.761 -382.876)"/>
    <path id="Path_73" data-name="Path 73" class="cls-2" d="M834.68 457.439h-12.649a6.447 6.447 0 0 1 2.437-6.253 5.986 5.986 0 0 1 6.86-.575c2.667 1.432 3.572 3.825 3.352 6.828z" transform="translate(-814.335 -432.019)"/>
    <path id="Path_74" data-name="Path 74" class="cls-1" d="m813.023 594.187 5.621 20.236h-3.706l-1.183-4.438-3.424-12.806c-.54-2.027.557-3.257 2.692-2.992z" transform="translate(-805.053 -545.756)"/>
    <path id="Path_75" data-name="Path 75" class="cls-1" d="M857.011 702.21v2.465c-.212.013-.384.034-.562.034H836.9a2.5 2.5 0 0 1-2.734-2.5z" transform="translate(-823.943 -630.893)"/>
    <path id="Path_76" data-name="Path 76" class="cls-1" d="M1074.26 366h1.945c.155 0 .308.015.5.023v10.182h-2.446z" transform="translate(-1013.105 -366)"/>
    <path id="Path_77" data-name="Path 77" class="cls-2" d="M845.091 416.545a2.545 2.545 0 1 1-2.529-2.545 2.545 2.545 0 0 1 2.529 2.545z" transform="translate(-828.536 -403.818)"/>
    <path id="Path_78" data-name="Path 78" class="cls-2" d="M914.569 414a2.545 2.545 0 1 1-2.569 2.5 2.545 2.545 0 0 1 2.569-2.5z" transform="translate(-885.262 -403.818)"/>
    <path id="Path_79" data-name="Path 79" class="cls-1" d="M913.66 680.477c.6-2 2.181-2.651 5.94-2.463v2.463z" transform="translate(-886.571 -611.806)"/>
    <path id="Path_80" data-name="Path 80" class="cls-1" d="M1076.159 512.14v4.684a.7.7 0 0 1-.235.52c-.721.412-1.47.778-2.414 1.273a16.279 16.279 0 0 0 2.649-6.476z" transform="translate(-1012.514 -481.141)"/>
    <path id="Path_81" data-name="Path 81" d="M858.338 564.727a6.364 6.364 0 1 1 4.516-1.855 6.364 6.364 0 0 1-4.516 1.855z" transform="translate(-837.991 -512.546)" style="fill:#fff"/>
</svg>
