<svg xmlns="http://www.w3.org/2000/svg" width="39.885" height="65.387">
    <path data-name="Path 60" d="M839.679 404.237a8.566 8.566 0 0 1-1.212-.65 3.3 3.3 0 0 1-1.086-3.683 3.047 3.047 0 0 1 2.937-2.331v-.673c0-2.745-.046-5.492.011-8.237a11.768 11.768 0 0 1 4.836-9.551c2.982-2.264 6.028-4.444 9.047-6.664a1.125 1.125 0 0 0 .01-1.8c-2.982-2.194-5.983-4.364-8.939-6.586a11.882 11.882 0 0 1-4.941-9.752c-.045-2.914-.008-5.828-.008-8.748a1.344 1.344 0 0 0-.2-.078 3.167 3.167 0 0 1-2.862-3.748 3.1 3.1 0 0 1 3.347-2.885h32.95c2.069 0 3.4 1.087 3.532 2.89.163 2.145-.852 3.426-3.054 3.785v.663c0 2.745.044 5.492-.01 8.237a11.8 11.8 0 0 1-4.8 9.507c-2.969 2.276-6.025 4.449-9.042 6.664a1.138 1.138 0 0 0 0 1.882c2.983 2.194 5.994 4.349 8.939 6.589a11.865 11.865 0 0 1 4.9 9.713c.037 2.682 0 5.364 0 8.047v.587a10.693 10.693 0 0 1 1.837.826 3.21 3.21 0 0 1 1.185 3.363 2.977 2.977 0 0 1-2.056 2.468 2.878 2.878 0 0 0-.325.163zM872 397.582v-.748c0-2.661.018-5.321 0-7.982a9.922 9.922 0 0 0-4.166-8.215c-2.771-2.084-5.591-4.106-8.379-6.176-2.046-1.513-1.71-.975-1.768-3.483a1.874 1.874 0 0 1 .853-1.71c3.168-2.3 6.339-4.587 9.458-6.963a9.76 9.76 0 0 0 3.992-7.914c.045-2.745.01-5.492.01-8.237v-.634h-29.638v.735c0 2.661-.018 5.321 0 7.982a9.886 9.886 0 0 0 4.166 8.211c2.781 2.08 5.6 4.1 8.38 6.17 2.025 1.5 1.707.975 1.767 3.413a1.968 1.968 0 0 1-.91 1.82q-4.658 3.361-9.265 6.8a9.867 9.867 0 0 0-4.14 8.159c-.029 2.682 0 5.364 0 8.047v.7h2.553c0-2.55-.019-5.058 0-7.566a8.74 8.74 0 0 1 3.655-7.225c2.537-1.9 5.105-3.759 7.66-5.635.855-.627 1.081-.631 1.923-.01 2.552 1.879 5.118 3.738 7.65 5.65a8.755 8.755 0 0 1 3.625 7.187c.034 2.319 0 4.64 0 6.961v.676z" transform="translate(-837.229 -338.85)" style="fill:#ff708b"/>
    <path data-name="Path 61" d="M898.387 431.96h-2.555v-.683c0-2.321.028-4.642 0-6.961a8.746 8.746 0 0 0-3.625-7.187c-2.532-1.908-5.1-3.771-7.65-5.65-.842-.621-1.068-.618-1.923.01-2.555 1.876-5.123 3.738-7.66 5.635a8.724 8.724 0 0 0-3.654 7.236c-.026 2.508 0 5.016 0 7.566h-2.566v-.7c0-2.682-.024-5.364 0-8.047a9.866 9.866 0 0 1 4.14-8.159q4.6-3.442 9.264-6.8a1.984 1.984 0 0 0 .91-1.82c-.06-2.438.258-1.926-1.767-3.413-2.789-2.061-5.606-4.083-8.382-6.162a9.891 9.891 0 0 1-4.166-8.211c-.023-2.661 0-5.321 0-7.982v-.732h29.633v.634c0 2.745.036 5.492-.01 8.237a9.761 9.761 0 0 1-3.992 7.914c-3.111 2.376-6.29 4.661-9.458 6.963a1.875 1.875 0 0 0-.865 1.716c.059 2.513-.278 1.97 1.768 3.483 2.787 2.063 5.607 4.084 8.379 6.176a9.924 9.924 0 0 1 4.166 8.214c.023 2.661 0 5.321 0 7.982zM883.6 392.641h-8.1a1.09 1.09 0 0 0-1.195.751 1.036 1.036 0 0 0 .5 1.2q4.037 2.963 8.073 5.928a1.109 1.109 0 0 0 1.463 0c2.685-1.984 5.383-3.951 8.049-5.962a1.51 1.51 0 0 0 .488-1.016c.034-.57-.473-.9-1.23-.9q-4.023-.01-8.046 0z" transform="translate(-863.621 -373.228)" style="fill:#fff"/>
    <path data-name="Path 62" d="M911.968 458.256h8.042c.758 0 1.265.325 1.231.9a1.51 1.51 0 0 1-.488 1.016c-2.666 2.011-5.364 3.977-8.049 5.962a1.116 1.116 0 0 1-1.463 0q-4.032-2.968-8.068-5.929a1.038 1.038 0 0 1-.5-1.2 1.089 1.089 0 0 1 1.195-.751h8.1z" transform="translate(-891.996 -438.843)" style="fill:#0776ff"/>
</svg>
