<svg id="mother-teresa-face-01" xmlns="http://www.w3.org/2000/svg" width="73.961" height="73.961">
    <defs>
        <style>
            .cls-2{fill:#0776ff}.cls-3{fill:#fff}
        </style>
    </defs>
    <path id="Path_49" data-name="Path 49" d="M1024.8 369.668c-6.042 0-12.086-.01-18.128.015a3.724 3.724 0 0 0-1.572.366c-3.274 1.6-6.549 3.251-9.823 4.885-.233.116-.47.225-.823.395V348h30.346zm-21.621-12.968v4.237h4.237V356.7zm8.667 0v4.262h4.237v-4.268z" transform="translate(-950.834 -348)" style="fill:#08e4ba"/>
    <path id="Path_50" data-name="Path 50" class="cls-2" d="M891.75 659.231v-17.29c4.045-.144 8.028-.262 11.676 1.847a15.409 15.409 0 0 1 6.862 7.984 19.127 19.127 0 0 1 .963 7.46z" transform="translate(-867.915 -585.27)"/>
    <path id="Path_51" data-name="Path 51" class="cls-2" d="M768 655.691c.193-.888.337-1.789.578-2.662a15.166 15.166 0 0 1 14.382-11.061c1.485-.018 2.972 0 4.542 0V659.3H768z" transform="translate(-768 -585.341)"/>
    <path id="Path_52" data-name="Path 52" class="cls-2" d="M768 529.5h6.452v13H768z" transform="translate(-768 -494.542)"/>
    <path id="Path_53" data-name="Path 53" class="cls-2" d="M824.188 533.995c1.687-.15 3.317-.245 4.933-.451a25.82 25.82 0 0 0 6.753-2 24.4 24.4 0 0 1 8.883-1.967c.331-.01.664 0 1.042 0 .015.248.04.458.04.667 0 3.369.014 6.741 0 10.1a10.827 10.827 0 0 1-21.634.73c-.105-2.345-.017-4.706-.017-7.079z" transform="translate(-813.339 -494.605)"/>
    <path id="Path_54" data-name="Path 54" class="cls-2" d="M813.053 434.373c-1.377 0-2.747.023-4.112-.029-.193 0-.439-.362-.516-.6a17.242 17.242 0 0 0-32.991-.233c-.224.714-.516.926-1.237.884-1.156-.069-2.311-.019-3.467-.019a21.586 21.586 0 0 1 42.323 0z" transform="translate(-770.204 -403.748)"/>
    <path id="Path_55" data-name="Path 55" class="cls-2" d="M824.193 474.9c-.9-7.695 4.33-12.406 9.823-12.928 5.333-.5 11.225 3.9 11.452 8.577-1.529.141-3.064.233-4.586.429a28.294 28.294 0 0 0-6.959 2.045 23.24 23.24 0 0 1-9.73 1.877z" transform="translate(-813.288 -439.99)"/>
    <path id="Path_56" data-name="Path 56" class="cls-2" d="M961.617 549.127v-6.433h-2.1V529.72h6.414v19.407z" transform="translate(-922.632 -494.72)"/>
    <path id="Path_57" data-name="Path 57" class="cls-3" d="M1039.77 393.17h4.237v4.237h-4.237z" transform="translate(-987.425 -384.47)"/>
    <path id="Path_58" data-name="Path 58" class="cls-3" d="M1084.8 393.14h4.237v4.268h-4.237z" transform="translate(-1023.782 -384.446)"/>
</svg>
