<svg xmlns="http://www.w3.org/2000/svg" width="52.276" height="30.824" viewBox="0 0 52.276 30.824"><g id="Group_1267" data-name="Group 1267" transform="translate(6264.334 1527.492)"><g id="Group_1269" data-name="Group 1269" transform="translate(-6263.334 -1526.492)"><g id="Group_1267-2" data-name="Group 1267"><path id="Path_979" data-name="Path 979" d="M-6263.151-1513.66v18.255a3.954,3.954,0,0,0,3.954,3.954h11.063a5.274,5.274,0,0,0,4.524-2.564l3.241-5.415a2.636,2.636,0,0,1,4.523,0l3.241,5.415a5.274,5.274,0,0,0,4.524,2.564h11.062a3.954,3.954,0,0,0,3.954-3.954v-18.255Z" transform="translate(6263.246 1520.275)" fill="none" stroke="#07f2c2" stroke-linecap="round" stroke-linejoin="round" stroke-width="2"></path><path id="Path_980" data-name="Path 980" d="M-6218.351-1526.492h-39.691l-5.292,6.615h50.276Z" transform="translate(6263.335 1526.492)" fill="none" stroke="#07f2c2" stroke-linecap="round" stroke-linejoin="round" stroke-width="2"></path></g><g id="Group_1268" data-name="Group 1268"><path id="Path_981" data-name="Path 981" d="M-6263.151-1513.66v18.255a3.954,3.954,0,0,0,3.954,3.954h11.063a5.274,5.274,0,0,0,4.524-2.564l3.241-5.415a2.636,2.636,0,0,1,4.523,0l3.241,5.415a5.274,5.274,0,0,0,4.524,2.564h11.062a3.954,3.954,0,0,0,3.954-3.954v-18.255Z" transform="translate(6263.246 1520.275)" fill="none" stroke="#07f2c2" stroke-linecap="round" stroke-linejoin="round" stroke-width="2"></path><path id="Path_982" data-name="Path 982" d="M-6218.351-1526.492h-39.691l-5.292,6.615h50.276Z" transform="translate(6263.335 1526.492)" fill="none" stroke="#07f2c2" stroke-linecap="round" stroke-linejoin="round" stroke-width="2"></path></g></g><g id="Group_1270" data-name="Group 1270" transform="translate(-6246.894 -1517.343)"><path id="Path_983" data-name="Path 983" d="M-6231.149-1501.918a3.581,3.581,0,0,0,1.755.5c1.378,0,1.8-.877,1.792-1.536-.013-1.109-1.012-1.585-2.048-1.585h-.6v-.8h.6c.78,0,1.768-.4,1.768-1.341,0-.634-.4-1.194-1.39-1.194a2.911,2.911,0,0,0-1.585.524l-.28-.78a3.768,3.768,0,0,1,2.072-.609c1.561,0,2.267.926,2.267,1.889a1.966,1.966,0,0,1-1.462,1.865v.025a2.063,2.063,0,0,1,1.767,2.035c0,1.268-.987,2.377-2.889,2.377a4.023,4.023,0,0,1-2.06-.537Z" transform="translate(6231.441 1508.744)" fill="#07f2c2"></path><path id="Path_984" data-name="Path 984" d="M-6214.838-1507.843a3.881,3.881,0,0,0-.8.049,3.219,3.219,0,0,0-2.755,2.816h.037a2.36,2.36,0,0,1,1.914-.914,2.352,2.352,0,0,1,2.389,2.559,2.65,2.65,0,0,1-2.633,2.792c-1.694,0-2.8-1.317-2.8-3.377a4.979,4.979,0,0,1,1.341-3.572,4.312,4.312,0,0,1,2.535-1.17,5.118,5.118,0,0,1,.78-.061Zm-.3,4.571a1.611,1.611,0,0,0-1.634-1.817,1.768,1.768,0,0,0-1.537.976.926.926,0,0,0-.121.475c.024,1.3.622,2.268,1.743,2.268C-6215.764-1501.369-6215.142-1502.137-6215.142-1503.271Z" transform="translate(6225.653 1508.732)" fill="#07f2c2"></path><path id="Path_985" data-name="Path 985" d="M-6201.934-1504.733c0,2.694-1,4.181-2.755,4.181-1.549,0-2.6-1.451-2.622-4.072,0-2.657,1.146-4.12,2.755-4.12C-6202.885-1508.744-6201.934-1507.257-6201.934-1504.733Zm-4.3.122c0,2.06.635,3.23,1.609,3.23,1.1,0,1.622-1.28,1.622-3.3,0-1.951-.5-3.231-1.609-3.231C-6205.555-1507.915-6206.238-1506.769-6206.238-1504.611Z" transform="translate(6219.75 1508.744)" fill="#07f2c2"></path></g></g></svg>