<svg xmlns="http://www.w3.org/2000/svg" width="58.121" height="53.086" viewBox="0 0 58.121 53.086"><g id="Group_1139" data-name="Group 1139" transform="translate(5495.802 1835.53)"><g id="Group_1141" data-name="Group 1141" transform="translate(-5494.802 -1834.53)"><g id="Group_1140" data-name="Group 1140"><line id="Line_187" data-name="Line 187" x2="9.838" transform="translate(0 35.467)" fill="none" stroke="#07f2c2" stroke-linecap="round" stroke-linejoin="round" stroke-width="2"></line><path id="Path_934" data-name="Path 934" d="M-5490.941-1799.294l6.31-20.019h7.161l2.854,6.306,6.236-21.522,6.871,23.845" transform="translate(5496.773 1834.53)" fill="none" stroke="#07f2c2" stroke-linecap="round" stroke-linejoin="round" stroke-width="2"></path></g></g><g id="Group_1166" data-name="Group 1166" transform="translate(-5459.255 -1821.487)"><g id="Group_1153" data-name="Group 1153" transform="translate(0)"><g id="Group_1152" data-name="Group 1152"><g id="Group_1151" data-name="Group 1151"><g id="Group_1150" data-name="Group 1150"><g id="Group_1149" data-name="Group 1149"><g id="Group_1148" data-name="Group 1148"><g id="Group_1147" data-name="Group 1147"><g id="Group_1146" data-name="Group 1146" transform="translate(0)"><g id="Group_1145" data-name="Group 1145"><g id="Group_1144" data-name="Group 1144"><g id="Group_1143" data-name="Group 1143"><g id="Group_1142" data-name="Group 1142"><path id="Path_935" data-name="Path 935" d="M-5434.46-1789.782V-1810.1a3.337,3.337,0,0,1,3.4-3.274h13.69a3.337,3.337,0,0,1,3.4,3.274v32.243a2.573,2.573,0,0,1-2.62,2.525h-15.244a2.573,2.573,0,0,1-2.62-2.525V-1810.1a3.337,3.337,0,0,1,3.4-3.274h13.69a3.336,3.336,0,0,1,3.4,3.271" transform="translate(5434.46 1813.378)" fill="none" stroke="#07f2c2" stroke-linecap="round" stroke-linejoin="round" stroke-width="2"></path></g></g></g></g></g><line id="Line_190" data-name="Line 190" x1="20.485" transform="translate(0 32.922)" fill="none" stroke="#07f2c2" stroke-linecap="round" stroke-linejoin="round" stroke-width="2"></line></g></g><line id="Line_191" data-name="Line 191" x2="20.485" transform="translate(0.089 5.853)" fill="none" stroke="#07f2c2" stroke-linecap="round" stroke-linejoin="round" stroke-width="2"></line></g></g></g></g></g><g id="Group_1165" data-name="Group 1165" transform="translate(0)"><g id="Group_1164" data-name="Group 1164"><g id="Group_1163" data-name="Group 1163"><g id="Group_1162" data-name="Group 1162"><g id="Group_1161" data-name="Group 1161"><g id="Group_1160" data-name="Group 1160"><g id="Group_1159" data-name="Group 1159"><g id="Group_1158" data-name="Group 1158" transform="translate(0)"><g id="Group_1157" data-name="Group 1157"><g id="Group_1156" data-name="Group 1156"><g id="Group_1155" data-name="Group 1155"><g id="Group_1154" data-name="Group 1154"><path id="Path_936" data-name="Path 936" d="M-5434.46-1789.782V-1810.1a3.337,3.337,0,0,1,3.4-3.274h13.69a3.337,3.337,0,0,1,3.4,3.274v32.243a2.573,2.573,0,0,1-2.62,2.525h-15.244a2.573,2.573,0,0,1-2.62-2.525V-1810.1a3.337,3.337,0,0,1,3.4-3.274h13.69a3.336,3.336,0,0,1,3.4,3.271" transform="translate(5434.46 1813.378)" fill="none" stroke="#07f2c2" stroke-linecap="round" stroke-linejoin="round" stroke-width="2"></path><line id="Line_192" data-name="Line 192" x1="2.127" transform="translate(11.014 2.926)" fill="none" stroke="#07f2c2" stroke-linecap="round" stroke-linejoin="round" stroke-width="2"></line><line id="Line_193" data-name="Line 193" x1="0.836" transform="translate(6.789 2.926)" fill="none" stroke="#07f2c2" stroke-linecap="round" stroke-linejoin="round" stroke-width="2"></line></g></g></g></g></g><line id="Line_194" data-name="Line 194" x1="20.485" transform="translate(0 32.922)" fill="none" stroke="#07f2c2" stroke-linecap="round" stroke-linejoin="round" stroke-width="2"></line></g></g><line id="Line_195" data-name="Line 195" x2="20.485" transform="translate(0.089 5.853)" fill="none" stroke="#07f2c2" stroke-linecap="round" stroke-linejoin="round" stroke-width="2"></line></g></g></g></g></g></g><g id="Group_1173" data-name="Group 1173" transform="translate(-5479.315 -1809.222)"><g id="Group_1169" data-name="Group 1169"><g id="Group_1167" data-name="Group 1167"><path id="Path_937" data-name="Path 937" d="M-5452.343-1780.8v-8.457l-7.325-4.229-7.324,4.229v8.457l7.324,4.229Z" transform="translate(5466.992 1793.489)" fill="none" stroke="#07f2c2" stroke-linecap="round" stroke-linejoin="round" stroke-width="2"></path><path id="Path_938" data-name="Path 938" d="M-5466.992-1786.72l7.324,4.229,7.325-4.229" transform="translate(5466.992 1790.894)" fill="none" stroke="#07f2c2" stroke-linecap="round" stroke-linejoin="round" stroke-width="2"></path><line id="Line_196" data-name="Line 196" y2="8.512" transform="translate(7.325 8.458)" fill="none" stroke="#07f2c2" stroke-linecap="round" stroke-linejoin="round" stroke-width="2"></line></g><g id="Group_1168" data-name="Group 1168" transform="translate(3.557 4.242)"><path id="Path_939" data-name="Path 939" d="M-5453.729-1780.266v-4.229l-3.662-2.115-3.663,2.115v4.229l3.663,2.114Z" transform="translate(5461.159 1786.609)" fill="none" stroke="#07f2c2" stroke-linecap="round" stroke-linejoin="round" stroke-width="2"></path><path id="Path_940" data-name="Path 940" d="M-5461.223-1783.324l3.767,2.175,3.767-2.175" transform="translate(5461.223 1785.35)" fill="none" stroke="#07f2c2" stroke-linecap="round" stroke-linejoin="round" stroke-width="2"></path><line id="Line_197" data-name="Line 197" y2="4.378" transform="translate(3.767 4.229)" fill="none" stroke="#07f2c2" stroke-linecap="round" stroke-linejoin="round" stroke-width="2"></line></g></g><g id="Group_1172" data-name="Group 1172"><g id="Group_1170" data-name="Group 1170"><path id="Path_941" data-name="Path 941" d="M-5452.343-1780.8v-8.457l-7.325-4.229-7.324,4.229v8.457l7.324,4.229Z" transform="translate(5466.992 1793.489)" fill="none" stroke="#07f2c2" stroke-linecap="round" stroke-linejoin="round" stroke-width="2"></path><path id="Path_942" data-name="Path 942" d="M-5466.992-1786.72l7.324,4.229,7.325-4.229" transform="translate(5466.992 1790.894)" fill="none" stroke="#07f2c2" stroke-linecap="round" stroke-linejoin="round" stroke-width="2"></path><line id="Line_198" data-name="Line 198" y2="8.512" transform="translate(7.325 8.458)" fill="none" stroke="#07f2c2" stroke-linecap="round" stroke-linejoin="round" stroke-width="2"></line></g><g id="Group_1171" data-name="Group 1171" transform="translate(3.557 4.242)"><path id="Path_943" data-name="Path 943" d="M-5453.729-1780.266v-4.229l-3.662-2.115-3.663,2.115v4.229l3.663,2.114Z" transform="translate(5461.159 1786.609)" fill="none" stroke="#07f2c2" stroke-linecap="round" stroke-linejoin="round" stroke-width="2"></path><path id="Path_944" data-name="Path 944" d="M-5461.223-1783.324l3.767,2.175,3.767-2.175" transform="translate(5461.223 1785.35)" fill="none" stroke="#07f2c2" stroke-linecap="round" stroke-linejoin="round" stroke-width="2"></path><line id="Line_199" data-name="Line 199" y2="4.378" transform="translate(3.767 4.229)" fill="none" stroke="#07f2c2" stroke-linecap="round" stroke-linejoin="round" stroke-width="2"></line></g></g></g></g></svg>