<svg xmlns="http://www.w3.org/2000/svg" width="72.018" height="61.129" viewBox="0 0 72.018 61.129"><g id="Group_1034" data-name="Group 1034" transform="translate(3847.965 1555.901)"><g id="Group_949" data-name="Group 949" transform="translate(-3846.465 -1554.401)"><g id="Group_948" data-name="Group 948"><g id="Group_947" data-name="Group 947"><path id="Path_854" data-name="Path 854" d="M-3806.338-1506.624v10.352l11.137-10.352,12.938-.081a4.815,4.815,0,0,0,4.815-4.815v-38.066a4.815,4.815,0,0,0-4.815-4.815h-59.387a4.816,4.816,0,0,0-4.815,4.815v38.066a4.816,4.816,0,0,0,4.815,4.815Z" transform="translate(3846.465 1554.401)" fill="none" stroke="#869095" stroke-linejoin="round" stroke-width="2"></path></g></g><line id="Line_112" data-name="Line 112" x2="69.018" transform="translate(0 9.63)" fill="none" stroke="#869095" stroke-linejoin="round" stroke-width="2"></line><line id="Line_113" data-name="Line 113" x2="4.013" transform="translate(6.42 4.815)" fill="none" stroke="#858f94" stroke-linejoin="round" stroke-width="2"></line><line id="Line_114" data-name="Line 114" x2="4.013" transform="translate(16.658 4.815)" fill="none" stroke="#858f94" stroke-linejoin="round" stroke-width="2"></line><line id="Line_115" data-name="Line 115" x2="26.484" transform="translate(8.828 28.696)" fill="none" stroke="#858f94" stroke-linejoin="round" stroke-width="2"></line><line id="Line_116" data-name="Line 116" x2="52.165" transform="translate(8.828 33.381)" fill="none" stroke="#858f94" stroke-linejoin="round" stroke-width="2"></line><line id="Line_117" data-name="Line 117" x2="52.165" transform="translate(8.828 38.066)" fill="none" stroke="#858f94" stroke-linejoin="round" stroke-width="2"></line><rect id="Rectangle_272" data-name="Rectangle 272" width="51.362" height="7.96" transform="translate(8.828 16.051)" fill="none" stroke="#858f94" stroke-linejoin="round" stroke-width="2"></rect></g><g id="Group_952" data-name="Group 952" transform="translate(-3846.465 -1554.401)"><g id="Group_951" data-name="Group 951"><g id="Group_950" data-name="Group 950"><path id="Path_855" data-name="Path 855" d="M-3806.338-1506.624v10.352l11.137-10.352,12.938-.081a4.815,4.815,0,0,0,4.815-4.815v-38.066a4.815,4.815,0,0,0-4.815-4.815h-59.387a4.816,4.816,0,0,0-4.815,4.815v38.066a4.816,4.816,0,0,0,4.815,4.815Z" transform="translate(3846.465 1554.401)" fill="none" stroke="#07f2c2" stroke-linecap="round" stroke-linejoin="round" stroke-width="3"></path></g></g><line id="Line_118" data-name="Line 118" x2="69.018" transform="translate(0 9.63)" fill="none" stroke="#07f2c2" stroke-linecap="round" stroke-linejoin="round" stroke-width="3"></line><line id="Line_119" data-name="Line 119" x2="4.013" transform="translate(6.42 4.815)" fill="none" stroke="#07f2c2" stroke-linecap="round" stroke-linejoin="round" stroke-width="3"></line><line id="Line_120" data-name="Line 120" x2="4.013" transform="translate(16.658 4.815)" fill="none" stroke="#07f2c2" stroke-linecap="round" stroke-linejoin="round" stroke-width="3"></line><line id="Line_121" data-name="Line 121" x2="26.484" transform="translate(8.828 28.696)" fill="none" stroke="#07f2c2" stroke-linecap="round" stroke-linejoin="round" stroke-width="3"></line><line id="Line_122" data-name="Line 122" x2="52.165" transform="translate(8.828 33.381)" fill="none" stroke="#07f2c2" stroke-linecap="round" stroke-linejoin="round" stroke-width="3"></line><line id="Line_123" data-name="Line 123" x2="52.165" transform="translate(8.828 38.066)" fill="none" stroke="#07f2c2" stroke-linecap="round" stroke-linejoin="round" stroke-width="3"></line><rect id="Rectangle_273" data-name="Rectangle 273" width="51.362" height="7.96" transform="translate(8.828 16.051)" fill="none" stroke="#07f2c2" stroke-linecap="round" stroke-linejoin="round" stroke-width="3"></rect></g></g></svg>