<svg xmlns="http://www.w3.org/2000/svg" width="76.627" height="52.822" viewBox="0 0 76.627 52.822"><g id="Group_999" data-name="Group 999" transform="translate(2841.295 2024.133)"><g id="Group_732" data-name="Group 732" transform="translate(-2839.795 -2022.633)"><g id="Group_721" data-name="Group 721"><g id="Group_706" data-name="Group 706"><g id="Group_705" data-name="Group 705"><g id="Group_694" data-name="Group 694"><g id="Group_693" data-name="Group 693" transform="translate(0 41.632)"><path id="Path_710" data-name="Path 710" d="M-2787.925-1972.8h-51.87v3.822l.219.17a7.038,7.038,0,0,0,4.31,1.469h47.341" transform="translate(2839.795 1972.803)" fill="none" stroke="#0076ff" stroke-linecap="round" stroke-linejoin="round" stroke-width="2"></path></g><path id="Path_711" data-name="Path 711" d="M-2771.566-2011.031v-10.113a1.481,1.481,0,0,0-1.472-1.489h-57.116a1.481,1.481,0,0,0-1.472,1.489V-1981" transform="translate(2838.451 2022.633)" fill="none" stroke="#0076ff" stroke-linecap="round" stroke-linejoin="round" stroke-width="2"></path><path id="Path_712" data-name="Path 712" d="M-2785.775-1984.289h-39.671a1.283,1.283,0,0,1-1.279-1.279v-30.884a1.283,1.283,0,0,1,1.279-1.279h49.312a1.283,1.283,0,0,1,1.28,1.279v6.229" transform="translate(2837.645 2021.827)" fill="none" stroke="#0076ff" stroke-linecap="round" stroke-linejoin="round" stroke-width="2"></path></g><g id="Group_704" data-name="Group 704" transform="translate(54.517 14.332)"><g id="Group_703" data-name="Group 703"><g id="Group_702" data-name="Group 702"><g id="Group_701" data-name="Group 701"><g id="Group_700" data-name="Group 700"><g id="Group_699" data-name="Group 699"><g id="Group_698" data-name="Group 698"><g id="Group_697" data-name="Group 697"><g id="Group_696" data-name="Group 696"><g id="Group_695" data-name="Group 695"><path id="Path_713" data-name="Path 713" d="M-2774.543-1983.466v-18.958a3.114,3.114,0,0,1,3.17-3.055h12.771a3.114,3.114,0,0,1,3.169,3.055v30.08a2.4,2.4,0,0,1-2.444,2.355H-2772.1a2.4,2.4,0,0,1-2.445-2.355v-30.08a3.114,3.114,0,0,1,3.17-3.055h12.771a3.113,3.113,0,0,1,3.169,3.053" transform="translate(2774.543 2005.479)" fill="none" stroke="#0076ff" stroke-linecap="round" stroke-linejoin="round" stroke-width="2"></path><line id="Line_43" data-name="Line 43" x1="1.552" transform="translate(8.956 2.73)" fill="none" stroke="#0076ff" stroke-linecap="round" stroke-linejoin="round" stroke-width="2"></line></g></g></g></g></g><line id="Line_44" data-name="Line 44" x1="19.11" transform="translate(0 30.713)" fill="none" stroke="#0076ff" stroke-linecap="round" stroke-linejoin="round" stroke-width="2"></line></g></g><line id="Line_45" data-name="Line 45" x2="18.801" transform="translate(0.083 5.46)" fill="none" stroke="#0076ff" stroke-linecap="round" stroke-linejoin="round" stroke-width="2"></line></g></g></g></g></g><g id="Group_720" data-name="Group 720"><g id="Group_719" data-name="Group 719"><g id="Group_708" data-name="Group 708"><g id="Group_707" data-name="Group 707" transform="translate(0 41.632)"><path id="Path_714" data-name="Path 714" d="M-2787.925-1972.8h-51.87v3.822l.219.17a7.038,7.038,0,0,0,4.31,1.469h47.341" transform="translate(2839.795 1972.803)" fill="none" stroke="#0076ff" stroke-linecap="round" stroke-linejoin="round" stroke-width="3"></path></g><path id="Path_715" data-name="Path 715" d="M-2771.566-2011.031v-10.113a1.481,1.481,0,0,0-1.472-1.489h-57.116a1.481,1.481,0,0,0-1.472,1.489V-1981" transform="translate(2838.451 2022.633)" fill="none" stroke="#0076ff" stroke-linecap="round" stroke-linejoin="round" stroke-width="3"></path><path id="Path_716" data-name="Path 716" d="M-2785.775-1984.289h-39.671a1.283,1.283,0,0,1-1.279-1.279v-30.884a1.283,1.283,0,0,1,1.279-1.279h49.312a1.283,1.283,0,0,1,1.28,1.279v6.229" transform="translate(2837.645 2021.827)" fill="none" stroke="#0076ff" stroke-linecap="round" stroke-linejoin="round" stroke-width="3"></path></g><g id="Group_718" data-name="Group 718" transform="translate(54.517 14.332)"><g id="Group_717" data-name="Group 717"><g id="Group_716" data-name="Group 716"><g id="Group_715" data-name="Group 715"><g id="Group_714" data-name="Group 714"><g id="Group_713" data-name="Group 713"><g id="Group_712" data-name="Group 712"><g id="Group_711" data-name="Group 711"><g id="Group_710" data-name="Group 710"><g id="Group_709" data-name="Group 709"><path id="Path_717" data-name="Path 717" d="M-2774.543-1983.466v-18.958a3.114,3.114,0,0,1,3.17-3.055h12.771a3.114,3.114,0,0,1,3.169,3.055v30.08a2.4,2.4,0,0,1-2.444,2.355H-2772.1a2.4,2.4,0,0,1-2.445-2.355v-30.08a3.114,3.114,0,0,1,3.17-3.055h12.771a3.113,3.113,0,0,1,3.169,3.053" transform="translate(2774.543 2005.479)" fill="none" stroke="#0076ff" stroke-linecap="round" stroke-linejoin="round" stroke-width="3"></path><line id="Line_46" data-name="Line 46" x1="1.552" transform="translate(8.956 2.73)" fill="none" stroke="#0076ff" stroke-linecap="round" stroke-linejoin="round" stroke-width="3"></line></g></g></g></g></g><line id="Line_47" data-name="Line 47" x1="19.11" transform="translate(0 30.713)" fill="none" stroke="#0076ff" stroke-linecap="round" stroke-linejoin="round" stroke-width="3"></line></g></g><line id="Line_48" data-name="Line 48" x2="18.801" transform="translate(0.083 5.46)" fill="none" stroke="#0076ff" stroke-linecap="round" stroke-linejoin="round" stroke-width="3"></line></g></g></g></g></g></g><g id="Group_726" data-name="Group 726" transform="translate(16.062 11.075)"><g id="Group_723" data-name="Group 723"><g id="Group_722" data-name="Group 722" transform="translate(10.39 2.598)"><rect id="Rectangle_227" data-name="Rectangle 227" width="3.896" height="3.896" transform="translate(9.741 14.287)" fill="none" stroke="#0076ff" stroke-linecap="round" stroke-linejoin="round" stroke-width="2"></rect><rect id="Rectangle_228" data-name="Rectangle 228" width="3.896" height="3.896" transform="translate(0 1.948)" fill="none" stroke="#0076ff" stroke-linecap="round" stroke-linejoin="round" stroke-width="2"></rect><rect id="Rectangle_229" data-name="Rectangle 229" width="3.896" height="3.896" transform="translate(14.287)" fill="none" stroke="#0076ff" stroke-linecap="round" stroke-linejoin="round" stroke-width="2"></rect></g><rect id="Rectangle_230" data-name="Rectangle 230" width="3.896" height="3.896" transform="translate(4.546 14.936)" fill="none" stroke="#0076ff" stroke-linecap="round" stroke-linejoin="round" stroke-width="2"></rect><rect id="Rectangle_231" data-name="Rectangle 231" width="3.896" height="3.896" fill="none" stroke="#0076ff" stroke-linecap="round" stroke-linejoin="round" stroke-width="2"></rect></g><g id="Group_725" data-name="Group 725"><g id="Group_724" data-name="Group 724" transform="translate(10.39 2.598)"><rect id="Rectangle_232" data-name="Rectangle 232" width="3.896" height="3.896" transform="translate(9.741 14.287)" fill="none" stroke="#0076ff" stroke-linecap="round" stroke-linejoin="round" stroke-width="3"></rect><rect id="Rectangle_233" data-name="Rectangle 233" width="3.896" height="3.896" transform="translate(0 1.948)" fill="none" stroke="#0076ff" stroke-linecap="round" stroke-linejoin="round" stroke-width="3"></rect><rect id="Rectangle_234" data-name="Rectangle 234" width="3.896" height="3.896" transform="translate(14.287)" fill="none" stroke="#0076ff" stroke-linecap="round" stroke-linejoin="round" stroke-width="3"></rect></g><rect id="Rectangle_235" data-name="Rectangle 235" width="3.896" height="3.896" transform="translate(4.546 14.936)" fill="none" stroke="#0076ff" stroke-linecap="round" stroke-linejoin="round" stroke-width="3"></rect><rect id="Rectangle_236" data-name="Rectangle 236" width="3.896" height="3.896" fill="none" stroke="#0076ff" stroke-linecap="round" stroke-linejoin="round" stroke-width="3"></rect></g></g><g id="Group_731" data-name="Group 731" transform="translate(58.318 24.911)"><g id="Group_728" data-name="Group 728"><g id="Group_727" data-name="Group 727"><rect id="Rectangle_237" data-name="Rectangle 237" width="3.656" height="3.656" transform="translate(8.531 3.047)" fill="none" stroke="#0076ff" stroke-linecap="round" stroke-linejoin="round" stroke-width="2"></rect><rect id="Rectangle_238" data-name="Rectangle 238" width="3.656" height="3.656" fill="none" stroke="#0076ff" stroke-linecap="round" stroke-linejoin="round" stroke-width="2"></rect></g><rect id="Rectangle_239" data-name="Rectangle 239" width="3.656" height="3.656" transform="translate(2.437 8.531)" fill="none" stroke="#0076ff" stroke-linecap="round" stroke-linejoin="round" stroke-width="2"></rect></g><g id="Group_730" data-name="Group 730"><g id="Group_729" data-name="Group 729"><rect id="Rectangle_240" data-name="Rectangle 240" width="3.656" height="3.656" transform="translate(8.531 3.047)" fill="none" stroke="#0076ff" stroke-linecap="round" stroke-linejoin="round" stroke-width="3"></rect><rect id="Rectangle_241" data-name="Rectangle 241" width="3.656" height="3.656" fill="none" stroke="#0076ff" stroke-linecap="round" stroke-linejoin="round" stroke-width="3"></rect></g><rect id="Rectangle_242" data-name="Rectangle 242" width="3.656" height="3.656" transform="translate(2.437 8.531)" fill="none" stroke="#0076ff" stroke-linecap="round" stroke-linejoin="round" stroke-width="3"></rect></g></g></g><g id="Group_790" data-name="Group 790" transform="translate(-2839.795 -2022.633)"><g id="Group_775" data-name="Group 775"><g id="Group_746" data-name="Group 746"><g id="Group_745" data-name="Group 745"><g id="Group_734" data-name="Group 734"><g id="Group_733" data-name="Group 733" transform="translate(0 41.632)"><path id="Path_718" data-name="Path 718" d="M-2787.925-1972.8h-51.87v3.822l.219.17a7.038,7.038,0,0,0,4.31,1.469h47.341" transform="translate(2839.795 1972.803)" fill="none"></path></g><path id="Path_719" data-name="Path 719" d="M-2771.566-2011.031v-10.113a1.481,1.481,0,0,0-1.472-1.489h-57.116a1.481,1.481,0,0,0-1.472,1.489V-1981" transform="translate(2838.451 2022.633)" fill="none"></path><path id="Path_720" data-name="Path 720" d="M-2785.775-1984.289h-39.671a1.283,1.283,0,0,1-1.279-1.279v-30.884a1.283,1.283,0,0,1,1.279-1.279h49.312a1.283,1.283,0,0,1,1.28,1.279v6.229" transform="translate(2837.645 2021.827)" fill="none"></path></g><g id="Group_744" data-name="Group 744" transform="translate(54.517 14.332)"><g id="Group_743" data-name="Group 743"><g id="Group_742" data-name="Group 742"><g id="Group_741" data-name="Group 741"><g id="Group_740" data-name="Group 740"><g id="Group_739" data-name="Group 739"><g id="Group_738" data-name="Group 738"><g id="Group_737" data-name="Group 737"><g id="Group_736" data-name="Group 736"><g id="Group_735" data-name="Group 735"><path id="Path_721" data-name="Path 721" d="M-2774.543-1983.466v-18.958a3.114,3.114,0,0,1,3.17-3.055h12.771a3.114,3.114,0,0,1,3.169,3.055v30.08a2.4,2.4,0,0,1-2.444,2.355H-2772.1a2.4,2.4,0,0,1-2.445-2.355v-30.08a3.114,3.114,0,0,1,3.17-3.055h12.771a3.113,3.113,0,0,1,3.169,3.053" transform="translate(2774.543 2005.479)" fill="none"></path><line id="Line_49" data-name="Line 49" x1="1.552" transform="translate(8.956 2.73)" fill="none"></line></g></g></g></g></g><line id="Line_50" data-name="Line 50" x1="19.11" transform="translate(0 30.713)" fill="none"></line></g></g><line id="Line_51" data-name="Line 51" x2="18.801" transform="translate(0.083 5.46)" fill="none"></line></g></g></g></g></g><g id="Group_760" data-name="Group 760"><g id="Group_759" data-name="Group 759"><g id="Group_748" data-name="Group 748"><g id="Group_747" data-name="Group 747" transform="translate(0 41.632)"><path id="Path_722" data-name="Path 722" d="M-2787.925-1972.8h-51.87v3.822l.219.17a7.038,7.038,0,0,0,4.31,1.469h47.341" transform="translate(2839.795 1972.803)" fill="none"></path></g><path id="Path_723" data-name="Path 723" d="M-2771.566-2011.031v-10.113a1.481,1.481,0,0,0-1.472-1.489h-57.116a1.481,1.481,0,0,0-1.472,1.489V-1981" transform="translate(2838.451 2022.633)" fill="none"></path><path id="Path_724" data-name="Path 724" d="M-2785.775-1984.289h-39.671a1.283,1.283,0,0,1-1.279-1.279v-30.884a1.283,1.283,0,0,1,1.279-1.279h49.312a1.283,1.283,0,0,1,1.28,1.279v6.229" transform="translate(2837.645 2021.827)" fill="none"></path></g><g id="Group_758" data-name="Group 758" transform="translate(54.517 14.332)"><g id="Group_757" data-name="Group 757"><g id="Group_756" data-name="Group 756"><g id="Group_755" data-name="Group 755"><g id="Group_754" data-name="Group 754"><g id="Group_753" data-name="Group 753"><g id="Group_752" data-name="Group 752"><g id="Group_751" data-name="Group 751"><g id="Group_750" data-name="Group 750"><g id="Group_749" data-name="Group 749"><path id="Path_725" data-name="Path 725" d="M-2774.543-1983.466v-18.958a3.114,3.114,0,0,1,3.17-3.055h12.771a3.114,3.114,0,0,1,3.169,3.055v30.08a2.4,2.4,0,0,1-2.444,2.355H-2772.1a2.4,2.4,0,0,1-2.445-2.355v-30.08a3.114,3.114,0,0,1,3.17-3.055h12.771a3.113,3.113,0,0,1,3.169,3.053" transform="translate(2774.543 2005.479)" fill="none"></path><line id="Line_52" data-name="Line 52" x1="1.552" transform="translate(8.956 2.73)" fill="none"></line></g></g></g></g></g><line id="Line_53" data-name="Line 53" x1="19.11" transform="translate(0 30.713)" fill="none"></line></g></g><line id="Line_54" data-name="Line 54" x2="18.801" transform="translate(0.083 5.46)" fill="none"></line></g></g></g></g></g><g id="Group_774" data-name="Group 774"><g id="Group_773" data-name="Group 773"><g id="Group_762" data-name="Group 762"><g id="Group_761" data-name="Group 761" transform="translate(0 41.632)"><path id="Path_726" data-name="Path 726" d="M-2787.925-1972.8h-51.87v3.822l.219.17a7.038,7.038,0,0,0,4.31,1.469h47.341" transform="translate(2839.795 1972.803)" fill="none"></path></g><path id="Path_727" data-name="Path 727" d="M-2771.566-2011.031v-10.113a1.481,1.481,0,0,0-1.472-1.489h-57.116a1.481,1.481,0,0,0-1.472,1.489V-1981" transform="translate(2838.451 2022.633)" fill="none"></path><path id="Path_728" data-name="Path 728" d="M-2785.775-1984.289h-39.671a1.283,1.283,0,0,1-1.279-1.279v-30.884a1.283,1.283,0,0,1,1.279-1.279h49.312a1.283,1.283,0,0,1,1.28,1.279v6.229" transform="translate(2837.645 2021.827)" fill="none"></path></g><g id="Group_772" data-name="Group 772" transform="translate(54.517 14.332)"><g id="Group_771" data-name="Group 771"><g id="Group_770" data-name="Group 770"><g id="Group_769" data-name="Group 769"><g id="Group_768" data-name="Group 768"><g id="Group_767" data-name="Group 767"><g id="Group_766" data-name="Group 766"><g id="Group_765" data-name="Group 765"><g id="Group_764" data-name="Group 764"><g id="Group_763" data-name="Group 763"><path id="Path_729" data-name="Path 729" d="M-2774.543-1983.466v-18.958a3.114,3.114,0,0,1,3.17-3.055h12.771a3.114,3.114,0,0,1,3.169,3.055v30.08a2.4,2.4,0,0,1-2.444,2.355H-2772.1a2.4,2.4,0,0,1-2.445-2.355v-30.08a3.114,3.114,0,0,1,3.17-3.055h12.771a3.113,3.113,0,0,1,3.169,3.053" transform="translate(2774.543 2005.479)" fill="none"></path><line id="Line_55" data-name="Line 55" x1="1.552" transform="translate(8.956 2.73)" fill="none"></line></g></g></g></g></g><line id="Line_56" data-name="Line 56" x1="19.11" transform="translate(0 30.713)" fill="none"></line></g></g><line id="Line_57" data-name="Line 57" x2="18.801" transform="translate(0.083 5.46)" fill="none"></line></g></g></g></g></g></g><g id="Group_782" data-name="Group 782" transform="translate(16.062 11.075)"><g id="Group_777" data-name="Group 777"><g id="Group_776" data-name="Group 776" transform="translate(10.39 2.598)"><rect id="Rectangle_243" data-name="Rectangle 243" width="3.896" height="3.896" transform="translate(9.741 14.287)" fill="none"></rect><rect id="Rectangle_244" data-name="Rectangle 244" width="3.896" height="3.896" transform="translate(0 1.948)" fill="none"></rect><rect id="Rectangle_245" data-name="Rectangle 245" width="3.896" height="3.896" transform="translate(14.287)" fill="none"></rect></g><rect id="Rectangle_246" data-name="Rectangle 246" width="3.896" height="3.896" transform="translate(4.546 14.936)" fill="none"></rect><rect id="Rectangle_247" data-name="Rectangle 247" width="3.896" height="3.896" fill="none"></rect></g><g id="Group_779" data-name="Group 779"><g id="Group_778" data-name="Group 778" transform="translate(10.39 2.598)"><rect id="Rectangle_248" data-name="Rectangle 248" width="3.896" height="3.896" transform="translate(9.741 14.287)" fill="none"></rect><rect id="Rectangle_249" data-name="Rectangle 249" width="3.896" height="3.896" transform="translate(0 1.948)" fill="none"></rect><rect id="Rectangle_250" data-name="Rectangle 250" width="3.896" height="3.896" transform="translate(14.287)" fill="none"></rect></g><rect id="Rectangle_251" data-name="Rectangle 251" width="3.896" height="3.896" transform="translate(4.546 14.936)" fill="none"></rect><rect id="Rectangle_252" data-name="Rectangle 252" width="3.896" height="3.896" fill="none"></rect></g><g id="Group_781" data-name="Group 781"><g id="Group_780" data-name="Group 780" transform="translate(10.39 2.598)"><rect id="Rectangle_253" data-name="Rectangle 253" width="3.896" height="3.896" transform="translate(9.741 14.287)" fill="none"></rect><rect id="Rectangle_254" data-name="Rectangle 254" width="3.896" height="3.896" transform="translate(0 1.948)" fill="none"></rect><rect id="Rectangle_255" data-name="Rectangle 255" width="3.896" height="3.896" transform="translate(14.287)" fill="none"></rect></g><rect id="Rectangle_256" data-name="Rectangle 256" width="3.896" height="3.896" transform="translate(4.546 14.936)" fill="none"></rect><rect id="Rectangle_257" data-name="Rectangle 257" width="3.896" height="3.896" fill="none"></rect></g></g><g id="Group_789" data-name="Group 789" transform="translate(58.318 24.911)"><g id="Group_784" data-name="Group 784"><g id="Group_783" data-name="Group 783"><rect id="Rectangle_258" data-name="Rectangle 258" width="3.656" height="3.656" transform="translate(8.531 3.047)" fill="none"></rect><rect id="Rectangle_259" data-name="Rectangle 259" width="3.656" height="3.656" fill="none"></rect></g><rect id="Rectangle_260" data-name="Rectangle 260" width="3.656" height="3.656" transform="translate(2.437 8.531)" fill="none"></rect></g><g id="Group_786" data-name="Group 786"><g id="Group_785" data-name="Group 785"><rect id="Rectangle_261" data-name="Rectangle 261" width="3.656" height="3.656" transform="translate(8.531 3.047)" fill="none"></rect><rect id="Rectangle_262" data-name="Rectangle 262" width="3.656" height="3.656" fill="none"></rect></g><rect id="Rectangle_263" data-name="Rectangle 263" width="3.656" height="3.656" transform="translate(2.437 8.531)" fill="none"></rect></g><g id="Group_788" data-name="Group 788"><g id="Group_787" data-name="Group 787"><rect id="Rectangle_264" data-name="Rectangle 264" width="3.656" height="3.656" transform="translate(8.531 3.047)" fill="none"></rect><rect id="Rectangle_265" data-name="Rectangle 265" width="3.656" height="3.656" fill="none"></rect></g><rect id="Rectangle_266" data-name="Rectangle 266" width="3.656" height="3.656" transform="translate(2.437 8.531)" fill="none"></rect></g></g></g></g></svg>