<svg xmlns="http://www.w3.org/2000/svg" width="81" height="82" viewBox="0 0 81 82"><g id="Group_997" data-name="Group 997" transform="translate(-295.5 -1288.5)"><g id="Group_854" data-name="Group 854" transform="translate(-672 328)"><g id="Group_986" data-name="Group 986"><g id="Group_981" data-name="Group 981" transform="translate(4814.857 2989.271)"><g id="Group_984" data-name="Group 984"><g id="Group_983" data-name="Group 983"><g id="Group_982" data-name="Group 982"><g id="Group_981-2" data-name="Group 981"><circle id="Ellipse_24" data-name="Ellipse 24" cx="2.245" cy="2.245" r="2.245" transform="translate(-3839.509 -2000.016)" fill="#ff6a2f"></circle></g></g><path id="Path_870" data-name="Path 870" d="M-3816.857-1967.271h-27.054a1.945,1.945,0,0,1-1.946-1.945v-56.109a1.946,1.946,0,0,1,1.946-1.946h74.109a1.946,1.946,0,0,1,1.945,1.946v56.109a1.945,1.945,0,0,1-1.945,1.945h-10.055" fill="none" stroke="#ff6a2f" stroke-linecap="round" stroke-linejoin="round" stroke-width="3"></path></g></g><g id="Group_985" data-name="Group 985"><line id="Line_144" data-name="Line 144" y2="3.51" transform="translate(-3790.474 -1979.865)" fill="none" stroke="#ff6a2f" stroke-linecap="round" stroke-linejoin="round" stroke-width="3"></line><line id="Line_145" data-name="Line 145" y2="3.51" transform="translate(-3796.09 -1981.269)" fill="none" stroke="#ff6a2f" stroke-linecap="round" stroke-linejoin="round" stroke-width="3"></line><line id="Line_146" data-name="Line 146" y2="4.915" transform="translate(-3801.005 -1983.375)" fill="none" stroke="#ff6a2f" stroke-linecap="round" stroke-linejoin="round" stroke-width="3"></line><path id="Path_871" data-name="Path 871" d="M-3807.857-1948.271v-4.836a1.125,1.125,0,0,1,1.082-1.164h20.837a1.125,1.125,0,0,1,1.081,1.164v4.836" fill="none" stroke="#ff6a2f" stroke-linecap="round" stroke-linejoin="round" stroke-width="3"></path><path id="Path_872" data-name="Path 872" d="M-3788.174-1982.043a3.269,3.269,0,0,1,3.269,3.268v7.626c0,7.626-2.179,11.984-2.179,14.163v3.268" fill="none" stroke="#ff6a2f" stroke-linecap="round" stroke-linejoin="round" stroke-width="3"></path><path id="Path_873" data-name="Path 873" d="M-3793.742-1984.222a3.268,3.268,0,0,1,3.268,3.268v2.494" fill="none" stroke="#ff6a2f" stroke-linecap="round" stroke-linejoin="round" stroke-width="3"></path><path id="Path_874" data-name="Path 874" d="M-3799.359-1986.4a3.269,3.269,0,0,1,3.269,3.268v1.864" fill="none" stroke="#ff6a2f" stroke-linecap="round" stroke-linejoin="round" stroke-width="3"></path><path id="Path_875" data-name="Path 875" d="M-3805.6-1953.718v-3.268l-6.536-8.716s-3.608-12.758-4.358-14.162a2.211,2.211,0,0,1,2.179-3.269c2.179,0,3.268,3.269,3.268,3.269l3.728,6.318" fill="none" stroke="#ff6a2f" stroke-linecap="round" stroke-linejoin="round" stroke-width="3"></path><path id="Path_876" data-name="Path 876" d="M-3807.324-1973.546v-22.169a3.27,3.27,0,0,1,2.875-3.311,3.16,3.16,0,0,1,3.444,3.147v12.5" fill="none" stroke="#ff6a2f" stroke-linecap="round" stroke-linejoin="round" stroke-width="3"></path></g><path id="Path_877" data-name="Path 877" d="M-3814.192-1995.181a9.676,9.676,0,0,1,9.677-9.676,9.676,9.676,0,0,1,9.676,9.676" fill="none" stroke="#ff6a2f" stroke-linecap="round" stroke-linejoin="round" stroke-width="3"></path><path id="Path_878" data-name="Path 878" d="M-3817.212-1987.914a15.085,15.085,0,0,1-2.447-8.26,15.144,15.144,0,0,1,15.144-15.144,15.144,15.144,0,0,1,15.144,15.144,15.072,15.072,0,0,1-2.45,8.26" fill="none" stroke="#ff6a2f" stroke-linecap="round" stroke-linejoin="round" stroke-width="3"></path></g></g></g></g></svg>