<svg xmlns="http://www.w3.org/2000/svg" width="50.928" height="59.62" viewBox="0 0 50.928 59.62"><g id="Group_1060" data-name="Group 1060" transform="translate(6251.376 1833.96)"><g id="Group_1068" data-name="Group 1068" transform="translate(-6247.581 -1804.697)"><g id="Group_1063" data-name="Group 1063"><g id="Group_1062" data-name="Group 1062"><g id="Group_1061" data-name="Group 1061"><g id="Group_1060-2" data-name="Group 1060"><path id="Path_905" data-name="Path 905" d="M-6202.823-1765.183V-1789.4a1.009,1.009,0,0,0-1.062-.944H-6245.1a1.009,1.009,0,0,0-1.062.944v24.219" transform="translate(6246.16 1790.346)" fill="none" stroke="#07f2c2" stroke-linejoin="round" stroke-width="2"></path></g></g></g></g><g id="Group_1067" data-name="Group 1067"><g id="Group_1066" data-name="Group 1066"><g id="Group_1065" data-name="Group 1065"><g id="Group_1064" data-name="Group 1064"><path id="Path_906" data-name="Path 906" d="M-6202.823-1765.183V-1789.4a1.009,1.009,0,0,0-1.062-.944H-6245.1a1.009,1.009,0,0,0-1.062.944v24.219" transform="translate(6246.16 1790.346)" fill="none" stroke="#07f2c2" stroke-linecap="round" stroke-linejoin="round" stroke-width="2"></path></g></g></g></g></g><g id="Group_1081" data-name="Group 1081" transform="translate(-6250.376 -1779.534)"><g id="Group_1074" data-name="Group 1074"><g id="Group_1073" data-name="Group 1073"><g id="Group_1072" data-name="Group 1072"><g id="Group_1071" data-name="Group 1071"><g id="Choose_AWS_application" data-name="Choose AWS application"><g id="Group_1070" data-name="Group 1070"><g id="Group_1069" data-name="Group 1069"><path id="Path_907" data-name="Path 907" d="M-6204.455-1748.206a4.281,4.281,0,0,0,2.86-1.127l.146-.13v-2.936h-48.928v2.936l.145.13a4.285,4.285,0,0,0,2.861,1.127Z" transform="translate(6250.376 1752.4)" fill="none" stroke="#07f2c2" stroke-linejoin="round" stroke-width="2"></path></g></g></g></g></g></g></g><g id="Group_1080" data-name="Group 1080"><g id="Group_1079" data-name="Group 1079"><g id="Group_1078" data-name="Group 1078"><g id="Group_1077" data-name="Group 1077"><g id="Choose_AWS_application-2" data-name="Choose AWS application"><g id="Group_1076" data-name="Group 1076"><g id="Group_1075" data-name="Group 1075"><path id="Path_908" data-name="Path 908" d="M-6204.455-1748.206a4.281,4.281,0,0,0,2.86-1.127l.146-.13v-2.936h-48.928v2.936l.145.13a4.285,4.285,0,0,0,2.861,1.127Z" transform="translate(6250.376 1752.4)" fill="none" stroke="#07f2c2" stroke-linecap="round" stroke-linejoin="round" stroke-width="2"></path></g></g></g></g></g></g></g></g><g id="Group_1090" data-name="Group 1090" transform="translate(-6239.891 -1832.946)"><g id="Group_1085" data-name="Group 1085"><g id="Group_1084" data-name="Group 1084"><g id="Group_1083" data-name="Group 1083"><g id="Group_1082" data-name="Group 1082"><path id="Path_909" data-name="Path 909" d="M-6225.99-1810.65c-.1,4.194,1.275,9.177,7.9,9.177,7.137,0,7.9-4.728,8.157-9.177" transform="translate(6231.678 1825.435)" fill="none" stroke="#07f2c2" stroke-miterlimit="10" stroke-width="2"></path><path id="Path_910" data-name="Path 910" d="M-6222.726-1825.55s4.865,2.926,9.34,2.036c0,0,1.419,6.365,3.074,5.682.725-.3,2.374-4.91.968-8.135s.816-3.3-.308-6.713c-.387-1.173-4.089,1.954-5.2,1.311a10.681,10.681,0,0,0-4.437-1.311,9.98,9.98,0,0,0-5.9,1.981c-1.722,1.493-2.747,2.49-3.374,5.957-.329,1.816-.045,7.347,1.813,7.6.461.062-.864-2.869,1.517-4.548C-6223.018-1823.249-6224.645-1827.425-6222.726-1825.55Z" transform="translate(6232.582 1832.946)" fill="none" stroke="#07f2c2" stroke-miterlimit="10" stroke-width="2"></path><path id="Path_911" data-name="Path 911" d="M-6209.266-1793.042l1.4-3.267v-2.039" transform="translate(6226.042 1821.291)" fill="none" stroke="#07f2c2" stroke-miterlimit="10" stroke-width="2"></path><path id="Path_912" data-name="Path 912" d="M-6220.989-1798.348v2.039s2.187,3.3,2.181,3.267" transform="translate(6229.992 1821.291)" fill="none" stroke="#07f2c2" stroke-miterlimit="10" stroke-width="2"></path><path id="Path_913" data-name="Path 913" d="M-6198.007-1792.187a30.158,30.158,0,0,0-8.958-3.624" transform="translate(6225.267 1820.436)" fill="none" stroke="#07f2c2" stroke-miterlimit="10" stroke-width="2"></path><path id="Path_914" data-name="Path 914" d="M-6225.524-1796.092a22.479,22.479,0,0,0-9.041,3.81" transform="translate(6234.565 1820.531)" fill="none" stroke="#07f2c2" stroke-miterlimit="10" stroke-width="2"></path></g></g></g></g><g id="Group_1089" data-name="Group 1089"><g id="Group_1088" data-name="Group 1088"><g id="Group_1087" data-name="Group 1087"><g id="Group_1086" data-name="Group 1086"><path id="Path_915" data-name="Path 915" d="M-6225.99-1810.65c-.1,4.194,1.275,9.177,7.9,9.177,7.137,0,7.9-4.728,8.157-9.177" transform="translate(6231.678 1825.435)" fill="none" stroke="#07f2c2" stroke-linecap="round" stroke-linejoin="round" stroke-width="2"></path><path id="Path_916" data-name="Path 916" d="M-6222.726-1825.55s4.865,2.926,9.34,2.036c0,0,1.419,6.365,3.074,5.682.725-.3,2.374-4.91.968-8.135s.816-3.3-.308-6.713c-.387-1.173-4.089,1.954-5.2,1.311a10.681,10.681,0,0,0-4.437-1.311,9.98,9.98,0,0,0-5.9,1.981c-1.722,1.493-2.747,2.49-3.374,5.957-.329,1.816-.045,7.347,1.813,7.6.461.062-.864-2.869,1.517-4.548C-6223.018-1823.249-6224.645-1827.425-6222.726-1825.55Z" transform="translate(6232.582 1832.946)" fill="none" stroke="#07f2c2" stroke-linecap="round" stroke-linejoin="round" stroke-width="2"></path><path id="Path_917" data-name="Path 917" d="M-6209.266-1793.042l1.4-3.267v-2.039" transform="translate(6226.042 1821.291)" fill="none" stroke="#07f2c2" stroke-linecap="round" stroke-linejoin="round" stroke-width="2"></path><path id="Path_918" data-name="Path 918" d="M-6220.989-1798.348v2.039s2.187,3.3,2.181,3.267" transform="translate(6229.992 1821.291)" fill="none" stroke="#07f2c2" stroke-linecap="round" stroke-linejoin="round" stroke-width="2"></path><path id="Path_919" data-name="Path 919" d="M-6198.007-1792.187a30.158,30.158,0,0,0-8.958-3.624" transform="translate(6225.267 1820.436)" fill="none" stroke="#07f2c2" stroke-linecap="round" stroke-linejoin="round" stroke-width="2"></path><path id="Path_920" data-name="Path 920" d="M-6225.524-1796.092a22.479,22.479,0,0,0-9.041,3.81" transform="translate(6234.565 1820.531)" fill="none" stroke="#07f2c2" stroke-linecap="round" stroke-linejoin="round" stroke-width="2"></path></g></g></g></g></g><g id="Group_1095" data-name="Group 1095" transform="translate(-6226.96 -1830.494)"><g id="Group_1092" data-name="Group 1092"><g id="Group_1091" data-name="Group 1091"><path id="Path_921" data-name="Path 921" d="M-6211.054-1829.248a7.365,7.365,0,0,1-4.011,1.146" transform="translate(6215.065 1829.248)" fill="none" stroke="#07f2c2" stroke-miterlimit="10" stroke-width="2"></path></g></g><g id="Group_1094" data-name="Group 1094"><g id="Group_1093" data-name="Group 1093"><path id="Path_922" data-name="Path 922" d="M-6211.054-1829.248a7.365,7.365,0,0,1-4.011,1.146" transform="translate(6215.065 1829.248)" fill="none" stroke="#07f2c2" stroke-linecap="round" stroke-linejoin="round" stroke-width="2"></path></g></g></g></g></svg>