<svg xmlns="http://www.w3.org/2000/svg" width="67.396" height="73.03" viewBox="0 0 67.396 73.03"><g id="Group_1029" data-name="Group 1029" transform="translate(2363.949 1720.528)"><g id="Group_916" data-name="Group 916" transform="translate(-2346.68 -1688.118)"><g id="Group_910" data-name="Group 910"><g id="Group_909" data-name="Group 909"><g id="Group_908" data-name="Group 908"><g id="Group_907" data-name="Group 907"><g id="Group_906" data-name="Group 906"><path id="Path_820" data-name="Path 820" d="M-2328.676-1655.8c.046,4.344,1.072,8.747,6.963,9,6.2.262,7.573-4.369,7.818-8.751" transform="translate(2337.188 1670.353)" fill="none" stroke="#869095" stroke-linejoin="round" stroke-width="2"></path><path id="Path_821" data-name="Path 821" d="M-2326.436-1668.185a19.115,19.115,0,0,0,10.136.717s1.765,7.016,2.062,6.321c.485-1.138,1.795-2.462,1.392-5.894-.393-3.344-2.569-8.651-8.955-8.983a5.689,5.689,0,0,0-3.476.692c-.384.156-4.654.873-5.012,1.163-1.629,1.318-.242,3.559-.822,6.722-.3,1.655-1.194,3.854,1.765,8.059.147.208-.4-3.851,1.314-5.277C-2326.115-1666.257-2328.209-1669.895-2326.436-1668.185Z" transform="translate(2337.975 1676.039)" fill="none" stroke="#869095" stroke-linejoin="round" stroke-width="2"></path><path id="Path_822" data-name="Path 822" d="M-2326.614-1641.18a5.805,5.805,0,0,0,5.931,5.027s5.275-.029,5.111-5.148" transform="translate(2336.609 1666.278)" fill="none" stroke="#869095" stroke-linejoin="round" stroke-width="2"></path><path id="Path_823" data-name="Path 823" d="M-2328.557-1644.2v1.708c-2.265.269-8.524,1.647-10.36,4.676-1.335,2.2-1.632,3.507-1.595,9.843h32.437c.037-6.335.107-7.026-1.592-9.843-1.828-3.033-8.372-4.388-11.2-4.676v-1.708" transform="translate(2340.515 1667.093)" fill="none" stroke="#869095" stroke-linejoin="round" stroke-width="2"></path></g></g></g></g></g><g id="Group_915" data-name="Group 915"><g id="Group_914" data-name="Group 914"><g id="Group_913" data-name="Group 913"><g id="Group_912" data-name="Group 912"><g id="Group_911" data-name="Group 911"><path id="Path_824" data-name="Path 824" d="M-2328.676-1655.8c.046,4.344,1.072,8.747,6.963,9,6.2.262,7.573-4.369,7.818-8.751" transform="translate(2337.188 1670.353)" fill="none" stroke="#07f2c2" stroke-linecap="round" stroke-linejoin="round" stroke-width="3"></path><path id="Path_825" data-name="Path 825" d="M-2326.436-1668.185a19.115,19.115,0,0,0,10.136.717s1.765,7.016,2.062,6.321c.485-1.138,1.795-2.462,1.392-5.894-.393-3.344-2.569-8.651-8.955-8.983a5.689,5.689,0,0,0-3.476.692c-.384.156-4.654.873-5.012,1.163-1.629,1.318-.242,3.559-.822,6.722-.3,1.655-1.194,3.854,1.765,8.059.147.208-.4-3.851,1.314-5.277C-2326.115-1666.257-2328.209-1669.895-2326.436-1668.185Z" transform="translate(2337.975 1676.039)" fill="none" stroke="#07f2c2" stroke-linecap="round" stroke-linejoin="round" stroke-width="3"></path><path id="Path_826" data-name="Path 826" d="M-2326.614-1641.18a5.805,5.805,0,0,0,5.931,5.027s5.275-.029,5.111-5.148" transform="translate(2336.609 1666.278)" fill="none" stroke="#07f2c2" stroke-linecap="round" stroke-linejoin="round" stroke-width="3"></path><path id="Path_827" data-name="Path 827" d="M-2328.557-1644.2v1.708c-2.265.269-8.524,1.647-10.36,4.676-1.335,2.2-1.632,3.507-1.595,9.843h32.437c.037-6.335.107-7.026-1.592-9.843-1.828-3.033-8.372-4.388-11.2-4.676v-1.708" transform="translate(2340.515 1667.093)" fill="none" stroke="#07f2c2" stroke-linecap="round" stroke-linejoin="round" stroke-width="3"></path></g></g></g></g></g></g><g id="Group_917" data-name="Group 917" transform="translate(-2334.804 -1674.364)"><circle id="Ellipse_18" data-name="Ellipse 18" cx="1.138" cy="1.138" r="1.138" fill="#07f2c2"></circle><circle id="Ellipse_19" data-name="Ellipse 19" cx="1.138" cy="1.138" r="1.138" transform="translate(5.779)" fill="#07f2c2"></circle></g><g id="Group_932" data-name="Group 932" transform="translate(-2324.528 -1717.354)"><g id="Group_930" data-name="Group 930"><g id="Group_923" data-name="Group 923"><g id="Group_922" data-name="Group 922"><g id="Group_921" data-name="Group 921"><g id="Group_920" data-name="Group 920"><g id="Group_919" data-name="Group 919"><g id="Group_918" data-name="Group 918" transform="translate(1.711 7.111)"><path id="Path_828" data-name="Path 828" d="M-2290.438-1696.6c-.093,4.009-1.132,7.157-6.885,7.387-6.45.258-7.678-4.5-7.843-8.779" transform="translate(2306.719 1704.333)" fill="none" stroke="#869095" stroke-miterlimit="10" stroke-width="2"></path><path id="Path_829" data-name="Path 829" d="M-2290.326-1699.449a10.227,10.227,0,0,1-3.279-4.135,1.568,1.568,0,0,0-1.526-1.067,10.633,10.633,0,0,1-5.861-1.964.962.962,0,0,0-1.537.723,2.781,2.781,0,0,1-1.2,2.538c-2.062,1.426-1.189,3.327-1.554,3.232" transform="translate(2306.752 1706.81)" fill="none" stroke="#869095" stroke-miterlimit="10" stroke-width="2"></path><path id="Path_830" data-name="Path 830" d="M-2291.993-1687.01v2.562l-3.439,6.078a1.426,1.426,0,0,1-2.6,0l-3.359-6.077v-2.7" transform="translate(2305.657 1701.284)" fill="none" stroke="#869095" stroke-miterlimit="10" stroke-width="2"></path><path id="Path_831" data-name="Path 831" d="M-2300.526-1668.022l19.873,0c.037-6.749-.192-8.048-1.562-10.484-1.812-3.221-7.312-4.6-9.536-4.887" transform="translate(2305.415 1700.231)" fill="none" stroke="#869095" stroke-linejoin="round" stroke-width="2"></path><path id="Path_832" data-name="Path 832" d="M-2303.056-1683.4a22.546,22.546,0,0,0-4.27,1.1" transform="translate(2307.326 1700.231)" fill="none" stroke="#869095" stroke-miterlimit="10" stroke-width="2"></path><line id="Line_104" data-name="Line 104" y2="6.832" transform="translate(17.934 25.376)" fill="none" stroke="#869095" stroke-miterlimit="10" stroke-width="2"></line></g><path id="Path_833" data-name="Path 833" d="M-2288.362-1691.044v-14.744a11.709,11.709,0,0,0-1.545-6.277c-2.888-4.453-7.568-4.774-10.4-4.6-1.672.1-4.9.744-5.125,5.124,0,0-4.417-.985-4.27,4.27v13.664" transform="translate(2309.706 1716.7)" fill="none" stroke="#869095" stroke-miterlimit="10" stroke-width="2"></path><line id="Line_105" data-name="Line 105" y2="8.064" transform="translate(10.628 31.255)" fill="none" stroke="#869095" stroke-miterlimit="10" stroke-width="2"></line></g></g><path id="Path_834" data-name="Path 834" d="M-2295.6-1704.724a9.453,9.453,0,0,0,6.645-.24" transform="translate(2305.743 1713.402)" fill="none" stroke="#869095" stroke-miterlimit="10" stroke-width="2"></path><path id="Path_835" data-name="Path 835" d="M-2285.033-1696.858s.143.072-.9-1.02" transform="translate(2303.025 1711.411)" fill="none" stroke="#869095" stroke-miterlimit="10" stroke-width="2"></path></g></g></g><g id="Group_929" data-name="Group 929"><g id="Group_928" data-name="Group 928"><g id="Group_927" data-name="Group 927"><g id="Group_926" data-name="Group 926"><g id="Group_925" data-name="Group 925"><g id="Group_924" data-name="Group 924" transform="translate(1.711 7.111)"><path id="Path_836" data-name="Path 836" d="M-2290.438-1696.6c-.093,4.009-1.132,7.157-6.885,7.387-6.45.258-7.678-4.5-7.843-8.779" transform="translate(2306.719 1704.333)" fill="none" stroke="#07f2c2" stroke-linecap="round" stroke-linejoin="round" stroke-width="3"></path><path id="Path_837" data-name="Path 837" d="M-2290.326-1699.449a10.227,10.227,0,0,1-3.279-4.135,1.568,1.568,0,0,0-1.526-1.067,10.633,10.633,0,0,1-5.861-1.964.962.962,0,0,0-1.537.723,2.781,2.781,0,0,1-1.2,2.538c-2.062,1.426-1.189,3.327-1.554,3.232" transform="translate(2306.752 1706.81)" fill="none" stroke="#07f2c2" stroke-linecap="round" stroke-linejoin="round" stroke-width="3"></path><path id="Path_838" data-name="Path 838" d="M-2291.993-1687.01v2.562l-3.439,6.078a1.426,1.426,0,0,1-2.6,0l-3.359-6.077v-2.7" transform="translate(2305.657 1701.284)" fill="none" stroke="#07f2c2" stroke-linecap="round" stroke-linejoin="round" stroke-width="3"></path><path id="Path_839" data-name="Path 839" d="M-2300.526-1668.022l19.873,0c.037-6.749-.192-8.048-1.562-10.484-1.812-3.221-7.312-4.6-9.536-4.887" transform="translate(2305.415 1700.231)" fill="none" stroke="#07f2c2" stroke-linecap="round" stroke-linejoin="round" stroke-width="3"></path><path id="Path_840" data-name="Path 840" d="M-2303.056-1683.4a22.546,22.546,0,0,0-4.27,1.1" transform="translate(2307.326 1700.231)" fill="none" stroke="#07f2c2" stroke-linecap="round" stroke-linejoin="round" stroke-width="3"></path><line id="Line_106" data-name="Line 106" y2="6.832" transform="translate(17.934 25.376)" fill="none" stroke="#07f2c2" stroke-linecap="round" stroke-linejoin="round" stroke-width="3"></line></g><path id="Path_841" data-name="Path 841" d="M-2288.362-1691.044v-14.744a11.709,11.709,0,0,0-1.545-6.277c-2.888-4.453-7.568-4.774-10.4-4.6-1.672.1-4.9.744-5.125,5.124,0,0-4.417-.985-4.27,4.27v13.664" transform="translate(2309.706 1716.7)" fill="none" stroke="#07f2c2" stroke-linecap="round" stroke-linejoin="round" stroke-width="3"></path><line id="Line_107" data-name="Line 107" y2="8.064" transform="translate(10.628 31.255)" fill="none" stroke="#07f2c2" stroke-linecap="round" stroke-linejoin="round" stroke-width="3"></line></g></g><path id="Path_842" data-name="Path 842" d="M-2295.6-1704.724a9.453,9.453,0,0,0,6.645-.24" transform="translate(2305.743 1713.402)" fill="none" stroke="#07f2c2" stroke-linecap="round" stroke-linejoin="round" stroke-width="3"></path><path id="Path_843" data-name="Path 843" d="M-2285.033-1696.858s.143.072-.9-1.02" transform="translate(2303.025 1711.411)" fill="none" stroke="#07f2c2" stroke-linecap="round" stroke-linejoin="round" stroke-width="3"></path></g></g></g></g><g id="Group_931" data-name="Group 931" transform="translate(6.601 13.334)"><circle id="Ellipse_20" data-name="Ellipse 20" cx="1.138" cy="1.138" r="1.138" transform="translate(5.779)" fill="#07f2c2"></circle><circle id="Ellipse_21" data-name="Ellipse 21" cx="1.138" cy="1.138" r="1.138" fill="#07f2c2"></circle></g></g><g id="Group_945" data-name="Group 945" transform="translate(-2362.457 -1719.027)"><g id="Group_943" data-name="Group 943"><g id="Group_937" data-name="Group 937"><g id="Group_936" data-name="Group 936"><g id="Group_935" data-name="Group 935"><g id="Group_934" data-name="Group 934" transform="translate(0 10.248)"><g id="Group_933" data-name="Group 933"><path id="Path_844" data-name="Path 844" d="M-2350.579-1699.952c.172,4.309,1.453,9.091,8.186,8.832,6-.231,7.09-4.121,7.186-8.154v-5.5s-8.759,1.868-15.372,0Z" transform="translate(2359.119 1704.774)" fill="none" stroke="#869095" stroke-miterlimit="10" stroke-width="2"></path><path id="Path_845" data-name="Path 845" d="M-2337.288-1686.958v3.416l-2.965,5.226a1.426,1.426,0,0,1-2.6,0l-2.979-5.225v-3.416" transform="translate(2357.784 1699.768)" fill="none" stroke="#869095" stroke-miterlimit="10" stroke-width="2"></path><path id="Path_846" data-name="Path 846" d="M-2345.424-1668.024l-17.02,0c-.037-6.75-.106-7.484,1.573-10.486,1.808-3.231,8.131-4.6,10.371-4.887" transform="translate(2362.457 1698.767)" fill="none" stroke="#869095" stroke-linejoin="round" stroke-width="2"></path><path id="Path_847" data-name="Path 847" d="M-2333.951-1683.4a25.742,25.742,0,0,1,5.978,1.708" transform="translate(2354.448 1698.767)" fill="none" stroke="#869095" stroke-miterlimit="10" stroke-width="2"></path><line id="Line_108" data-name="Line 108" y2="4.881" transform="translate(6.832 25.621)" fill="none" stroke="#869095" stroke-miterlimit="10" stroke-width="2"></line></g></g><path id="Path_848" data-name="Path 848" d="M-2336.372-1702.8c2.019-1.272,4.749-8.189-.109-13.114-3.5-3.542-10.9-4.9-15.666.5-2.292,2.6-4.187,9.3.452,12.615" transform="translate(2360.234 1719.027)" fill="none" stroke="#869095" stroke-miterlimit="10" stroke-width="2"></path></g></g><line id="Line_109" data-name="Line 109" y1="8.213" transform="translate(16.226 32.78)" fill="none" stroke="#869095" stroke-miterlimit="10" stroke-width="2"></line></g><g id="Group_942" data-name="Group 942"><g id="Group_941" data-name="Group 941"><g id="Group_940" data-name="Group 940"><g id="Group_939" data-name="Group 939" transform="translate(0 10.248)"><g id="Group_938" data-name="Group 938"><path id="Path_849" data-name="Path 849" d="M-2350.579-1699.952c.172,4.309,1.453,9.091,8.186,8.832,6-.231,7.09-4.121,7.186-8.154v-5.5s-8.759,1.868-15.372,0Z" transform="translate(2359.119 1704.774)" fill="none" stroke="#07f2c2" stroke-linecap="round" stroke-linejoin="round" stroke-width="3"></path><path id="Path_850" data-name="Path 850" d="M-2337.288-1686.958v3.416l-2.965,5.226a1.426,1.426,0,0,1-2.6,0l-2.979-5.225v-3.416" transform="translate(2357.784 1699.768)" fill="none" stroke="#07f2c2" stroke-linecap="round" stroke-linejoin="round" stroke-width="3"></path><path id="Path_851" data-name="Path 851" d="M-2345.424-1668.024l-17.02,0c-.037-6.75-.106-7.484,1.573-10.486,1.808-3.231,8.131-4.6,10.371-4.887" transform="translate(2362.457 1698.767)" fill="none" stroke="#07f2c2" stroke-linecap="round" stroke-linejoin="round" stroke-width="3"></path><path id="Path_852" data-name="Path 852" d="M-2333.951-1683.4a25.742,25.742,0,0,1,5.978,1.708" transform="translate(2354.448 1698.767)" fill="none" stroke="#07f2c2" stroke-linecap="round" stroke-linejoin="round" stroke-width="3"></path><line id="Line_110" data-name="Line 110" y2="4.881" transform="translate(6.832 25.621)" fill="none" stroke="#07f2c2" stroke-linecap="round" stroke-linejoin="round" stroke-width="3"></line></g></g><path id="Path_853" data-name="Path 853" d="M-2336.372-1702.8c2.019-1.272,4.749-8.189-.109-13.114-3.5-3.542-10.9-4.9-15.666.5-2.292,2.6-4.187,9.3.452,12.615" transform="translate(2360.234 1719.027)" fill="none" stroke="#07f2c2" stroke-linecap="round" stroke-linejoin="round" stroke-width="3"></path></g></g><line id="Line_111" data-name="Line 111" y1="8.213" transform="translate(16.226 32.78)" fill="none" stroke="#07f2c2" stroke-linecap="round" stroke-linejoin="round" stroke-width="3"></line></g></g><g id="Group_944" data-name="Group 944" transform="translate(12.053 14.501)"><circle id="Ellipse_22" data-name="Ellipse 22" cx="1.138" cy="1.138" r="1.138" transform="translate(5.78)" fill="#07f2c2"></circle><circle id="Ellipse_23" data-name="Ellipse 23" cx="1.138" cy="1.138" r="1.138" fill="#07f2c2"></circle></g></g></g></svg>