<svg xmlns="http://www.w3.org/2000/svg" width="69" height="62.25" viewBox="0 0 69 62.25"><g id="Group_1036" data-name="Group 1036" transform="translate(2830.407 1547.19)"><g id="Group_959" data-name="Group 959" transform="translate(-2828.907 -1545.69)"><g id="Group_956" data-name="Group 956"><g id="Group_955" data-name="Group 955"><path id="Path_860" data-name="Path 860" d="M-2828.907-1534.969v-9.153a1.567,1.567,0,0,1,1.567-1.567h62.865a1.568,1.568,0,0,1,1.568,1.567v47.115a1.568,1.568,0,0,1-1.568,1.567h-62.865a1.567,1.567,0,0,1-1.567-1.567v-25.185" transform="translate(2828.907 1545.69)" fill="none" stroke="#f4662f" stroke-linejoin="round" stroke-width="2"></path><line id="Line_130" data-name="Line 130" y1="4.285" transform="translate(0 14.935)" fill="none" stroke="#f4662f" stroke-linejoin="round" stroke-width="2"></line><line id="Line_131" data-name="Line 131" x2="66" transform="translate(0 41.25)" fill="none" stroke="#f4662f" stroke-linejoin="round" stroke-width="2"></line><line id="Line_132" data-name="Line 132" x2="11.25" transform="translate(27.75 45.75)" fill="none" stroke="#f4662f" stroke-linejoin="round" stroke-width="2"></line><path id="Path_861" data-name="Path 861" d="M-2787.187-1487.114v9h-6.75v-9" transform="translate(2823.937 1537.364)" fill="none" stroke="#f4662f" stroke-linejoin="round" stroke-width="2"></path><line id="Line_133" data-name="Line 133" x2="34.5" transform="translate(15.75 59.25)" fill="none" stroke="#f4662f" stroke-linejoin="round" stroke-width="2"></line></g></g><g id="Group_958" data-name="Group 958"><g id="Group_957" data-name="Group 957"><path id="Path_862" data-name="Path 862" d="M-2828.907-1534.969v-9.153a1.567,1.567,0,0,1,1.567-1.567h62.865a1.568,1.568,0,0,1,1.568,1.567v47.115a1.568,1.568,0,0,1-1.568,1.567h-62.865a1.567,1.567,0,0,1-1.567-1.567v-25.185" transform="translate(2828.907 1545.69)" fill="none" stroke="#f4662f" stroke-linecap="round" stroke-linejoin="round" stroke-width="3"></path><line id="Line_134" data-name="Line 134" y1="4.285" transform="translate(0 14.935)" fill="none" stroke="#f4662f" stroke-linecap="round" stroke-linejoin="round" stroke-width="3"></line><line id="Line_135" data-name="Line 135" x2="66" transform="translate(0 41.25)" fill="none" stroke="#f4662f" stroke-linecap="round" stroke-linejoin="round" stroke-width="3"></line><line id="Line_136" data-name="Line 136" x2="11.25" transform="translate(27.75 45.75)" fill="none" stroke="#f4662f" stroke-linecap="round" stroke-linejoin="round" stroke-width="3"></line><path id="Path_863" data-name="Path 863" d="M-2787.187-1487.114v9h-6.75v-9" transform="translate(2823.937 1537.364)" fill="none" stroke="#f4662f" stroke-linecap="round" stroke-linejoin="round" stroke-width="3"></path><line id="Line_137" data-name="Line 137" x2="34.5" transform="translate(15.75 59.25)" fill="none" stroke="#f4662f" stroke-linecap="round" stroke-linejoin="round" stroke-width="3"></line></g></g></g><g id="Group_970" data-name="Group 970" transform="translate(-2806.684 -1538.906)"><g id="Group_964" data-name="Group 964"><g id="Group_963" data-name="Group 963"><g id="Group_960" data-name="Group 960" transform="translate(8.053 9.353)"><rect id="Rectangle_281" data-name="Rectangle 281" width="7.195" height="5.036" transform="translate(1.439)" fill="none" stroke="#f4662f" stroke-miterlimit="10" stroke-width="2"></rect><line id="Line_138" data-name="Line 138" x2="10.073" transform="translate(0 10.95)" fill="none" stroke="#f4662f" stroke-miterlimit="10" stroke-width="2"></line><line id="Line_139" data-name="Line 139" x2="5.739" transform="translate(2.167 14.501)" fill="none" stroke="#f4662f" stroke-miterlimit="10" stroke-width="2"></line></g><g id="Group_962" data-name="Group 962"><g id="Group_961" data-name="Group 961"><line id="Line_140" data-name="Line 140" y1="28.06" transform="translate(3.736)" fill="none" stroke="#f4662f" stroke-miterlimit="10" stroke-width="2"></line><path id="Path_864" data-name="Path 864" d="M-2803-1527.6v-10.184h22.3v28.06H-2803v-12.951" transform="translate(2803.002 1537.782)" fill="none" stroke="#f4662f" stroke-miterlimit="10" stroke-width="2"></path></g><path id="Path_865" data-name="Path 865" d="M-2780.221-1537.782v28.06h-19.426" transform="translate(2802.525 1537.782)" fill="none" stroke="#f4662f" stroke-miterlimit="10" stroke-width="2"></path></g></g></g><g id="Group_969" data-name="Group 969"><g id="Group_968" data-name="Group 968"><g id="Group_965" data-name="Group 965" transform="translate(8.053 9.353)"><rect id="Rectangle_282" data-name="Rectangle 282" width="7.195" height="5.036" transform="translate(1.439)" fill="none" stroke="#f4662f" stroke-linecap="round" stroke-linejoin="round" stroke-width="3"></rect><line id="Line_141" data-name="Line 141" x2="10.073" transform="translate(0 10.95)" fill="none" stroke="#f4662f" stroke-linecap="round" stroke-linejoin="round" stroke-width="3"></line><line id="Line_142" data-name="Line 142" x2="5.739" transform="translate(2.167 14.501)" fill="none" stroke="#f4662f" stroke-linecap="round" stroke-linejoin="round" stroke-width="3"></line></g><g id="Group_967" data-name="Group 967"><g id="Group_966" data-name="Group 966"><line id="Line_143" data-name="Line 143" y1="28.06" transform="translate(3.736)" fill="none" stroke="#f4662f" stroke-linecap="round" stroke-linejoin="round" stroke-width="3"></line><path id="Path_866" data-name="Path 866" d="M-2803-1527.6v-10.184h22.3v28.06H-2803v-12.951" transform="translate(2803.002 1537.782)" fill="none" stroke="#f4662f" stroke-linecap="round" stroke-linejoin="round" stroke-width="3"></path></g><path id="Path_867" data-name="Path 867" d="M-2780.221-1537.782v28.06h-19.426" transform="translate(2802.525 1537.782)" fill="none" stroke="#f4662f" stroke-linecap="round" stroke-linejoin="round" stroke-width="3"></path></g></g></g></g></g></svg>