<svg xmlns="http://www.w3.org/2000/svg" width="64.26" height="45.826" viewBox="0 0 64.26 45.826"><g id="Group_1251" data-name="Group 1251" transform="translate(4722.702 1826.813)"><g id="Group_1258" data-name="Group 1258" transform="translate(-4721.659 -1825.813)"><g id="Group_1257" data-name="Group 1257"><g id="Group_1256" data-name="Group 1256" transform="translate(0 11.593)"><path id="Path_975" data-name="Path 975" d="M-4721.042-1776.049a5.666,5.666,0,0,0,3.461,2.934,6.312,6.312,0,0,0,1.836.277,5.85,5.85,0,0,0,4.127-1.7l6.809-6.81h28.15l7.1,6.825a6,6,0,0,0,6.88,1.045,5.093,5.093,0,0,0,2.177-1.92,6.09,6.09,0,0,0,.046-6.523c-.015-.024-.031-.047-.048-.07l-11.174-18.9-.032-.05a9.167,9.167,0,0,0-7.6-4.043,9.162,9.162,0,0,0-7.289,3.6h-8.062a9.16,9.16,0,0,0-7.288-3.6,9.17,9.17,0,0,0-7.605,4.043l-.03.05-11.274,19.063a1.077,1.077,0,0,0-.13.348A6.054,6.054,0,0,0-4721.042-1776.049Z" transform="translate(4721.659 1804.975)" fill="none" stroke="#07f2c2" stroke-linecap="round" stroke-linejoin="round" stroke-width="2"></path><circle id="Ellipse_29" data-name="Ellipse 29" cx="3.338" cy="3.338" r="3.338" transform="translate(15.181 5.111)" fill="none" stroke="#07f2c2" stroke-linecap="round" stroke-linejoin="round" stroke-width="2"></circle><g id="Group_1251-2" data-name="Group 1251" transform="translate(20.874 15.842)"><line id="Line_220" data-name="Line 220" x2="6.676" fill="none" stroke="#07f2c2" stroke-linecap="round" stroke-linejoin="round" stroke-width="2"></line></g><g id="Group_1252" data-name="Group 1252" transform="translate(24.212 12.505)"><line id="Line_221" data-name="Line 221" y1="6.676" fill="none" stroke="#07f2c2" stroke-linecap="round" stroke-linejoin="round" stroke-width="2"></line></g><g id="Group_1255" data-name="Group 1255" transform="translate(35.894 4.716)"><g id="Group_1253" data-name="Group 1253" transform="translate(5.007)"><circle id="Ellipse_30" data-name="Ellipse 30" cx="1.669" cy="1.669" r="1.669" fill="none" stroke="#07f2c2" stroke-linecap="round" stroke-linejoin="round" stroke-width="2"></circle><circle id="Ellipse_31" data-name="Ellipse 31" cx="1.669" cy="1.669" r="1.669" transform="translate(0 8.901)" fill="none" stroke="#07f2c2" stroke-linecap="round" stroke-linejoin="round" stroke-width="2"></circle></g><g id="Group_1254" data-name="Group 1254" transform="translate(0 4.451)"><circle id="Ellipse_32" data-name="Ellipse 32" cx="1.669" cy="1.669" r="1.669" fill="none" stroke="#07f2c2" stroke-linecap="round" stroke-linejoin="round" stroke-width="2"></circle><circle id="Ellipse_33" data-name="Ellipse 33" cx="1.669" cy="1.669" r="1.669" transform="translate(9.457)" fill="none" stroke="#07f2c2" stroke-linecap="round" stroke-linejoin="round" stroke-width="2"></circle></g></g></g><path id="Path_976" data-name="Path 976" d="M-4661.409-1825.813a4.85,4.85,0,0,0-4.729,4.729v10.467" transform="translate(4697.025 1825.813)" fill="none" stroke="#07f2c2" stroke-linecap="round" stroke-linejoin="round" stroke-width="2"></path></g></g><g id="Group_1266" data-name="Group 1266" transform="translate(-4721.659 -1825.813)"><g id="Group_1265" data-name="Group 1265"><g id="Group_1264" data-name="Group 1264" transform="translate(0 11.593)"><path id="Path_977" data-name="Path 977" d="M-4721.042-1776.049a5.666,5.666,0,0,0,3.461,2.934,6.312,6.312,0,0,0,1.836.277,5.85,5.85,0,0,0,4.127-1.7l6.809-6.81h28.15l7.1,6.825a6,6,0,0,0,6.88,1.045,5.093,5.093,0,0,0,2.177-1.92,6.09,6.09,0,0,0,.046-6.523c-.015-.024-.031-.047-.048-.07l-11.174-18.9-.032-.05a9.167,9.167,0,0,0-7.6-4.043,9.162,9.162,0,0,0-7.289,3.6h-8.062a9.16,9.16,0,0,0-7.288-3.6,9.17,9.17,0,0,0-7.605,4.043l-.03.05-11.274,19.063a1.077,1.077,0,0,0-.13.348A6.054,6.054,0,0,0-4721.042-1776.049Z" transform="translate(4721.659 1804.975)" fill="none" stroke="#07f2c2" stroke-linecap="round" stroke-linejoin="round" stroke-width="2"></path><circle id="Ellipse_34" data-name="Ellipse 34" cx="3.338" cy="3.338" r="3.338" transform="translate(15.181 5.111)" fill="none" stroke="#07f2c2" stroke-linecap="round" stroke-linejoin="round" stroke-width="2"></circle><g id="Group_1259" data-name="Group 1259" transform="translate(20.874 15.842)"><line id="Line_222" data-name="Line 222" x2="6.676" fill="none" stroke="#07f2c2" stroke-linecap="round" stroke-linejoin="round" stroke-width="2"></line></g><g id="Group_1260" data-name="Group 1260" transform="translate(24.212 12.505)"><line id="Line_223" data-name="Line 223" y1="6.676" fill="none" stroke="#07f2c2" stroke-linecap="round" stroke-linejoin="round" stroke-width="2"></line></g><g id="Group_1263" data-name="Group 1263" transform="translate(35.894 4.716)"><g id="Group_1261" data-name="Group 1261" transform="translate(5.007)"><circle id="Ellipse_35" data-name="Ellipse 35" cx="1.669" cy="1.669" r="1.669" fill="none" stroke="#07f2c2" stroke-linecap="round" stroke-linejoin="round" stroke-width="2"></circle><circle id="Ellipse_36" data-name="Ellipse 36" cx="1.669" cy="1.669" r="1.669" transform="translate(0 8.901)" fill="none" stroke="#07f2c2" stroke-linecap="round" stroke-linejoin="round" stroke-width="2"></circle></g><g id="Group_1262" data-name="Group 1262" transform="translate(0 4.451)"><circle id="Ellipse_37" data-name="Ellipse 37" cx="1.669" cy="1.669" r="1.669" fill="none" stroke="#07f2c2" stroke-linecap="round" stroke-linejoin="round" stroke-width="2"></circle><circle id="Ellipse_38" data-name="Ellipse 38" cx="1.669" cy="1.669" r="1.669" transform="translate(9.457)" fill="none" stroke="#07f2c2" stroke-linecap="round" stroke-linejoin="round" stroke-width="2"></circle></g></g></g><path id="Path_978" data-name="Path 978" d="M-4661.409-1825.813a4.85,4.85,0,0,0-4.729,4.729v10.467" transform="translate(4697.025 1825.813)" fill="none" stroke="#07f2c2" stroke-linecap="round" stroke-linejoin="round" stroke-width="2"></path></g></g></g></svg>