<svg xmlns="http://www.w3.org/2000/svg" width="62.939" height="49.151" viewBox="0 0 62.939 49.151"><g id="Group_1177" data-name="Group 1177" transform="translate(5237.224 1838.198)"><g id="Group_1203" data-name="Group 1203" transform="translate(-5236.224 -1825.693)"><g id="Group_1189" data-name="Group 1189"><g id="Group_1188" data-name="Group 1188"><g id="Group_1187" data-name="Group 1187"><g id="Group_1186" data-name="Group 1186"><g id="Group_1185" data-name="Group 1185"><g id="Group_1184" data-name="Group 1184" transform="translate(0 6.836)"><g id="Group_1183" data-name="Group 1183"><g id="Group_1182" data-name="Group 1182"><g id="Group_1181" data-name="Group 1181"><g id="Group_1180" data-name="Group 1180"><line id="Line_201" data-name="Line 201" x2="37.111" fill="none" stroke="#07f2c2" stroke-linecap="round" stroke-linejoin="round" stroke-width="2"></line></g></g></g></g></g><path id="Path_945" data-name="Path 945" d="M-5203.78-1816.122h-31.314a1.084,1.084,0,0,0-1.1,1.067l-.031,33.511a1.084,1.084,0,0,0,1.092,1.069l50.545-.007a1.084,1.084,0,0,0,1.1-1.068v-10.476" transform="translate(5236.225 1816.122)" fill="none" stroke="#07f2c2" stroke-linecap="round" stroke-linejoin="round" stroke-width="2"></path></g></g><line id="Line_212" data-name="Line 212" x2="3.906" transform="translate(4.282 3.418)" fill="none" stroke="#07f2c2" stroke-linecap="round" stroke-linejoin="round" stroke-width="2"></line><line id="Line_213" data-name="Line 213" x2="3.906" transform="translate(13.389 3.418)" fill="none" stroke="#07f2c2" stroke-linecap="round" stroke-linejoin="round" stroke-width="2"></line></g></g></g><g id="Group_1202" data-name="Group 1202"><g id="Group_1201" data-name="Group 1201"><g id="Group_1200" data-name="Group 1200"><g id="Group_1199" data-name="Group 1199"><g id="Group_1198" data-name="Group 1198"><g id="Group_1197" data-name="Group 1197" transform="translate(0 6.836)"><g id="Group_1196" data-name="Group 1196"><g id="Group_1195" data-name="Group 1195"><g id="Group_1194" data-name="Group 1194"><g id="Group_1193" data-name="Group 1193"><line id="Line_205" data-name="Line 205" x2="37.111" fill="none" stroke="#07f2c2" stroke-linecap="round" stroke-linejoin="round" stroke-width="2"></line></g></g></g></g></g><path id="Path_946" data-name="Path 946" d="M-5203.78-1816.122h-31.314a1.084,1.084,0,0,0-1.1,1.067l-.031,33.511a1.084,1.084,0,0,0,1.092,1.069l50.545-.007a1.084,1.084,0,0,0,1.1-1.068v-10.476" transform="translate(5236.225 1816.122)" fill="none" stroke="#07f2c2" stroke-linecap="round" stroke-linejoin="round" stroke-width="2"></path></g></g></g></g></g></g><g id="Group_1218" data-name="Group 1218" transform="translate(-5201.847 -1837.198)"><g id="Group_1209" data-name="Group 1209"><g id="Group_1206" data-name="Group 1206"><g id="Group_1204" data-name="Group 1204" transform="translate(0 18.907)"><path id="Path_947" data-name="Path 947" d="M-5173.249-1788.647h26.561a14.356,14.356,0,0,0-6.593-12.045,12.869,12.869,0,0,0-6.827-1.87A13.538,13.538,0,0,0-5173.249-1788.647Z" transform="translate(5173.25 1802.562)" fill="none" stroke="#07f2c2" stroke-linecap="round" stroke-linejoin="round" stroke-width="2"></path></g><g id="Group_1205" data-name="Group 1205" transform="translate(4.51)"><path id="Path_948" data-name="Path 948" d="M-5136.019-1830.061a5.933,5.933,0,0,1,1.193,3.172" transform="translate(5151.833 1833.957)" fill="none" stroke="#07f2c2" stroke-linecap="round" stroke-linejoin="round" stroke-width="2"></path><path id="Path_949" data-name="Path 949" d="M-5139.26-1833.524a9.63,9.63,0,0,1,1.142,1.1" transform="translate(5153.305 1835.53)" fill="none" stroke="#07f2c2" stroke-linecap="round" stroke-linejoin="round" stroke-width="2"></path><path id="Path_950" data-name="Path 950" d="M-5164.988-1829.983c-.029-2.773,3.63-7.163,8.5-7.214a8.491,8.491,0,0,1,4.644,1.356" transform="translate(5164.988 1837.198)" fill="none" stroke="#07f2c2" stroke-linecap="round" stroke-linejoin="round" stroke-width="2"></path></g></g><g id="Group_1207" data-name="Group 1207" transform="translate(20.132 6.771)"><path id="Path_951" data-name="Path 951" d="M-5132.385-1817.393h0a1.954,1.954,0,0,0,2.083-1.767l-.022-2.138a1.954,1.954,0,0,0-2.12-1.722h0" transform="translate(5134.588 1823.989)" fill="none" stroke="#07f2c2" stroke-linecap="round" stroke-linejoin="round" stroke-width="2"></path><path id="Path_952" data-name="Path 952" d="M-5136.343-1817.933a1.054,1.054,0,0,0,1.057.747h0a1.014,1.014,0,0,0,1.058-.957l-.069-5.744a.989.989,0,0,0-1.048-.908h0a.982.982,0,0,0-1.026.927l.006.613" transform="translate(5136.371 1824.795)" fill="none" stroke="#07f2c2" stroke-linecap="round" stroke-linejoin="round" stroke-width="2"></path></g><g id="Group_1208" data-name="Group 1208" transform="translate(1.701 6.771)"><path id="Path_953" data-name="Path 953" d="M-5168.049-1817.393h0a1.955,1.955,0,0,1-2.083-1.767l.023-2.138a1.954,1.954,0,0,1,2.12-1.722h0" transform="translate(5170.133 1823.989)" fill="none" stroke="#07f2c2" stroke-linecap="round" stroke-linejoin="round" stroke-width="2"></path><path id="Path_954" data-name="Path 954" d="M-5164.092-1817.933a1.054,1.054,0,0,1-1.058.747h0a1.013,1.013,0,0,1-1.058-.957l.069-5.744a.988.988,0,0,1,1.048-.908h0a.983.983,0,0,1,1.026.927l-.007.613" transform="translate(5168.35 1824.795)" fill="none" stroke="#07f2c2" stroke-linecap="round" stroke-linejoin="round" stroke-width="2"></path></g><path id="Path_955" data-name="Path 955" d="M-5137.941-1809.5h2.144a.857.857,0,0,0,.857-.857v-2.256" transform="translate(5157.216 1826.032)" fill="none" stroke="#07f2c2" stroke-linecap="round" stroke-linejoin="round" stroke-width="2"></path><rect id="Rectangle_303" data-name="Rectangle 303" width="3.429" height="1.714" rx="0.857" transform="translate(15.846 15.678)" fill="none" stroke="#07f2c2" stroke-linecap="round" stroke-linejoin="round" stroke-width="2"></rect></g><g id="Group_1217" data-name="Group 1217"><g id="Group_1214" data-name="Group 1214"><g id="Group_1212" data-name="Group 1212" transform="translate(0 3.479)"><g id="Group_1211" data-name="Group 1211" transform="translate(5.496)"><g id="Group_1210" data-name="Group 1210"><path id="Path_956" data-name="Path 956" d="M-5151.545-1810.544a7.518,7.518,0,0,1-3.995,1.192,7.561,7.561,0,0,1-7.641-7.478" transform="translate(5163.181 1824.47)" fill="none" stroke="#07f2c2" stroke-linecap="round" stroke-linejoin="round" stroke-width="2"></path><path id="Path_957" data-name="Path 957" d="M-5163.181-1823.185a7.561,7.561,0,0,1,7.479-7.639,7.558,7.558,0,0,1,7.637,7.478,7.527,7.527,0,0,1-1.767,4.938" transform="translate(5163.182 1830.825)" fill="none" stroke="#07f2c2" stroke-linecap="round" stroke-linejoin="round" stroke-width="2"></path></g></g><path id="Path_958" data-name="Path 958" d="M-5173.249-1788.647h26.561a14.356,14.356,0,0,0-6.593-12.045,12.869,12.869,0,0,0-6.827-1.87A13.538,13.538,0,0,0-5173.249-1788.647Z" transform="translate(5173.25 1817.99)" fill="none" stroke="#07f2c2" stroke-linecap="round" stroke-linejoin="round" stroke-width="2"></path></g><g id="Group_1213" data-name="Group 1213" transform="translate(4.51)"><path id="Path_959" data-name="Path 959" d="M-5136.019-1830.061a5.933,5.933,0,0,1,1.193,3.172" transform="translate(5151.833 1833.957)" fill="none" stroke="#07f2c2" stroke-linecap="round" stroke-linejoin="round" stroke-width="2"></path><path id="Path_960" data-name="Path 960" d="M-5139.26-1833.524a9.63,9.63,0,0,1,1.142,1.1" transform="translate(5153.305 1835.53)" fill="none" stroke="#07f2c2" stroke-linecap="round" stroke-linejoin="round" stroke-width="2"></path><path id="Path_961" data-name="Path 961" d="M-5164.988-1829.983c-.029-2.773,3.63-7.163,8.5-7.214a8.491,8.491,0,0,1,4.644,1.356" transform="translate(5164.988 1837.198)" fill="none" stroke="#07f2c2" stroke-linecap="round" stroke-linejoin="round" stroke-width="2"></path></g></g><g id="Group_1215" data-name="Group 1215" transform="translate(20.132 6.771)"><path id="Path_962" data-name="Path 962" d="M-5132.385-1817.393h0a1.954,1.954,0,0,0,2.083-1.767l-.022-2.138a1.954,1.954,0,0,0-2.12-1.722h0" transform="translate(5134.588 1823.989)" fill="none" stroke="#07f2c2" stroke-linecap="round" stroke-linejoin="round" stroke-width="2"></path><path id="Path_963" data-name="Path 963" d="M-5136.343-1817.933a1.054,1.054,0,0,0,1.057.747h0a1.014,1.014,0,0,0,1.058-.957l-.069-5.744a.989.989,0,0,0-1.048-.908h0a.982.982,0,0,0-1.026.927l.006.613" transform="translate(5136.371 1824.795)" fill="none" stroke="#07f2c2" stroke-linecap="round" stroke-linejoin="round" stroke-width="2"></path></g><g id="Group_1216" data-name="Group 1216" transform="translate(1.701 6.771)"><path id="Path_964" data-name="Path 964" d="M-5168.049-1817.393h0a1.955,1.955,0,0,1-2.083-1.767l.023-2.138a1.954,1.954,0,0,1,2.12-1.722h0" transform="translate(5170.133 1823.989)" fill="none" stroke="#07f2c2" stroke-linecap="round" stroke-linejoin="round" stroke-width="2"></path><path id="Path_965" data-name="Path 965" d="M-5164.092-1817.933a1.054,1.054,0,0,1-1.058.747h0a1.013,1.013,0,0,1-1.058-.957l.069-5.744a.988.988,0,0,1,1.048-.908h0a.983.983,0,0,1,1.026.927l-.007.613" transform="translate(5168.35 1824.795)" fill="none" stroke="#07f2c2" stroke-linecap="round" stroke-linejoin="round" stroke-width="2"></path></g><path id="Path_966" data-name="Path 966" d="M-5137.941-1809.5h2.144a.857.857,0,0,0,.857-.857v-2.256" transform="translate(5157.216 1826.032)" fill="none" stroke="#07f2c2" stroke-linecap="round" stroke-linejoin="round" stroke-width="2"></path><rect id="Rectangle_304" data-name="Rectangle 304" width="3.429" height="1.714" rx="0.857" transform="translate(15.846 15.678)" fill="none" stroke="#07f2c2" stroke-linecap="round" stroke-linejoin="round" stroke-width="2"></rect></g></g><line id="Line_208" data-name="Line 208" x2="20.664" transform="translate(-5227.543 -1813.533)" fill="none" stroke="#07f2c2" stroke-linecap="round" stroke-linejoin="round" stroke-width="2"></line><line id="Line_209" data-name="Line 209" x2="20.664" transform="translate(-5227.543 -1808.162)" fill="none" stroke="#07f2c2" stroke-linecap="round" stroke-linejoin="round" stroke-width="2"></line><line id="Line_210" data-name="Line 210" x2="20.664" transform="translate(-5227.543 -1802.79)" fill="none" stroke="#07f2c2" stroke-linecap="round" stroke-linejoin="round" stroke-width="2"></line><line id="Line_211" data-name="Line 211" x2="35.926" transform="translate(-5227.543 -1796.931)" fill="none" stroke="#07f2c2" stroke-linecap="round" stroke-linejoin="round" stroke-width="2"></line></g></svg>