<svg xmlns="http://www.w3.org/2000/svg" width="49.84" height="78.691" viewBox="0 0 49.84 78.691"><g id="Group_1013" data-name="Group 1013" transform="translate(3836.508 1750.736)"><g id="Group_1019" data-name="Group 1019" transform="translate(-3835.008 -1749.236)"><line id="Line_147" data-name="Line 147" y2="5.826" transform="translate(12.699 45.229)" fill="none" stroke="#859095" stroke-linejoin="round" stroke-width="2"></line><line id="Line_148" data-name="Line 148" y2="6.155" transform="translate(12.699 58.236)" fill="none" stroke="#859095" stroke-linejoin="round" stroke-width="2"></line><rect id="Rectangle_285" data-name="Rectangle 285" width="28.722" height="35.919" transform="translate(8.595 39.772)" fill="none" stroke="#859095" stroke-miterlimit="10" stroke-width="2"></rect><path id="Path_879" data-name="Path 879" d="M-3794.613-1689.393l6.444-11.284h-46.839l5.518,11.284" transform="translate(3835.009 1735.32)" fill="none" stroke="#859095" stroke-linecap="round" stroke-linejoin="round" stroke-width="2"></path><g id="Group_1018" data-name="Group 1018" transform="translate(9.572)"><g id="Group_1017" data-name="Group 1017"><g id="Group_1016" data-name="Group 1016"><g id="Group_1015" data-name="Group 1015"><g id="Group_1014" data-name="Group 1014" transform="translate(0 7.787)"><g id="Group_1013-2" data-name="Group 1013"><path id="Path_880" data-name="Path 880" d="M-3799.147-1733.809c-.139,3.853-1.119,8.027-6.565,7.794-4.857-.207-5.667-3.778-5.744-7.384v-4.922s6.96,1.67,12.31,0Z" transform="translate(3818.687 1738.321)" fill="none" stroke="#859095" stroke-linecap="round" stroke-linejoin="round" stroke-width="2"></path><path id="Path_881" data-name="Path 881" d="M-3807.144-1721.873v1.943l2.363,4.8a1.167,1.167,0,0,0,2.131,0l2.687-4.8v-2.314" transform="translate(3817.451 1733.714)" fill="none" stroke="#859095" stroke-miterlimit="10" stroke-width="2"></path><path id="Path_882" data-name="Path 882" d="M-3811.519-1718.9c-1.934.245-7.133,1.229-8.708,4-1.191,2.093-1.393,3.209-1.361,9.006h27.69c.032-5.8.08-6.429-1.369-9.006-1.56-2.775-6.766-3.751-8.7-4" transform="translate(3821.591 1732.756)" fill="none" stroke="#859095" stroke-miterlimit="10" stroke-width="2"></path><line id="Line_149" data-name="Line 149" y2="1.244" transform="translate(6.204 24.586)" fill="none" stroke="#859095" stroke-miterlimit="10" stroke-width="2"></line><line id="Line_150" data-name="Line 150" y2="1.244" transform="translate(21.591 24.586)" fill="none" stroke="#859095" stroke-miterlimit="10" stroke-width="2"></line><path id="Path_883" data-name="Path 883" d="M-3810.353-1715.183a5.552,5.552,0,0,0-1.087,1.159,1.327,1.327,0,0,0,.743,2.033l1.038.317" transform="translate(3818.75 1731.69)" fill="none" stroke="#859095" stroke-miterlimit="10" stroke-width="2"></path><path id="Path_884" data-name="Path 884" d="M-3794.806-1715.183a5.558,5.558,0,0,1,1.087,1.159,1.327,1.327,0,0,1-.743,2.033l-1.354.656" transform="translate(3814.205 1731.69)" fill="none" stroke="#859095" stroke-miterlimit="10" stroke-width="2"></path></g></g><path id="Path_885" data-name="Path 885" d="M-3812.946-1734.214c-4.668-2.991-4.852-8.3-.966-11.883,2.855-.683,11.331-1.063,15.583-3.139,1.192,2.794,1.379,13-2.307,15.411" transform="translate(3820.176 1749.236)" fill="none" stroke="#859095" stroke-miterlimit="10" stroke-width="2"></path></g></g><line id="Line_151" data-name="Line 151" y1="6.558" transform="translate(13.861 27.023)" fill="none" stroke="#859095" stroke-miterlimit="10" stroke-width="2"></line></g></g></g><g id="Group_1026" data-name="Group 1026" transform="translate(-3835.008 -1749.236)"><line id="Line_152" data-name="Line 152" y2="5.826" transform="translate(12.699 45.229)" fill="none" stroke="#0776ff" stroke-linecap="round" stroke-linejoin="round" stroke-width="3"></line><line id="Line_153" data-name="Line 153" y2="6.155" transform="translate(12.699 58.236)" fill="none" stroke="#0776ff" stroke-linecap="round" stroke-linejoin="round" stroke-width="3"></line><rect id="Rectangle_286" data-name="Rectangle 286" width="28.722" height="35.919" transform="translate(8.595 39.772)" fill="none" stroke="#0776ff" stroke-linecap="round" stroke-linejoin="round" stroke-width="3"></rect><path id="Path_886" data-name="Path 886" d="M-3794.613-1689.393l6.444-11.284h-46.839l5.518,11.284" transform="translate(3835.009 1735.32)" fill="none" stroke="#0776ff" stroke-linecap="round" stroke-linejoin="round" stroke-width="3"></path><g id="Group_1025" data-name="Group 1025" transform="translate(9.572)"><g id="Group_1024" data-name="Group 1024"><g id="Group_1023" data-name="Group 1023"><g id="Group_1022" data-name="Group 1022"><g id="Group_1021" data-name="Group 1021" transform="translate(0 7.787)"><g id="Group_1020" data-name="Group 1020"><path id="Path_887" data-name="Path 887" d="M-3799.147-1733.809c-.139,3.853-1.119,8.027-6.565,7.794-4.857-.207-5.667-3.778-5.744-7.384v-4.922s6.96,1.67,12.31,0Z" transform="translate(3818.687 1738.321)" fill="none" stroke="#0776ff" stroke-linecap="round" stroke-linejoin="round" stroke-width="3"></path><path id="Path_888" data-name="Path 888" d="M-3807.144-1721.873v1.943l2.363,4.8a1.167,1.167,0,0,0,2.131,0l2.687-4.8v-2.314" transform="translate(3817.451 1733.714)" fill="none" stroke="#0776ff" stroke-linecap="round" stroke-linejoin="round" stroke-width="3"></path><path id="Path_889" data-name="Path 889" d="M-3811.519-1718.9c-1.934.245-7.133,1.229-8.708,4-1.191,2.093-1.393,3.209-1.361,9.006h27.69c.032-5.8.08-6.429-1.369-9.006-1.56-2.775-6.766-3.751-8.7-4" transform="translate(3821.591 1732.756)" fill="none" stroke="#0776ff" stroke-linecap="round" stroke-linejoin="round" stroke-width="3"></path><line id="Line_154" data-name="Line 154" y2="1.244" transform="translate(6.204 24.586)" fill="none" stroke="#0776ff" stroke-linecap="round" stroke-linejoin="round" stroke-width="3"></line><line id="Line_155" data-name="Line 155" y2="1.244" transform="translate(21.591 24.586)" fill="none" stroke="#0776ff" stroke-linecap="round" stroke-linejoin="round" stroke-width="3"></line><path id="Path_890" data-name="Path 890" d="M-3810.353-1715.183a5.552,5.552,0,0,0-1.087,1.159,1.327,1.327,0,0,0,.743,2.033l1.038.317" transform="translate(3818.75 1731.69)" fill="none" stroke="#0776ff" stroke-linecap="round" stroke-linejoin="round" stroke-width="3"></path><path id="Path_891" data-name="Path 891" d="M-3794.806-1715.183a5.558,5.558,0,0,1,1.087,1.159,1.327,1.327,0,0,1-.743,2.033l-1.354.656" transform="translate(3814.205 1731.69)" fill="none" stroke="#0776ff" stroke-linecap="round" stroke-linejoin="round" stroke-width="3"></path></g></g><path id="Path_892" data-name="Path 892" d="M-3812.946-1734.214c-4.668-2.991-4.852-8.3-.966-11.883,2.855-.683,11.331-1.063,15.583-3.139,1.192,2.794,1.379,13-2.307,15.411" transform="translate(3820.176 1749.236)" fill="none" stroke="#0776ff" stroke-linecap="round" stroke-linejoin="round" stroke-width="3"></path></g></g><line id="Line_156" data-name="Line 156" y1="6.558" transform="translate(13.861 27.023)" fill="none" stroke="#0776ff" stroke-linecap="round" stroke-linejoin="round" stroke-width="3"></line></g></g></g></g></svg>