<svg xmlns="http://www.w3.org/2000/svg" xmlns:xlink="http://www.w3.org/1999/xlink" id="Layer_1" x="0px" y="0px" viewBox="0 0 74.3 47.8" style="enable-background:new 0 0 74.3 47.8;" xml:space="preserve">
<style type="text/css">
	.st0{fill:none;stroke:#C3CFDF;stroke-width:3;stroke-linecap:round;stroke-linejoin:round;}
	.st1{fill:#C3CFDF;}
</style>
<g id="Group_1035" transform="translate(-1177.5 -1700.5)">
	<g id="Group_954" transform="translate(1179 1702)">
		<rect id="Rectangle_274" x="10.5" y="36.3" class="st0" width="8.5" height="8.5"></rect>
		<rect id="Rectangle_275" x="52.8" y="36.3" class="st0" width="8.5" height="8.5"></rect>
		<line id="Line_124" class="st0" x1="10.5" y1="40.6" x2="0" y2="40.6"></line>
		<line id="Line_125" class="st0" x1="52.8" y1="40.6" x2="19" y2="40.6"></line>
		<line id="Line_126" class="st0" x1="57" y1="24.5" x2="57" y2="36.3"></line>
		<line id="Line_127" class="st0" x1="14.7" y1="24.5" x2="14.7" y2="36.3"></line>
		<line id="Line_128" class="st0" x1="71.3" y1="40.6" x2="61.3" y2="40.6"></line>
		<path id="Path_856" class="st0" d="M42.1,10.5V4.8c0-0.7,0.6-1.3,1.3-1.3l0,0h24.9c0.7,0,1.3,0.6,1.3,1.3l0,0v5.7"></path>
		<path id="Rectangle_276" class="st0" d="M43.6,15h24.5c0.8,0,1.5,0.7,1.5,1.5l0,0V23c0,0.8-0.7,1.5-1.5,1.5H43.6    c-0.8,0-1.5-0.7-1.5-1.5c0,0,0,0,0,0v-6.5C42.1,15.6,42.8,15,43.6,15z"></path>
		<path id="Path_857" class="st0" d="M65,9.2c0,0.2-0.2,0.4-0.4,0.4l0,0c-0.2,0-0.4-0.2-0.4-0.4c0,0,0,0,0,0c0-0.2,0.2-0.4,0.4-0.4    l0,0C64.8,8.8,65,9,65,9.2z"></path>
		<path id="Path_858" class="st0" d="M65,19.7c0,0.2-0.2,0.4-0.4,0.4c-0.2,0-0.4-0.2-0.4-0.4v0c0-0.2,0.2-0.4,0.4-0.4c0,0,0,0,0,0    C64.8,19.3,65,19.5,65,19.7L65,19.7z"></path>
		<path id="Path_859" class="st0" d="M5.8,11.7V0h16.1v7.3"></path>
		<rect id="Rectangle_277" x="17.5" y="8.4" class="st0" width="9.5" height="16"></rect>
		<rect id="Rectangle_278" x="1.5" y="11.7" class="st0" width="8.5" height="12.7"></rect>
		<line id="Line_129" class="st0" x1="10" y1="24.5" x2="17.5" y2="24.5"></line>
		<rect id="Rectangle_279" x="45.8" y="18.6" class="st1" width="16.1" height="2.3"></rect>
		<rect id="Rectangle_280" x="45.8" y="8.1" class="st1" width="16.1" height="2.3"></rect>
	</g>
</g>
</svg>