<svg xmlns="http://www.w3.org/2000/svg" width="57.779" height="45.289" viewBox="0 0 57.779 45.289"><g id="Group_1096" data-name="Group 1096" transform="translate(-13.788 -12.131)"><rect id="Rectangle_289" data-name="Rectangle 289" width="4.938" height="4.938" transform="translate(15.611 20.477) rotate(-90)" fill="none" stroke="#07f2c2" stroke-linecap="round" stroke-linejoin="round" stroke-width="2"></rect><rect id="Rectangle_290" data-name="Rectangle 290" width="4.938" height="4.938" transform="translate(14.788 32.853) rotate(-90)" fill="none" stroke="#07f2c2" stroke-linecap="round" stroke-linejoin="round" stroke-width="2"></rect><rect id="Rectangle_291" data-name="Rectangle 291" width="4.938" height="4.938" transform="translate(27.988 18.069) rotate(-90)" fill="none" stroke="#07f2c2" stroke-linecap="round" stroke-linejoin="round" stroke-width="2"></rect><g id="Group_1132" data-name="Group 1132" transform="translate(24.466 23.125)"><g id="Group_1113" data-name="Group 1113"><g id="Group_1097" data-name="Group 1097" transform="translate(9.391 10.244)"><g id="Group_1096-2" data-name="Group 1096" transform="translate(0 0)"><line id="Line_163" data-name="Line 163" x1="16.221" transform="translate(0 1.707)" fill="none" stroke="#07f2c2" stroke-linecap="round" stroke-linejoin="round" stroke-width="2"></line><rect id="Rectangle_296" data-name="Rectangle 296" width="2.977" height="2.977" transform="translate(21.332 2.988) rotate(-179.787)" fill="none" stroke="#07f2c2" stroke-linecap="round" stroke-linejoin="round" stroke-width="2"></rect></g></g><g id="Group_1099" data-name="Group 1099" transform="translate(9.391 17.074)"><g id="Group_1098" data-name="Group 1098" transform="translate(0 0)"><line id="Line_164" data-name="Line 164" x1="16.221" transform="translate(0 1.707)" fill="none" stroke="#07f2c2" stroke-linecap="round" stroke-linejoin="round" stroke-width="2"></line><rect id="Rectangle_297" data-name="Rectangle 297" width="2.977" height="2.977" transform="translate(21.332 2.988) rotate(-179.787)" fill="none" stroke="#07f2c2" stroke-linecap="round" stroke-linejoin="round" stroke-width="2"></rect></g></g><g id="Group_1101" data-name="Group 1101" transform="translate(9.391 23.904)"><g id="Group_1100" data-name="Group 1100" transform="translate(0 0)"><line id="Line_165" data-name="Line 165" x1="16.221" transform="translate(0 1.707)" fill="none" stroke="#07f2c2" stroke-linecap="round" stroke-linejoin="round" stroke-width="2"></line><rect id="Rectangle_298" data-name="Rectangle 298" width="2.977" height="2.977" transform="translate(21.332 2.988) rotate(-179.787)" fill="none" stroke="#07f2c2" stroke-linecap="round" stroke-linejoin="round" stroke-width="2"></rect></g></g><g id="Group_1112" data-name="Group 1112"><g id="Group_1111" data-name="Group 1111"><g id="Group_1110" data-name="Group 1110"><g id="Group_1109" data-name="Group 1109" transform="translate(0 5.976)"><g id="Group_1108" data-name="Group 1108"><g id="Group_1107" data-name="Group 1107"><g id="Group_1106" data-name="Group 1106"><g id="Group_1105" data-name="Group 1105"><g id="Group_1104" data-name="Group 1104" transform="translate(37.99)"><g id="Group_1103" data-name="Group 1103" transform="translate(0)"><g id="Group_1102" data-name="Group 1102"><line id="Line_166" data-name="Line 166" y1="27.319" fill="none" stroke="#07f2c2" stroke-linecap="round" stroke-linejoin="round" stroke-width="2"></line></g></g></g><line id="Line_167" data-name="Line 167" x1="46.101" fill="none" stroke="#07f2c2" stroke-linecap="round" stroke-linejoin="round" stroke-width="2"></line></g></g></g></g></g><path id="Path_923" data-name="Path 923" d="M-5998.364-1766.051a.948.948,0,0,1-.961-.934v-31.422a.948.948,0,0,1,.961-.933h44.152a.948.948,0,0,1,.961.932l.025,31.428a.947.947,0,0,1-.955.934Z" transform="translate(5999.326 1799.34)" fill="none" stroke="#07f2c2" stroke-linecap="round" stroke-linejoin="round" stroke-width="2"></path></g></g><line id="Line_179" data-name="Line 179" x1="2.134" transform="translate(41.833 2.988)" fill="none" stroke="#07f2c2" stroke-linecap="round" stroke-linejoin="round" stroke-width="2"></line></g></g><g id="Group_1131" data-name="Group 1131"><g id="Group_1115" data-name="Group 1115" transform="translate(9.391 10.244)"><g id="Group_1114" data-name="Group 1114" transform="translate(0 0)"><line id="Line_171" data-name="Line 171" x1="16.221" transform="translate(0 1.707)" fill="none" stroke="#07f2c2" stroke-linecap="round" stroke-linejoin="round" stroke-width="2"></line><rect id="Rectangle_299" data-name="Rectangle 299" width="2.977" height="2.977" transform="translate(21.332 2.988) rotate(-179.787)" fill="none" stroke="#07f2c2" stroke-linecap="round" stroke-linejoin="round" stroke-width="2"></rect></g></g><g id="Group_1117" data-name="Group 1117" transform="translate(9.391 17.074)"><g id="Group_1116" data-name="Group 1116" transform="translate(0 0)"><line id="Line_172" data-name="Line 172" x1="16.221" transform="translate(0 1.707)" fill="none" stroke="#07f2c2" stroke-linecap="round" stroke-linejoin="round" stroke-width="2"></line><rect id="Rectangle_300" data-name="Rectangle 300" width="2.977" height="2.977" transform="translate(21.332 2.988) rotate(-179.787)" fill="none" stroke="#07f2c2" stroke-linecap="round" stroke-linejoin="round" stroke-width="2"></rect></g></g><g id="Group_1119" data-name="Group 1119" transform="translate(9.391 23.904)"><g id="Group_1118" data-name="Group 1118" transform="translate(0 0)"><line id="Line_173" data-name="Line 173" x1="16.221" transform="translate(0 1.707)" fill="none" stroke="#07f2c2" stroke-linecap="round" stroke-linejoin="round" stroke-width="2"></line><rect id="Rectangle_301" data-name="Rectangle 301" width="2.977" height="2.977" transform="translate(21.332 2.988) rotate(-179.787)" fill="none" stroke="#07f2c2" stroke-linecap="round" stroke-linejoin="round" stroke-width="2"></rect></g></g><g id="Group_1130" data-name="Group 1130"><g id="Group_1129" data-name="Group 1129"><g id="Group_1128" data-name="Group 1128"><g id="Group_1127" data-name="Group 1127" transform="translate(0 5.976)"><g id="Group_1126" data-name="Group 1126"><g id="Group_1125" data-name="Group 1125"><g id="Group_1124" data-name="Group 1124"><g id="Group_1123" data-name="Group 1123"><g id="Group_1122" data-name="Group 1122" transform="translate(37.99)"><g id="Group_1121" data-name="Group 1121" transform="translate(0)"><g id="Group_1120" data-name="Group 1120"><line id="Line_174" data-name="Line 174" y1="27.319" fill="none" stroke="#07f2c2" stroke-linecap="round" stroke-linejoin="round" stroke-width="2"></line></g></g></g><line id="Line_175" data-name="Line 175" x1="46.101" fill="none" stroke="#07f2c2" stroke-linecap="round" stroke-linejoin="round" stroke-width="2"></line></g></g></g></g></g><path id="Path_924" data-name="Path 924" d="M-5998.364-1766.051a.948.948,0,0,1-.961-.934v-31.422a.948.948,0,0,1,.961-.933h44.152a.948.948,0,0,1,.961.932l.025,31.428a.947.947,0,0,1-.955.934Z" transform="translate(5999.326 1799.34)" fill="none" stroke="#07f2c2" stroke-linecap="round" stroke-linejoin="round" stroke-width="2"></path></g></g><line id="Line_178" data-name="Line 178" x1="2.134" transform="translate(36.565 2.988)" fill="none" stroke="#07f2c2" stroke-linecap="round" stroke-linejoin="round" stroke-width="2"></line></g></g></g></g></svg>