<svg xmlns="http://www.w3.org/2000/svg" width="40.361" height="56.188" viewBox="0 0 40.361 56.188"><g id="Group_1297" data-name="Group 1297" transform="translate(5726.495 1571.812)"><g id="Group_1285" data-name="Group 1285" transform="translate(-5725.495 -1570.812)"><g id="Group_1283" data-name="Group 1283"><g id="Group_1282" data-name="Group 1282"><g id="Group_1281" data-name="Group 1281"><g id="Group_1280" data-name="Group 1280"><g id="Group_1279" data-name="Group 1279"><g id="Group_1278" data-name="Group 1278"><g id="Group_1277" data-name="Group 1277"><g id="Group_1276" data-name="Group 1276"><g id="Group_1275" data-name="Group 1275"><path id="Path_1002" data-name="Path 1002" d="M-5704.836-1517.1h-17.048a3.589,3.589,0,0,1-3.611-3.566v-45.524a4.654,4.654,0,0,1,4.683-4.624h18.869a4.651,4.651,0,0,1,4.682,4.62" transform="translate(5725.495 1570.812)" fill="none" stroke="#07f2c2" stroke-linecap="round" stroke-linejoin="round" stroke-width="2"></path><path id="Path_1003" data-name="Path 1003" d="M-5725.5-1537.5v-28.692a4.654,4.654,0,0,1,4.683-4.624h18.869a4.653,4.653,0,0,1,4.682,4.624v21.544" transform="translate(5725.495 1570.812)" fill="none" stroke="#07f2c2" stroke-linecap="round" stroke-linejoin="round" stroke-width="2"></path><line id="Line_232" data-name="Line 232" x1="6.886" transform="translate(12.396 3.443)" fill="none" stroke="#07f2c2" stroke-linecap="round" stroke-linejoin="round" stroke-width="2"></line><line id="Line_233" data-name="Line 233" x1="2.066" transform="translate(8.952 3.443)" fill="none" stroke="#07f2c2" stroke-linecap="round" stroke-linejoin="round" stroke-width="2"></line></g></g></g></g></g><line id="Line_234" data-name="Line 234" x1="16.527" transform="translate(0 47.516)" fill="none" stroke="#07f2c2" stroke-linecap="round" stroke-linejoin="round" stroke-width="2"></line></g></g><line id="Line_235" data-name="Line 235" x2="28.234" transform="translate(0 6.886)" fill="none" stroke="#07f2c2" stroke-linecap="round" stroke-linejoin="round" stroke-width="2"></line></g></g><g id="Group_1284" data-name="Group 1284" transform="translate(4.132 13.773)"><line id="Line_236" data-name="Line 236" x2="0.849" y2="2.102" transform="translate(22.92 16.946)" fill="none" stroke="#07f2c2" stroke-linecap="round" stroke-linejoin="round" stroke-width="2"></line><line id="Line_237" data-name="Line 237" x2="0.849" y2="2.102" transform="translate(19.217 17.464)" fill="none" stroke="#07f2c2" stroke-linecap="round" stroke-linejoin="round" stroke-width="2"></line><line id="Line_238" data-name="Line 238" x2="1.189" y2="2.943" transform="translate(15.764 17.392)" fill="none" stroke="#07f2c2" stroke-linecap="round" stroke-linejoin="round" stroke-width="2"></line><path id="Path_1004" data-name="Path 1004" d="M-5687.492-1489.859l-1.1-2.711a.7.7,0,0,1,.389-.917l12.569-5.078a.7.7,0,0,1,.917.389l1.095,2.711" transform="translate(5707.545 1529.973)" fill="none" stroke="#07f2c2" stroke-linecap="round" stroke-linejoin="round" stroke-width="2"></path><path id="Path_1005" data-name="Path 1005" d="M-5680.857-1524.739a2.112,2.112,0,0,1,2.749,1.166l1.844,4.567c1.845,4.567,1.6,7.7,2.123,9.008l.79,1.957" transform="translate(5704.628 1539.824)" fill="none" stroke="#07f2c2" stroke-linecap="round" stroke-linejoin="round" stroke-width="2"></path><path id="Path_1006" data-name="Path 1006" d="M-5687.036-1524.671a2.112,2.112,0,0,1,2.749,1.167l.6,1.493" transform="translate(5706.945 1539.799)" fill="none" stroke="#07f2c2" stroke-linecap="round" stroke-linejoin="round" stroke-width="2"></path><path id="Path_1007" data-name="Path 1007" d="M-5693.26-1524.584a2.112,2.112,0,0,1,2.748,1.167l.451,1.116" transform="translate(5709.278 1539.766)" fill="none" stroke="#07f2c2" stroke-linecap="round" stroke-linejoin="round" stroke-width="2"></path><path id="Path_1008" data-name="Path 1008" d="M-5695.915-1509.093" transform="translate(5710.273 1533.901)" fill="none" stroke="#07f2c2" stroke-linecap="round" stroke-linejoin="round" stroke-width="2"></path><path id="Path_1009" data-name="Path 1009" d="M-5692.3-1497.557l-.791-1.957s-5.84-2.245-6.681-4.325l-2.038-5.046" transform="translate(5712.482 1533.822)" fill="none" stroke="#07f2c2" stroke-linecap="round" stroke-linejoin="round" stroke-width="2"></path><path id="Path_1010" data-name="Path 1010" d="M-5699.229-1518.8l-5.364-13.276a2.113,2.113,0,0,1,.92-2.679,2.042,2.042,0,0,1,2.824,1.051l3.024,7.489" transform="translate(5713.587 1543.605)" fill="none" stroke="#07f2c2" stroke-linecap="round" stroke-linejoin="round" stroke-width="2"></path><path id="Path_1011" data-name="Path 1011" d="M-5709.517-1533a4.924,4.924,0,0,1,2.721-6.412,4.926,4.926,0,0,1,6.413,2.722" transform="translate(5715.508 1545.402)" fill="none" stroke="#07f2c2" stroke-linecap="round" stroke-linejoin="round" stroke-width="2"></path><path id="Path_1012" data-name="Path 1012" d="M-5718.113-1534.267a10.555,10.555,0,0,1,5.832-13.74,10.554,10.554,0,0,1,13.74,5.832" transform="translate(5718.885 1548.779)" fill="none" stroke="#07f2c2" stroke-linecap="round" stroke-linejoin="round" stroke-width="2"></path><path id="Path_1013" data-name="Path 1013" d="M-5701.369-1514.858a2.111,2.111,0,0,0-1.167,2.748l.4.986" transform="translate(5712.813 1536.062)" fill="none" stroke="#07f2c2" stroke-linecap="round" stroke-linejoin="round" stroke-width="2"></path></g></g><g id="Group_1296" data-name="Group 1296" transform="translate(-5725.495 -1570.812)"><g id="Group_1294" data-name="Group 1294"><g id="Group_1293" data-name="Group 1293"><g id="Group_1292" data-name="Group 1292"><g id="Group_1291" data-name="Group 1291"><g id="Group_1290" data-name="Group 1290"><g id="Group_1289" data-name="Group 1289"><g id="Group_1288" data-name="Group 1288"><g id="Group_1287" data-name="Group 1287"><g id="Group_1286" data-name="Group 1286"><path id="Path_1014" data-name="Path 1014" d="M-5704.836-1517.1h-17.048a3.589,3.589,0,0,1-3.611-3.566v-45.524a4.654,4.654,0,0,1,4.683-4.624h18.869a4.651,4.651,0,0,1,4.682,4.62" transform="translate(5725.495 1570.812)" fill="none" stroke="#07f2c2" stroke-linecap="round" stroke-linejoin="round" stroke-width="2"></path><path id="Path_1015" data-name="Path 1015" d="M-5725.5-1537.5v-28.692a4.654,4.654,0,0,1,4.683-4.624h18.869a4.653,4.653,0,0,1,4.682,4.624v21.544" transform="translate(5725.495 1570.812)" fill="none" stroke="#07f2c2" stroke-linecap="round" stroke-linejoin="round" stroke-width="2"></path><line id="Line_239" data-name="Line 239" x1="6.886" transform="translate(12.396 3.443)" fill="none" stroke="#07f2c2" stroke-linecap="round" stroke-linejoin="round" stroke-width="2"></line><line id="Line_240" data-name="Line 240" x1="2.066" transform="translate(8.952 3.443)" fill="none" stroke="#07f2c2" stroke-linecap="round" stroke-linejoin="round" stroke-width="2"></line></g></g></g></g></g><line id="Line_241" data-name="Line 241" x1="16.527" transform="translate(0 47.516)" fill="none" stroke="#07f2c2" stroke-linecap="round" stroke-linejoin="round" stroke-width="2"></line></g></g><line id="Line_242" data-name="Line 242" x2="28.234" transform="translate(0 6.886)" fill="none" stroke="#07f2c2" stroke-linecap="round" stroke-linejoin="round" stroke-width="2"></line></g></g><g id="Group_1295" data-name="Group 1295" transform="translate(4.132 13.773)"><line id="Line_243" data-name="Line 243" x2="0.849" y2="2.102" transform="translate(22.92 16.946)" fill="none" stroke="#07f2c2" stroke-linecap="round" stroke-linejoin="round" stroke-width="2"></line><line id="Line_244" data-name="Line 244" x2="0.849" y2="2.102" transform="translate(19.217 17.464)" fill="none" stroke="#07f2c2" stroke-linecap="round" stroke-linejoin="round" stroke-width="2"></line><line id="Line_245" data-name="Line 245" x2="1.189" y2="2.943" transform="translate(15.764 17.392)" fill="none" stroke="#07f2c2" stroke-linecap="round" stroke-linejoin="round" stroke-width="2"></line><path id="Path_1016" data-name="Path 1016" d="M-5687.492-1489.859l-1.1-2.711a.7.7,0,0,1,.389-.917l12.569-5.078a.7.7,0,0,1,.917.389l1.095,2.711" transform="translate(5707.545 1529.973)" fill="none" stroke="#07f2c2" stroke-linecap="round" stroke-linejoin="round" stroke-width="2"></path><path id="Path_1017" data-name="Path 1017" d="M-5680.857-1524.739a2.112,2.112,0,0,1,2.749,1.166l1.844,4.567c1.845,4.567,1.6,7.7,2.123,9.008l.79,1.957" transform="translate(5704.628 1539.824)" fill="none" stroke="#07f2c2" stroke-linecap="round" stroke-linejoin="round" stroke-width="2"></path><path id="Path_1018" data-name="Path 1018" d="M-5687.036-1524.671a2.112,2.112,0,0,1,2.749,1.167l.6,1.493" transform="translate(5706.945 1539.799)" fill="none" stroke="#07f2c2" stroke-linecap="round" stroke-linejoin="round" stroke-width="2"></path><path id="Path_1019" data-name="Path 1019" d="M-5693.26-1524.584a2.112,2.112,0,0,1,2.748,1.167l.451,1.116" transform="translate(5709.278 1539.766)" fill="none" stroke="#07f2c2" stroke-linecap="round" stroke-linejoin="round" stroke-width="2"></path><path id="Path_1020" data-name="Path 1020" d="M-5695.915-1509.093" transform="translate(5710.273 1533.901)" fill="none" stroke="#07f2c2" stroke-linecap="round" stroke-linejoin="round" stroke-width="2"></path><path id="Path_1021" data-name="Path 1021" d="M-5692.3-1497.557l-.791-1.957s-5.84-2.245-6.681-4.325l-2.038-5.046" transform="translate(5712.482 1533.822)" fill="none" stroke="#07f2c2" stroke-linecap="round" stroke-linejoin="round" stroke-width="2"></path><path id="Path_1022" data-name="Path 1022" d="M-5699.229-1518.8l-5.364-13.276a2.113,2.113,0,0,1,.92-2.679,2.042,2.042,0,0,1,2.824,1.051l3.024,7.489" transform="translate(5713.587 1543.605)" fill="none" stroke="#07f2c2" stroke-linecap="round" stroke-linejoin="round" stroke-width="2"></path><path id="Path_1023" data-name="Path 1023" d="M-5709.517-1533a4.924,4.924,0,0,1,2.721-6.412,4.926,4.926,0,0,1,6.413,2.722" transform="translate(5715.508 1545.402)" fill="none" stroke="#07f2c2" stroke-linecap="round" stroke-linejoin="round" stroke-width="2"></path><path id="Path_1024" data-name="Path 1024" d="M-5718.113-1534.267a10.555,10.555,0,0,1,5.832-13.74,10.554,10.554,0,0,1,13.74,5.832" transform="translate(5718.885 1548.779)" fill="none" stroke="#07f2c2" stroke-linecap="round" stroke-linejoin="round" stroke-width="2"></path><path id="Path_1025" data-name="Path 1025" d="M-5701.369-1514.858a2.111,2.111,0,0,0-1.167,2.748l.4.986" transform="translate(5712.813 1536.062)" fill="none" stroke="#07f2c2" stroke-linecap="round" stroke-linejoin="round" stroke-width="2"></path></g></g></g></svg>