<svg xmlns="http://www.w3.org/2000/svg" xmlns:xlink="http://www.w3.org/1999/xlink" id="Layer_1" x="0px" y="0px" viewBox="0 0 78.6 59.4" style="enable-background:new 0 0 78.6 59.4;" xml:space="preserve">
<style type="text/css">
	.st0{fill:none;stroke:#C3CFDF;stroke-width:2;stroke-linejoin:round;}
	.st1{fill:none;stroke:#C3CFDF;stroke-width:2;stroke-miterlimit:10;}
	.st2{fill:none;stroke:#C3CFDF;stroke-width:3;stroke-linecap:round;stroke-linejoin:round;}
</style>
<g id="Group_1005" transform="translate(3846.439 1879.091)">
	<g id="Group_815" transform="translate(-3844.939 -1877.591)">
		<g id="Group_804">
			<g id="Group_803">
				<g id="Group_795" transform="translate(25.96 12.3)">
					<path id="Path_741" class="st0" d="M48.4,37.7H1.2c-0.6,0-1.2-0.5-1.2-1.2V1.2C0,0.5,0.5,0,1.2,0c0,0,0,0,0,0h47.3       c0.6,0,1.2,0.5,1.2,1.2v35.3C49.6,37.2,49.1,37.7,48.4,37.7z"></path>
					<line id="Line_58" class="st0" x1="0" y1="30.3" x2="49.6" y2="30.3"></line>
					<line id="Line_59" class="st0" x1="21.1" y1="34" x2="28.5" y2="34"></line>
					<path id="Path_742" class="st0" d="M27.6,37.7v6.4h-5.5v-6.4"></path>
					<line id="Line_60" class="st0" x1="11.9" y1="44.1" x2="37.7" y2="44.1"></line>
				</g>
				<g id="Group_802">
					<g id="Group_801">
						<g id="Group_800">
							<g id="Group_799">
								<g id="Group_798" transform="translate(5.717)">
									<g id="Group_797">
										<g id="Group_796">
											<path id="Path_743" class="st1" d="M0,7.3C0,3.3,3.3,0,7.3,0c4,0,7.3,3.3,7.3,7.3c0,4-3.3,7.3-7.3,7.3             C3.3,14.5,0,11.3,0,7.3"></path>
										</g>
									</g>
								</g>
								<path id="Path_744" class="st1" d="M20.3,28.6H0c0.8-13.6,13-13.5,13-13.5c2.6-0.1,5.1,0.6,7.3,2.1"></path>
							</g>
						</g>
					</g>
				</g>
			</g>
		</g>
		<g id="Group_814">
			<g id="Group_813">
				<g id="Group_805" transform="translate(25.96 12.3)">
					<path id="Path_745" class="st2" d="M48.4,37.7H1.2c-0.6,0-1.2-0.5-1.2-1.2V1.2C0,0.5,0.5,0,1.2,0c0,0,0,0,0,0h47.3       c0.6,0,1.2,0.5,1.2,1.2v35.3C49.6,37.2,49.1,37.7,48.4,37.7z"></path>
					<line id="Line_61" class="st2" x1="0" y1="30.3" x2="49.6" y2="30.3"></line>
					<line id="Line_62" class="st2" x1="21.1" y1="34" x2="28.5" y2="34"></line>
					<path id="Path_746" class="st2" d="M27.6,37.7v6.4h-5.5v-6.4"></path>
					<line id="Line_63" class="st2" x1="11.9" y1="44.1" x2="37.7" y2="44.1"></line>
				</g>
				<g id="Group_812">
					<g id="Group_811">
						<g id="Group_810">
							<g id="Group_809">
								<g id="Group_808" transform="translate(5.717)">
									<g id="Group_807">
										<g id="Group_806">
											<path id="Path_747" class="st2" d="M0,7.3C0,3.3,3.3,0,7.3,0c4,0,7.3,3.3,7.3,7.3c0,4-3.3,7.3-7.3,7.3             C3.3,14.5,0,11.3,0,7.3"></path>
										</g>
									</g>
								</g>
								<path id="Path_748" class="st2" d="M20.3,28.6H0c0.8-13.6,13-13.5,13-13.5c2.6-0.1,5.1,0.6,7.3,2.1"></path>
							</g>
						</g>
					</g>
				</g>
			</g>
		</g>
	</g>
	<g id="Group_824" transform="translate(-3802.063 -1858.168)">
		<g id="Group_819">
			<g id="Group_818">
				<g id="Group_817" transform="translate(3.404)">
					<g id="Group_816">
						<path id="Path_749" class="st0" d="M0,4.5C0,2,2,0,4.5,0C7,0,9,2,9,4.5C9,7,7,9,4.5,9C2,9,0,7,0,4.5L0,4.5"></path>
					</g>
				</g>
				<path id="Path_750" class="st0" d="M0,17.3h15.8c0-2.9-1.4-5.5-3.9-7c-1.2-0.8-2.6-1.2-4-1.2C3.5,9.2-0.1,12.9,0,17.3z"></path>
			</g>
		</g>
		<g id="Group_823">
			<g id="Group_822">
				<g id="Group_821" transform="translate(3.404)">
					<g id="Group_820">
						<path id="Path_751" class="st2" d="M0,4.5C0,2,2,0,4.5,0C7,0,9,2,9,4.5C9,7,7,9,4.5,9C2,9,0,7,0,4.5L0,4.5"></path>
					</g>
				</g>
				<path id="Path_752" class="st2" d="M0,17.3h15.8c0-2.9-1.4-5.5-3.9-7c-1.2-0.8-2.6-1.2-4-1.2C3.5,9.2-0.1,12.9,0,17.3z"></path>
			</g>
		</g>
	</g>
</g>
</svg>