<svg xmlns="http://www.w3.org/2000/svg" width="67.77" height="73.936" viewBox="0 0 67.77 73.936"><g id="Group_1028" data-name="Group 1028" transform="translate(2827.863 1721.984)"><line id="Line_102" data-name="Line 102" x1="1.101" y2="1.542" transform="translate(-2786.316 -1679.869)" fill="none" stroke="#0776ff" stroke-linecap="round" stroke-linejoin="round" stroke-width="3"></line><path id="Path_817" data-name="Path 817" d="M-2793.3-1666.287l-11.957,16.739h-2.153l14.906-36.691H-2809.5l17.123-34.245h17.123l-11.138,22.015h16.078l-10.591,14.827" transform="translate(-1.61)" fill="none" stroke="#0776ff" stroke-linecap="round" stroke-linejoin="round" stroke-width="3"></path><line id="Line_103" data-name="Line 103" x1="3.216" y2="4.502" transform="translate(-2792.255 -1674.467)" fill="none" stroke="#0776ff" stroke-linecap="round" stroke-linejoin="round" stroke-width="3"></line><path id="Path_818" data-name="Path 818" d="M-2814.247-1659.207a32.392,32.392,0,0,1-2.632-2.361,32.286,32.286,0,0,1-9.484-22.9,32.4,32.4,0,0,1,20.8-30.25" transform="translate(0 -0.551)" fill="none" stroke="#0776ff" stroke-linecap="round" stroke-linejoin="round" stroke-width="3"></path><path id="Path_819" data-name="Path 819" d="M-2769.112-1708.1a32.309,32.309,0,0,1,10.939,24.267,32.385,32.385,0,0,1-32.385,32.385" transform="translate(-3.42 -1.183)" fill="none" stroke="#0776ff" stroke-linecap="round" stroke-linejoin="round" stroke-width="3"></path></g></svg>