<svg xmlns="http://www.w3.org/2000/svg" width="34.85" height="56.268" viewBox="0 0 34.85 56.268"><g id="Group_1316" data-name="Group 1316" transform="translate(5217.95 1572.158)"><g id="Group_1316-2" data-name="Group 1316" transform="translate(-5209.69 -1553.21)"><rect id="Rectangle_307" data-name="Rectangle 307" width="11.33" height="24.295" rx="5.665" transform="translate(3.5)" fill="none" stroke="#07f2c2" stroke-linecap="round" stroke-linejoin="round" stroke-width="2"></rect><path id="Path_1037" data-name="Path 1037" d="M-5184.228-1496.188a8.628,8.628,0,0,1-8.6,8.6h-1.122a8.628,8.628,0,0,1-8.6-8.6" transform="translate(5202.556 1516.055)" fill="none" stroke="#07f2c2" stroke-linecap="round" stroke-linejoin="round" stroke-width="2"></path><line id="Line_249" data-name="Line 249" y2="7.849" transform="translate(9.165 28.471)" fill="none" stroke="#07f2c2" stroke-linecap="round" stroke-linejoin="round" stroke-width="2"></line><line id="Line_250" data-name="Line 250" x2="5.361" transform="translate(6.484 36.32)" fill="none" stroke="#07f2c2" stroke-linecap="round" stroke-linejoin="round" stroke-width="2"></line><line id="Line_251" data-name="Line 251" x1="5.804" transform="translate(6.754 6.671)" fill="none" stroke="#07f2c2" stroke-linecap="round" stroke-linejoin="round" stroke-width="2"></line><line id="Line_252" data-name="Line 252" x1="5.804" transform="translate(6.754 10.411)" fill="none" stroke="#07f2c2" stroke-linecap="round" stroke-linejoin="round" stroke-width="2"></line><line id="Line_253" data-name="Line 253" x1="5.804" transform="translate(6.754 14.151)" fill="none" stroke="#07f2c2" stroke-linecap="round" stroke-linejoin="round" stroke-width="2"></line></g><g id="Group_1317" data-name="Group 1317" transform="translate(-5216.95 -1571.158)"><path id="Path_1038" data-name="Path 1038" d="M-5202.556-1538.538a8.628,8.628,0,0,1,8.6-8.6h1.122a8.628,8.628,0,0,1,8.6,8.6" transform="translate(5209.816 1559.256)" fill="none" stroke="#07f2c2" stroke-linecap="round" stroke-linejoin="round" stroke-width="2"></path><path id="Path_1039" data-name="Path 1039" d="M-5209.077-1547.552a11.726,11.726,0,0,1,11.691-11.692h1.524a11.726,11.726,0,0,1,11.692,11.692" transform="translate(5213.048 1565.254)" fill="none" stroke="#07f2c2" stroke-linecap="round" stroke-linejoin="round" stroke-width="2"></path><path id="Path_1040" data-name="Path 1040" d="M-5216.95-1555.738a15.466,15.466,0,0,1,15.421-15.42h2.009a15.465,15.465,0,0,1,15.42,15.42" transform="translate(5216.95 1571.158)" fill="none" stroke="#07f2c2" stroke-linecap="round" stroke-linejoin="round" stroke-width="2"></path></g></g></svg>