<svg xmlns="http://www.w3.org/2000/svg" width="57.614" height="74.768" viewBox="0 0 57.614 74.768"><g id="Group_1027" data-name="Group 1027" transform="translate(3340.444 1726.615)"><g id="Group_894" data-name="Group 894" transform="translate(-3338.944 -1725.115)"><g id="Group_890" data-name="Group 890"><g id="Group_889" data-name="Group 889"><g id="Group_888" data-name="Group 888"><path id="Path_812" data-name="Path 812" d="M-3313.494-1653.744l4.38-13.142a1.194,1.194,0,0,1,1.132-.814s9.6,2.12,12.539,2.12a5.321,5.321,0,0,0,5.321-5.321v-11.349a1.19,1.19,0,0,1,1.191-1.191h3a1.6,1.6,0,0,0,1.6-1.6,1.468,1.468,0,0,0-.064-.437l-.144-.352-5.5-12.993a1.223,1.223,0,0,1-.085-.441v-2.043a23.815,23.815,0,0,0-23.809-23.809h-1.2a23.806,23.806,0,0,0-23.813,23.813c0,5.338,1.234,9.326,4.044,14.944.192.386,1.227,2.462,1.531,3.04.61,1.161,1.288,5.157-.573,11.36l-1.03,3.431" transform="translate(3338.944 1725.115)" fill="none" stroke="#f4662f" stroke-linejoin="round" stroke-width="2"></path></g></g></g><g id="Group_893" data-name="Group 893"><g id="Group_892" data-name="Group 892"><g id="Group_891" data-name="Group 891"><path id="Path_813" data-name="Path 813" d="M-3313.494-1653.744l4.38-13.142a1.194,1.194,0,0,1,1.132-.814s9.6,2.12,12.539,2.12a5.321,5.321,0,0,0,5.321-5.321v-11.349a1.19,1.19,0,0,1,1.191-1.191h3a1.6,1.6,0,0,0,1.6-1.6,1.468,1.468,0,0,0-.064-.437l-.144-.352-5.5-12.993a1.223,1.223,0,0,1-.085-.441v-2.043a23.815,23.815,0,0,0-23.809-23.809h-1.2a23.806,23.806,0,0,0-23.813,23.813c0,5.338,1.234,9.326,4.044,14.944.192.386,1.227,2.462,1.531,3.04.61,1.161,1.288,5.157-.573,11.36l-1.03,3.431" transform="translate(3338.944 1725.115)" fill="none" stroke="#f4662f" stroke-linecap="round" stroke-linejoin="round" stroke-width="3"></path></g></g></g></g><g id="Group_901" data-name="Group 901" transform="translate(-3329.635 -1717.236)"><g id="Group_897" data-name="Group 897"><g id="Group_896" data-name="Group 896"><path id="Path_814" data-name="Path 814" d="M-3298.235-1703.794h-2.623a12.238,12.238,0,0,0-1.257-3.027l1.857-1.857a.633.633,0,0,0,0-.893l-3.576-3.576a.633.633,0,0,0-.894,0l-1.857,1.857a12.258,12.258,0,0,0-3.028-1.257v-2.623a.632.632,0,0,0-.632-.632h-5.056a.632.632,0,0,0-.632.632v2.623a12.248,12.248,0,0,0-3.028,1.257l-1.856-1.857a.634.634,0,0,0-.895,0l-3.575,3.576a.632.632,0,0,0,0,.893l1.856,1.857a12.257,12.257,0,0,0-1.257,3.027h-2.622a.632.632,0,0,0-.632.632v5.057a.632.632,0,0,0,.632.632h2.622a12.259,12.259,0,0,0,1.257,3.027l-1.856,1.857a.633.633,0,0,0,0,.894l3.575,3.575a.632.632,0,0,0,.895,0l1.856-1.856a12.239,12.239,0,0,0,3.028,1.258v2.622a.632.632,0,0,0,.632.632h5.056a.631.631,0,0,0,.632-.632v-2.622a12.249,12.249,0,0,0,3.028-1.258l1.857,1.856a.631.631,0,0,0,.894,0l3.576-3.575a.634.634,0,0,0,0-.894l-1.857-1.857a12.24,12.24,0,0,0,1.257-3.027h2.623a.633.633,0,0,0,.632-.632v-5.057A.632.632,0,0,0-3298.235-1703.794Z" transform="translate(3327.942 1715.803)" fill="none" stroke="#f4662f" stroke-linejoin="round" stroke-width="2"></path><g id="Group_895" data-name="Group 895" transform="translate(10.279 10.28)"><circle id="Ellipse_16" data-name="Ellipse 16" cx="4.89" cy="4.89" r="4.89" fill="#fff" stroke="#f4662f" stroke-width="1"></circle></g></g></g><g id="Group_900" data-name="Group 900"><g id="Group_899" data-name="Group 899"><path id="Path_815" data-name="Path 815" d="M-3298.235-1703.794h-2.623a12.238,12.238,0,0,0-1.257-3.027l1.857-1.857a.633.633,0,0,0,0-.893l-3.576-3.576a.633.633,0,0,0-.894,0l-1.857,1.857a12.258,12.258,0,0,0-3.028-1.257v-2.623a.632.632,0,0,0-.632-.632h-5.056a.632.632,0,0,0-.632.632v2.623a12.248,12.248,0,0,0-3.028,1.257l-1.856-1.857a.634.634,0,0,0-.895,0l-3.575,3.576a.632.632,0,0,0,0,.893l1.856,1.857a12.257,12.257,0,0,0-1.257,3.027h-2.622a.632.632,0,0,0-.632.632v5.057a.632.632,0,0,0,.632.632h2.622a12.259,12.259,0,0,0,1.257,3.027l-1.856,1.857a.633.633,0,0,0,0,.894l3.575,3.575a.632.632,0,0,0,.895,0l1.856-1.856a12.239,12.239,0,0,0,3.028,1.258v2.622a.632.632,0,0,0,.632.632h5.056a.631.631,0,0,0,.632-.632v-2.622a12.249,12.249,0,0,0,3.028-1.258l1.857,1.856a.631.631,0,0,0,.894,0l3.576-3.575a.634.634,0,0,0,0-.894l-1.857-1.857a12.24,12.24,0,0,0,1.257-3.027h2.623a.633.633,0,0,0,.632-.632v-5.057A.632.632,0,0,0-3298.235-1703.794Z" transform="translate(3327.942 1715.803)" fill="none" stroke="#f4662f" stroke-linejoin="round" stroke-width="3"></path><g id="Group_898" data-name="Group 898" transform="translate(10.279 10.28)"><circle id="Ellipse_17" data-name="Ellipse 17" cx="4.89" cy="4.89" r="4.89" fill="none" stroke="#f4662f" stroke-linejoin="round" stroke-width="3"></circle><path id="Path_816" data-name="Path 816" d="M-3310.9-1702.808a4.048,4.048,0,0,1,4.044,4.044,4.048,4.048,0,0,1-4.044,4.044,4.049,4.049,0,0,1-4.044-4.044,4.049,4.049,0,0,1,4.044-4.044m0-.846a4.89,4.89,0,0,0-4.89,4.89,4.89,4.89,0,0,0,4.89,4.89,4.889,4.889,0,0,0,4.89-4.89,4.889,4.889,0,0,0-4.89-4.89Z" transform="translate(3315.794 1703.654)" fill="none" stroke="#f4662f" stroke-linejoin="round" stroke-width="3"></path></g></g></g></g></g></svg>