<svg xmlns="http://www.w3.org/2000/svg" width="76.177" height="49.035" viewBox="0 0 76.177 49.035"><g id="Group_1037" data-name="Group 1037" transform="translate(2372.887 1547.691)"><g id="Group_1045" data-name="Group 1045" transform="translate(-2371.322 -1546.127)"><g id="Group_1040" data-name="Group 1040" transform="translate(10.403 4.606)"><g id="Group_1039" data-name="Group 1039"><g id="Group_1038" data-name="Group 1038"><g id="Group_1037-2" data-name="Group 1037"><path id="Path_893" data-name="Path 893" d="M-2312.364-1485.789h-45.121v-2.446" transform="translate(2357.484 1527.153)" fill="none" stroke="#869095" stroke-linejoin="round" stroke-width="2"></path><line id="Line_157" data-name="Line 157" x1="5.071" transform="translate(48.347 41.364)" fill="none" stroke="#869095" stroke-linejoin="round" stroke-width="2"></line><path id="Path_894" data-name="Path 894" d="M-2314.969-1540h30.745v41.364h-6.561" transform="translate(2346.933 1540.001)" fill="none" stroke="#869095" stroke-linejoin="round" stroke-width="2"></path><line id="Line_158" data-name="Line 158" x2="8.33" transform="translate(18.857)" fill="none" stroke="#869095" stroke-linejoin="round" stroke-width="2"></line><path id="Path_895" data-name="Path 895" d="M-2331.612-1531.845h35.469v29.1h-40.414" transform="translate(2352.291 1537.977)" fill="none" stroke="#869095" stroke-linejoin="round" stroke-width="2"></path><line id="Line_159" data-name="Line 159" x2="34.523" transform="translate(15.994 29.468)" fill="none" stroke="#869095" stroke-linejoin="round" stroke-width="2"></line><circle id="Ellipse_25" data-name="Ellipse 25" cx="3.751" cy="3.751" r="3.751" transform="translate(28.809 11.098)" fill="none" stroke="#869095" stroke-linejoin="round" stroke-width="2"></circle></g></g></g></g><g id="Group_1044" data-name="Group 1044"><g id="Group_1043" data-name="Group 1043"><g id="Group_1042" data-name="Group 1042"><path id="Path_896" data-name="Path 896" d="M-2357.255-1545.974l1.189.938a.714.714,0,0,0,.69.11l1.42-.525a.714.714,0,0,1,.842.274l.841,1.259a.717.717,0,0,0,.623.317l1.513-.06a.716.716,0,0,1,.717.52l.41,1.458a.714.714,0,0,0,.494.494l1.457.411a.715.715,0,0,1,.521.716l-.06,1.513a.713.713,0,0,0,.317.623l1.259.84a.714.714,0,0,1,.273.842l-.524,1.42a.716.716,0,0,0,.109.691l.938,1.188a.714.714,0,0,1,0,.886l-.937,1.189a.715.715,0,0,0-.109.69l.524,1.42a.714.714,0,0,1-.273.842l-1.259.84a.715.715,0,0,0-.317.623l.06,1.513a.716.716,0,0,1-.521.716l-1.457.41a.713.713,0,0,0-.494.495l-.41,1.457a.714.714,0,0,1-.717.52l-1.513-.059a.713.713,0,0,0-.623.317l-.841,1.258a.713.713,0,0,1-.842.274l-1.42-.524a.714.714,0,0,0-.69.109l-1.189.938a.714.714,0,0,1-.886,0l-1.187-.937a.716.716,0,0,0-.691-.109l-1.419.524a.715.715,0,0,1-.843-.274l-.841-1.258a.712.712,0,0,0-.622-.317l-1.513.059a.713.713,0,0,1-.717-.52l-.41-1.457a.716.716,0,0,0-.494-.495l-1.457-.41a.716.716,0,0,1-.521-.716l.06-1.513a.716.716,0,0,0-.317-.623l-1.26-.84a.715.715,0,0,1-.273-.842l.525-1.42a.711.711,0,0,0-.11-.69l-.937-1.189a.716.716,0,0,1,0-.886l.937-1.188a.713.713,0,0,0,.11-.691l-.525-1.42a.715.715,0,0,1,.273-.842l1.26-.84a.715.715,0,0,0,.317-.623l-.06-1.513a.714.714,0,0,1,.521-.716l1.457-.411a.716.716,0,0,0,.494-.494l.41-1.458a.715.715,0,0,1,.717-.52l1.513.06a.715.715,0,0,0,.622-.317l.841-1.259a.716.716,0,0,1,.843-.274l1.419.525a.716.716,0,0,0,.691-.11l1.188-.937A.716.716,0,0,1-2357.255-1545.974Z" transform="translate(2371.322 1546.127)" fill="none" stroke="#869095" stroke-linejoin="round" stroke-width="2"></path><g id="Group_1041" data-name="Group 1041" transform="translate(6.377 6.274)"><circle id="Ellipse_26" data-name="Ellipse 26" cx="7.248" cy="7.248" r="7.248" fill="none" stroke="#869095" stroke-linejoin="round" stroke-width="2"></circle></g></g></g><path id="Path_897" data-name="Path 897" d="M-2354.858-1507.967l2.63,11.577a.715.715,0,0,0,1.312.207l1.165-1.961a.714.714,0,0,1,1.024-.22l1.847,1.291a.715.715,0,0,0,1.108-.736l-2.293-10.644" transform="translate(2367.236 1536.777)" fill="none" stroke="#869095" stroke-linejoin="round" stroke-width="2"></path><path id="Path_898" data-name="Path 898" d="M-2363-1509.882l-2.518,11.719a.715.715,0,0,0,1.109.736l1.846-1.291a.716.716,0,0,1,1.025.22l1.151,1.937a.715.715,0,0,0,1.313-.215l.932-4.329" transform="translate(2369.886 1537.132)" fill="none" stroke="#869095" stroke-linejoin="round" stroke-width="2"></path></g></g><g id="Group_1054" data-name="Group 1054" transform="translate(-2371.322 -1546.127)"><g id="Group_1049" data-name="Group 1049" transform="translate(10.403 4.606)"><g id="Group_1048" data-name="Group 1048"><g id="Group_1047" data-name="Group 1047"><g id="Group_1046" data-name="Group 1046"><path id="Path_899" data-name="Path 899" d="M-2312.364-1485.789h-45.121v-2.446" transform="translate(2357.484 1527.153)" fill="none" stroke="#0076ff" stroke-linecap="round" stroke-linejoin="round" stroke-width="3"></path><line id="Line_160" data-name="Line 160" x1="5.071" transform="translate(48.347 41.364)" fill="none" stroke="#0076ff" stroke-linecap="round" stroke-linejoin="round" stroke-width="3"></line><path id="Path_900" data-name="Path 900" d="M-2314.969-1540h30.745v41.364h-6.561" transform="translate(2346.933 1540.001)" fill="none" stroke="#0076ff" stroke-linecap="round" stroke-linejoin="round" stroke-width="3"></path><line id="Line_161" data-name="Line 161" x2="8.33" transform="translate(18.857)" fill="none" stroke="#0076ff" stroke-linecap="round" stroke-linejoin="round" stroke-width="3"></line><path id="Path_901" data-name="Path 901" d="M-2331.612-1531.845h35.469v29.1h-40.414" transform="translate(2352.291 1537.977)" fill="none" stroke="#0076ff" stroke-linecap="round" stroke-linejoin="round" stroke-width="3"></path><line id="Line_162" data-name="Line 162" x2="34.523" transform="translate(15.994 29.468)" fill="none" stroke="#0076ff" stroke-linecap="round" stroke-linejoin="round" stroke-width="3"></line><circle id="Ellipse_27" data-name="Ellipse 27" cx="3.751" cy="3.751" r="3.751" transform="translate(28.809 11.098)" fill="none" stroke="#0076ff" stroke-linecap="round" stroke-linejoin="round" stroke-width="3"></circle></g></g></g></g><g id="Group_1053" data-name="Group 1053"><g id="Group_1052" data-name="Group 1052"><g id="Group_1051" data-name="Group 1051"><path id="Path_902" data-name="Path 902" d="M-2357.255-1545.974l1.189.938a.714.714,0,0,0,.69.11l1.42-.525a.714.714,0,0,1,.842.274l.841,1.259a.717.717,0,0,0,.623.317l1.513-.06a.716.716,0,0,1,.717.52l.41,1.458a.714.714,0,0,0,.494.494l1.457.411a.715.715,0,0,1,.521.716l-.06,1.513a.713.713,0,0,0,.317.623l1.259.84a.714.714,0,0,1,.273.842l-.524,1.42a.716.716,0,0,0,.109.691l.938,1.188a.714.714,0,0,1,0,.886l-.937,1.189a.715.715,0,0,0-.109.69l.524,1.42a.714.714,0,0,1-.273.842l-1.259.84a.715.715,0,0,0-.317.623l.06,1.513a.716.716,0,0,1-.521.716l-1.457.41a.713.713,0,0,0-.494.495l-.41,1.457a.714.714,0,0,1-.717.52l-1.513-.059a.713.713,0,0,0-.623.317l-.841,1.258a.713.713,0,0,1-.842.274l-1.42-.524a.714.714,0,0,0-.69.109l-1.189.938a.714.714,0,0,1-.886,0l-1.187-.937a.716.716,0,0,0-.691-.109l-1.419.524a.715.715,0,0,1-.843-.274l-.841-1.258a.712.712,0,0,0-.622-.317l-1.513.059a.713.713,0,0,1-.717-.52l-.41-1.457a.716.716,0,0,0-.494-.495l-1.457-.41a.716.716,0,0,1-.521-.716l.06-1.513a.716.716,0,0,0-.317-.623l-1.26-.84a.715.715,0,0,1-.273-.842l.525-1.42a.711.711,0,0,0-.11-.69l-.937-1.189a.716.716,0,0,1,0-.886l.937-1.188a.713.713,0,0,0,.11-.691l-.525-1.42a.715.715,0,0,1,.273-.842l1.26-.84a.715.715,0,0,0,.317-.623l-.06-1.513a.714.714,0,0,1,.521-.716l1.457-.411a.716.716,0,0,0,.494-.494l.41-1.458a.715.715,0,0,1,.717-.52l1.513.06a.715.715,0,0,0,.622-.317l.841-1.259a.716.716,0,0,1,.843-.274l1.419.525a.716.716,0,0,0,.691-.11l1.188-.937A.716.716,0,0,1-2357.255-1545.974Z" transform="translate(2371.322 1546.127)" fill="none" stroke="#0076ff" stroke-linecap="round" stroke-linejoin="round" stroke-width="3"></path><g id="Group_1050" data-name="Group 1050" transform="translate(6.377 6.274)"><circle id="Ellipse_28" data-name="Ellipse 28" cx="7.248" cy="7.248" r="7.248" fill="none" stroke="#0076ff" stroke-linecap="round" stroke-linejoin="round" stroke-width="3"></circle></g></g></g><path id="Path_903" data-name="Path 903" d="M-2354.858-1507.967l2.63,11.577a.715.715,0,0,0,1.312.207l1.165-1.961a.714.714,0,0,1,1.024-.22l1.847,1.291a.715.715,0,0,0,1.108-.736l-2.293-10.644" transform="translate(2367.236 1536.777)" fill="none" stroke="#0076ff" stroke-linecap="round" stroke-linejoin="round" stroke-width="3"></path><path id="Path_904" data-name="Path 904" d="M-2363-1509.882l-2.518,11.719a.715.715,0,0,0,1.109.736l1.846-1.291a.716.716,0,0,1,1.025.22l1.151,1.937a.715.715,0,0,0,1.313-.215l.932-4.329" transform="translate(2369.886 1537.132)" fill="none" stroke="#0076ff" stroke-linecap="round" stroke-linejoin="round" stroke-width="3"></path></g></g></g></svg>