<svg xmlns="http://www.w3.org/2000/svg" width="84.039" height="39.545" viewBox="0 0 84.039 39.545"><g id="Group_1000" data-name="Group 1000" transform="translate(2370.349 2015.526)"><g id="Graduation_Cap" data-name="Graduation Cap" transform="translate(-2368.849 -2014.025)"><g id="Group_792" data-name="Group 792"><path id="Path_730" data-name="Path 730" d="M-2346.57-2001.386c-2.319,3.99-5.108,14.7-5.917,18.908,6.527,3.126,14.216,4.116,22.45,4.116s15.922-.99,22.449-4.115c-.771-4.018-3.179-15.063-5.334-18.909" transform="translate(2369.989 2014.906)" fill="none" stroke="#869095" stroke-linejoin="round" stroke-width="2"></path><path id="Path_731" data-name="Path 731" d="M-2330.579-1985.97q.613.013,1.235.013a33.87,33.87,0,0,0,10.505-1.4" transform="translate(2371.516 2015.883)" fill="none" stroke="#869095" stroke-linejoin="round" stroke-width="2"></path><path id="Path_732" data-name="Path 732" d="M-2287.811-2004.987l-40.257,7.528a1.454,1.454,0,0,1-.526,0l-40.256-7.528,40.207-9a1.427,1.427,0,0,1,.625,0Z" transform="translate(2368.849 2014.025)" fill="none" stroke="#869095" stroke-linejoin="round" stroke-width="2"></path><path id="Path_733" data-name="Path 733" d="M-2328.771-2009.427" transform="translate(2371.642 2014.346)" fill="none" stroke="#869095" stroke-linejoin="round" stroke-width="2"></path><path id="Path_734" data-name="Path 734" d="M-2328.58-2008.638l33.066-3.976v19.038" transform="translate(2371.656 2014.124)" fill="none" stroke="#869095" stroke-linejoin="round" stroke-width="2"></path><ellipse id="Ellipse_14" data-name="Ellipse 14" cx="3.752" cy="1.876" rx="3.752" ry="1.876" transform="translate(36.767 4.502)" fill="none" stroke="#869095" stroke-linejoin="round" stroke-width="2"></ellipse></g><g id="Group_793" data-name="Group 793"><path id="Path_735" data-name="Path 735" d="M-2346.57-2001.386c-2.319,3.99-5.108,14.7-5.917,18.908,6.527,3.126,14.216,4.116,22.45,4.116s15.922-.99,22.449-4.115c-.771-4.018-3.179-15.063-5.334-18.909" transform="translate(2369.989 2014.906)" fill="none" stroke="#f4662f" stroke-linecap="round" stroke-linejoin="round" stroke-width="3"></path><path id="Path_736" data-name="Path 736" d="M-2330.579-1985.97q.613.013,1.235.013a33.87,33.87,0,0,0,10.505-1.4" transform="translate(2371.516 2015.883)" fill="none" stroke="#f4662f" stroke-linecap="round" stroke-linejoin="round" stroke-width="3"></path><path id="Path_737" data-name="Path 737" d="M-2287.811-2004.987l-40.257,7.528a1.454,1.454,0,0,1-.526,0l-40.256-7.528,40.207-9a1.427,1.427,0,0,1,.625,0Z" transform="translate(2368.849 2014.025)" fill="none" stroke="#f4662f" stroke-linecap="round" stroke-linejoin="round" stroke-width="3"></path><path id="Path_738" data-name="Path 738" d="M-2328.771-2009.427" transform="translate(2371.642 2014.346)" fill="none" stroke="#f4662f" stroke-linecap="round" stroke-linejoin="round" stroke-width="3"></path><path id="Path_739" data-name="Path 739" d="M-2328.58-2008.638l33.066-3.976v19.038" transform="translate(2371.656 2014.124)" fill="none" stroke="#f4662f" stroke-linecap="round" stroke-linejoin="round" stroke-width="3"></path><ellipse id="Ellipse_15" data-name="Ellipse 15" cx="3.752" cy="1.876" rx="3.752" ry="1.876" transform="translate(36.767 4.502)" fill="none" stroke="#f4662f" stroke-linecap="round" stroke-linejoin="round" stroke-width="3"></ellipse></g></g><rect id="Rectangle_267" data-name="Rectangle 267" width="5.556" height="3.422" rx="1.351" transform="translate(-2295.485 -1994.355)" fill="#f4662f"></rect><path id="Path_740" data-name="Path 740" d="M-2296.706-1987.412h-1.627a1.3,1.3,0,0,1-1.434-1.458l.82-4.086c.056-.277.5-.486,1-.486h.853c.5,0,.946.208,1,.486l.819,4.086A1.3,1.3,0,0,1-2296.706-1987.412Z" transform="translate(4.813 1.434)" fill="#f4662f"></path></g></svg>