<svg xmlns="http://www.w3.org/2000/svg" width="56.889" height="47.741" viewBox="0 0 56.889 47.741"><g id="Group_1300" data-name="Group 1300" transform="translate(5501.528 1567.589)"><g id="Group_1314" data-name="Group 1314" transform="translate(-5500.528 -1566.589)"><g id="Group_1306" data-name="Group 1306"><g id="Group_1305" data-name="Group 1305"><g id="Group_1304" data-name="Group 1304"><g id="Group_1302" data-name="Group 1302"><path id="Path_1026" data-name="Path 1026" d="M-5477.657-1542.575h-10.006V-1538l-4.959-4.574h-5.762a2.206,2.206,0,0,1-2.144-2.216v-19.654a2.144,2.144,0,0,1,2.144-2.144h25.443a2.145,2.145,0,0,1,2.145,2.144v12.722" transform="translate(5500.528 1566.589)" fill="none" stroke="#07f2c2" stroke-linecap="round" stroke-linejoin="round" stroke-width="2"></path><g id="Group_1300-2" data-name="Group 1300" transform="translate(22.298 2.859)"><path id="Path_1027" data-name="Path 1027" d="M-5458.1-1561.15h2.472a2.108,2.108,0,0,1,2.1,2.1v4.759" transform="translate(5458.103 1561.15)" fill="none" stroke="#07f2c2" stroke-linecap="round" stroke-linejoin="round" stroke-width="2"></path></g><g id="Group_1301" data-name="Group 1301" transform="translate(15.134 2.859)"><line id="Line_246" data-name="Line 246" x2="4.611" fill="none" stroke="#07f2c2" stroke-linecap="round" stroke-linejoin="round" stroke-width="2"></line></g></g><path id="Path_1028" data-name="Path 1028" d="M-5435.8-1509.976v4.609l4.959-4.609,5.761-.036a2.144,2.144,0,0,0,2.144-2.144v-19.654a2.144,2.144,0,0,0-2.144-2.144h-25.443a2.144,2.144,0,0,0-2.145,2.144v19.654a2.144,2.144,0,0,0,2.145,2.144Z" transform="translate(5477.821 1551.107)" fill="none" stroke="#07f2c2" stroke-linecap="round" stroke-linejoin="round" stroke-width="2"></path><g id="Group_1303" data-name="Group 1303" transform="translate(47.456 20.012)"><path id="Path_1029" data-name="Path 1029" d="M-5410.239-1528.515h3.877a.7.7,0,0,1,.7.7v6.164" transform="translate(5410.239 1528.515)" fill="none" stroke="#07f2c2" stroke-linecap="round" stroke-linejoin="round" stroke-width="2"></path></g></g></g></g><g id="Group_1313" data-name="Group 1313"><g id="Group_1312" data-name="Group 1312"><g id="Group_1311" data-name="Group 1311"><g id="Group_1309" data-name="Group 1309"><path id="Path_1030" data-name="Path 1030" d="M-5477.657-1542.575h-10.006V-1538l-4.959-4.574h-5.762a2.206,2.206,0,0,1-2.144-2.216v-19.654a2.144,2.144,0,0,1,2.144-2.144h25.443a2.145,2.145,0,0,1,2.145,2.144v12.722" transform="translate(5500.528 1566.589)" fill="none" stroke="#07f2c2" stroke-linecap="round" stroke-linejoin="round" stroke-width="2"></path><g id="Group_1307" data-name="Group 1307" transform="translate(22.298 2.859)"><path id="Path_1031" data-name="Path 1031" d="M-5458.1-1561.15h2.472a2.108,2.108,0,0,1,2.1,2.1v4.759" transform="translate(5458.103 1561.15)" fill="none" stroke="#07f2c2" stroke-linecap="round" stroke-linejoin="round" stroke-width="2"></path><path id="Path_1032" data-name="Path 1032" d="M-5458.1-1561.15h2.472a2.108,2.108,0,0,1,2.1,2.1v4.759" transform="translate(5458.103 1561.15)" fill="none" stroke="#07f2c2" stroke-linecap="round" stroke-linejoin="round" stroke-width="2"></path></g><g id="Group_1308" data-name="Group 1308" transform="translate(15.134 2.859)"><line id="Line_247" data-name="Line 247" x2="4.611" fill="none" stroke="#07f2c2" stroke-linecap="round" stroke-linejoin="round" stroke-width="2"></line><line id="Line_248" data-name="Line 248" x2="4.611" fill="none" stroke="#07f2c2" stroke-linecap="round" stroke-linejoin="round" stroke-width="2"></line></g></g><path id="Path_1033" data-name="Path 1033" d="M-5435.8-1509.976v4.609l4.959-4.609,5.761-.036a2.144,2.144,0,0,0,2.144-2.144v-19.654a2.144,2.144,0,0,0-2.144-2.144h-25.443a2.144,2.144,0,0,0-2.145,2.144v19.654a2.144,2.144,0,0,0,2.145,2.144Z" transform="translate(5477.821 1551.107)" fill="none" stroke="#07f2c2" stroke-linecap="round" stroke-linejoin="round" stroke-width="2"></path><g id="Group_1310" data-name="Group 1310" transform="translate(47.456 20.012)"><path id="Path_1034" data-name="Path 1034" d="M-5410.239-1528.515h3.877a.7.7,0,0,1,.7.7v6.164" transform="translate(5410.239 1528.515)" fill="none" stroke="#07f2c2" stroke-linecap="round" stroke-linejoin="round" stroke-width="2"></path><path id="Path_1035" data-name="Path 1035" d="M-5410.239-1528.515h3.877a.7.7,0,0,1,.7.7v6.164" transform="translate(5410.239 1528.515)" fill="none" stroke="#07f2c2" stroke-linecap="round" stroke-linejoin="round" stroke-width="2"></path></g></g></g></g></g><path id="Path_871" data-name="Path 871" d="M-5424.461-1511.583a.647.647,0,0,0-.151-.691l-1.376-1.356.02-.019a11.521,11.521,0,0,0,2.441-4.3h1.277a.657.657,0,0,0,.651-.651v-.013a.658.658,0,0,0-.651-.652h-3.956v-.658a.658.658,0,0,0-.658-.658.658.658,0,0,0-.658.658v.658h-3.957a.651.651,0,0,0-.651.651.651.651,0,0,0,.651.652h6.7a10.305,10.305,0,0,1-2.086,3.535,10.171,10.171,0,0,1-1.356-1.9.582.582,0,0,0-.514-.31.6.6,0,0,0-.6.6.6.6,0,0,0,.076.289,11.636,11.636,0,0,0,1.514,2.112l-2.876,2.837a.651.651,0,0,0-.013.921l.013.013a.663.663,0,0,0,.935,0l2.817-2.824,1.33,1.329a.653.653,0,0,0,.924,0A.657.657,0,0,0-5424.461-1511.583Z" transform="translate(-32.448 -21.826)" fill="#07f2c2"></path><g id="Group_1315" data-name="Group 1315" transform="translate(-5490.689 -1559.583)"><path id="Path_1036" data-name="Path 1036" d="M-5479.281-1545.96l-1.106,3.35h-1.422l3.618-10.649h1.659l3.634,10.649h-1.469l-1.138-3.35Zm3.492-1.074-1.043-3.065c-.237-.695-.4-1.327-.553-1.943h-.031c-.158.632-.332,1.28-.537,1.927l-1.043,3.081Z" transform="translate(5481.809 1553.26)" fill="#07f2c2"></path></g></g></svg>