<svg xmlns="http://www.w3.org/2000/svg" width="37.554" height="56.014" viewBox="0 0 37.554 56.014"><g id="Group_1219" data-name="Group 1219" transform="translate(4948.959 1817.511)"><g id="Group_1233" data-name="Group 1233" transform="translate(-4948.764 -1816.511)"><g id="Group_1232" data-name="Group 1232" transform="translate(0)"><g id="Group_1228" data-name="Group 1228" transform="translate(0)"><g id="Group_1226" data-name="Group 1226" transform="translate(12.428 3.5)"><g id="Group_1225" data-name="Group 1225"><g id="Group_1224" data-name="Group 1224"><g id="Group_1223" data-name="Group 1223"><g id="Group_1222" data-name="Group 1222"><g id="Group_1220" data-name="Group 1220"><g id="Group_1219-2" data-name="Group 1219"><line id="Line_214" data-name="Line 214" x1="7.521" fill="none" stroke="#07f2c2" stroke-linecap="round" stroke-linejoin="round" stroke-width="2"></line></g></g><g id="Group_1221" data-name="Group 1221" transform="translate(8.099 36.733)"><path id="Path_967" data-name="Path 967" d="M-4919.165-1757.667" transform="translate(4919.165 1757.667)" fill="none" stroke="#07f2c2" stroke-linecap="round" stroke-linejoin="round" stroke-width="2"></path></g></g></g></g></g></g><g id="Group_1227" data-name="Group 1227" transform="translate(0.804 2.817)"><rect id="Rectangle_305" data-name="Rectangle 305" width="1.367" height="1.367" rx="0.684" transform="translate(8.205)" fill="none" stroke="#07f2c2" stroke-linecap="round" stroke-linejoin="round" stroke-width="2"></rect><line id="Line_215" data-name="Line 215" x1="28.033" transform="translate(0 4.102)" fill="none" stroke="#07f2c2" stroke-linecap="round" stroke-linejoin="round" stroke-width="2"></line></g><path id="Path_968" data-name="Path 968" d="M-4919.979-1774.121v7.521a4.114,4.114,0,0,1-4.1,4.1h-19.828a4.115,4.115,0,0,1-4.1-4.1v-45.809a4.115,4.115,0,0,1,4.1-4.1h19.828a4.114,4.114,0,0,1,4.1,4.1v8.2" transform="translate(4948.816 1816.511)" fill="none" stroke="#07f2c2" stroke-linecap="round" stroke-linejoin="round" stroke-width="2"></path></g><g id="Group_1231" data-name="Group 1231" transform="translate(13.945 15.042)"><g id="Group_1230" data-name="Group 1230" transform="translate(4.832)"><g id="Group_1229" data-name="Group 1229"><path id="Path_969" data-name="Path 969" d="M-4921.726-1788.135a6.376,6.376,0,0,1,6.376-6.376,6.376,6.376,0,0,1,6.374,6.376,6.376,6.376,0,0,1-6.374,6.375,6.376,6.376,0,0,1-6.376-6.375" transform="translate(4921.726 1794.511)" fill="none" stroke="#07f2c2" stroke-linecap="round" stroke-linejoin="round" stroke-width="2"></path></g></g><path id="Path_970" data-name="Path 970" d="M-4928.792-1763.885h22.413a11.7,11.7,0,0,0-5.465-9.978,10.855,10.855,0,0,0-5.741-1.638A11.417,11.417,0,0,0-4928.792-1763.885Z" transform="translate(4928.792 1788.499)" fill="none" stroke="#07f2c2" stroke-linecap="round" stroke-linejoin="round" stroke-width="2"></path></g></g></g><g id="Group_1248" data-name="Group 1248" transform="translate(-4948.764 -1816.511)"><g id="Group_1247" data-name="Group 1247" transform="translate(0)"><g id="Group_1243" data-name="Group 1243" transform="translate(0)"><g id="Group_1241" data-name="Group 1241" transform="translate(12.428 3.5)"><g id="Group_1240" data-name="Group 1240"><g id="Group_1239" data-name="Group 1239"><g id="Group_1238" data-name="Group 1238"><g id="Group_1237" data-name="Group 1237"><g id="Group_1235" data-name="Group 1235"><g id="Group_1234" data-name="Group 1234"><line id="Line_217" data-name="Line 217" x1="7.521" fill="none" stroke="#07f2c2" stroke-linecap="round" stroke-linejoin="round" stroke-width="2"></line></g></g><g id="Group_1236" data-name="Group 1236" transform="translate(8.099 36.733)"><path id="Path_971" data-name="Path 971" d="M-4919.165-1757.667" transform="translate(4919.165 1757.667)" fill="none" stroke="#07f2c2" stroke-linecap="round" stroke-linejoin="round" stroke-width="2"></path></g></g></g></g></g></g><g id="Group_1242" data-name="Group 1242" transform="translate(0.804 2.817)"><rect id="Rectangle_306" data-name="Rectangle 306" width="1.367" height="1.367" rx="0.684" transform="translate(8.205)" fill="none" stroke="#07f2c2" stroke-linecap="round" stroke-linejoin="round" stroke-width="2"></rect><line id="Line_218" data-name="Line 218" x1="28.033" transform="translate(0 4.102)" fill="none" stroke="#07f2c2" stroke-linecap="round" stroke-linejoin="round" stroke-width="2"></line></g><line id="Line_219" data-name="Line 219" x1="28" transform="translate(0.857 47.653)" fill="none" stroke="#07f2c2" stroke-linecap="round" stroke-linejoin="round" stroke-width="2"></line><path id="Path_972" data-name="Path 972" d="M-4919.979-1774.121v7.521a4.114,4.114,0,0,1-4.1,4.1h-19.828a4.115,4.115,0,0,1-4.1-4.1v-45.809a4.115,4.115,0,0,1,4.1-4.1h19.828a4.114,4.114,0,0,1,4.1,4.1v8.2" transform="translate(4948.816 1816.511)" fill="none" stroke="#07f2c2" stroke-linecap="round" stroke-linejoin="round" stroke-width="2"></path></g><g id="Group_1246" data-name="Group 1246" transform="translate(13.945 15.042)"><g id="Group_1245" data-name="Group 1245" transform="translate(4.832)"><g id="Group_1244" data-name="Group 1244"><path id="Path_973" data-name="Path 973" d="M-4921.726-1788.135a6.376,6.376,0,0,1,6.376-6.376,6.376,6.376,0,0,1,6.374,6.376,6.376,6.376,0,0,1-6.374,6.375,6.376,6.376,0,0,1-6.376-6.375" transform="translate(4921.726 1794.511)" fill="none" stroke="#07f2c2" stroke-linecap="round" stroke-linejoin="round" stroke-width="2"></path></g></g><path id="Path_974" data-name="Path 974" d="M-4928.792-1763.885h22.413a11.7,11.7,0,0,0-5.465-9.978,10.855,10.855,0,0,0-5.741-1.638A11.417,11.417,0,0,0-4928.792-1763.885Z" transform="translate(4928.792 1788.499)" fill="none" stroke="#07f2c2" stroke-linecap="round" stroke-linejoin="round" stroke-width="2"></path></g></g></g></g></svg>