<svg xmlns="http://www.w3.org/2000/svg" width="66.277" height="35.924" viewBox="0 0 66.277 35.924"><g id="Group_1133" data-name="Group 1133" transform="translate(5753.495 1818.011)"><g id="Group_1135" data-name="Group 1135" transform="translate(-5752.495 -1817.011)"><g id="Group_1134" data-name="Group 1134"><g id="Group_1133-2" data-name="Group 1133"><path id="Path_925" data-name="Path 925" d="M-5745.949-1785.942l-4.121-1.19a2.425,2.425,0,0,1-2.426-2.425v-8.839a2.426,2.426,0,0,1,2.426-2.425l4.121-1.19" transform="translate(5752.495 1810.938)" fill="none" stroke="#07f2c2" stroke-linecap="round" stroke-linejoin="round" stroke-width="2"></path><path id="Path_926" data-name="Path 926" d="M-5655.5-1785.942l4.122-1.19a2.424,2.424,0,0,0,2.425-2.425v-8.839a2.425,2.425,0,0,0-2.425-2.425l-4.122-1.19" transform="translate(5713.226 1810.938)" fill="none" stroke="#07f2c2" stroke-linecap="round" stroke-linejoin="round" stroke-width="2"></path><path id="Path_927" data-name="Path 927" d="M-5690.312-1791.7v-16.7a8.611,8.611,0,0,0-8.611-8.611h-33.96a8.612,8.612,0,0,0-8.612,8.611v16.7a8.612,8.612,0,0,0,8.612,8.611h10.458a15.648,15.648,0,0,1,1.215-1.935,6.39,6.39,0,0,1,5.306-2.651,6.485,6.485,0,0,1,4.938,2.228,10.955,10.955,0,0,1,1.4,2.358h10.645A8.611,8.611,0,0,0-5690.312-1791.7Z" transform="translate(5748.042 1817.011)" fill="none" stroke="#07f2c2" stroke-linecap="round" stroke-linejoin="round" stroke-width="2"></path><path id="Path_928" data-name="Path 928" d="M-5699.37-1783.824c4.044,0,7.321-3,7.321-6.694v-12.8c0-3.7-3.277-6.693-7.321-6.693h-28.8c-4.043,0-7.322,3-7.322,6.693v12.8c0,3.7,3.279,6.694,7.322,6.694l6.183-.387s3.188-4.12,8.217-4.076a11.036,11.036,0,0,1,8.06,4.076Z" transform="translate(5745.611 1814.177)" fill="none" stroke="#07f2c2" stroke-linecap="round" stroke-linejoin="round" stroke-width="2"></path></g><line id="Line_180" data-name="Line 180" x1="10.385" y2="15.578" transform="translate(38.195 8.74)" fill="none" stroke="#07f2c2" stroke-linecap="round" stroke-linejoin="round" stroke-width="2"></line><line id="Line_181" data-name="Line 181" x1="5.193" y2="7.789" transform="translate(39.061 7.875)" fill="none" stroke="#07f2c2" stroke-linecap="round" stroke-linejoin="round" stroke-width="2"></line><line id="Line_182" data-name="Line 182" x1="6.058" y2="7.789" transform="translate(16.559 18.26)" fill="none" stroke="#07f2c2" stroke-linecap="round" stroke-linejoin="round" stroke-width="2"></line></g></g><g id="Group_1138" data-name="Group 1138" transform="translate(-5752.495 -1817.011)"><g id="Group_1137" data-name="Group 1137"><g id="Group_1136" data-name="Group 1136"><path id="Path_929" data-name="Path 929" d="M-5745.949-1785.942l-4.121-1.19a2.425,2.425,0,0,1-2.426-2.425v-8.839a2.426,2.426,0,0,1,2.426-2.425l4.121-1.19" transform="translate(5752.495 1810.938)" fill="none" stroke="#07f2c2" stroke-linecap="round" stroke-linejoin="round" stroke-width="2"></path><path id="Path_930" data-name="Path 930" d="M-5655.5-1785.942l4.122-1.19a2.424,2.424,0,0,0,2.425-2.425v-8.839a2.425,2.425,0,0,0-2.425-2.425l-4.122-1.19" transform="translate(5713.226 1810.938)" fill="none" stroke="#07f2c2" stroke-linecap="round" stroke-linejoin="round" stroke-width="2"></path><path id="Path_931" data-name="Path 931" d="M-5690.312-1791.7v-16.7a8.611,8.611,0,0,0-8.611-8.611h-33.96a8.612,8.612,0,0,0-8.612,8.611v16.7a8.612,8.612,0,0,0,8.612,8.611h10.458a15.648,15.648,0,0,1,1.215-1.935,6.39,6.39,0,0,1,5.306-2.651,6.485,6.485,0,0,1,4.938,2.228,10.955,10.955,0,0,1,1.4,2.358h10.645A8.611,8.611,0,0,0-5690.312-1791.7Z" transform="translate(5748.042 1817.011)" fill="none" stroke="#07f2c2" stroke-linecap="round" stroke-linejoin="round" stroke-width="2"></path><path id="Path_932" data-name="Path 932" d="M-5699.37-1783.824c4.044,0,7.321-3,7.321-6.694v-12.8c0-3.7-3.277-6.693-7.321-6.693h-28.8c-4.043,0-7.322,3-7.322,6.693v12.8c0,3.7,3.279,6.694,7.322,6.694l6.183-.387s3.188-4.12,8.217-4.076a11.036,11.036,0,0,1,8.06,4.076Z" transform="translate(5745.611 1814.177)" fill="none" stroke="#07f2c2" stroke-linecap="round" stroke-linejoin="round" stroke-width="2"></path></g><line id="Line_183" data-name="Line 183" x1="10.385" y2="15.578" transform="translate(38.195 8.74)" fill="none" stroke="#07f2c2" stroke-linecap="round" stroke-linejoin="round" stroke-width="2"></line><line id="Line_184" data-name="Line 184" x1="5.193" y2="7.789" transform="translate(39.061 7.875)" fill="none" stroke="#07f2c2" stroke-linecap="round" stroke-linejoin="round" stroke-width="2"></line><line id="Line_185" data-name="Line 185" x1="6.058" y2="7.789" transform="translate(16.559 18.26)" fill="none" stroke="#07f2c2" stroke-linecap="round" stroke-linejoin="round" stroke-width="2"></line></g></g></g></svg>