<svg xmlns="http://www.w3.org/2000/svg" width="74.704" height="74.474" viewBox="0 0 74.704 74.474"><g id="Group_1007" data-name="Group 1007" transform="translate(2830.499 1892.005)"><g id="Group_851" data-name="Group 851" transform="translate(-2828.999 -1890.505)"><path id="Path_777" data-name="Path 777" d="M-2781.892-1824.364a6.872,6.872,0,0,0,6.519-6.519v-14.667c0-5.382-10.636-8.148-16.3-8.148s-16.3,2.764-16.3,8.148v14.667a6.873,6.873,0,0,0,6.519,6.519" transform="translate(2827.522 1887.921)" fill="none" stroke="#f7c544" stroke-linecap="round" stroke-linejoin="round" stroke-width="3"></path><path id="Path_778" data-name="Path 778" d="M-2759.629-1820.736c3.171,0,6.519-1.719,6.519-4.889v-14.667c0-5.383-9.572-8.148-14.667-8.148-.5,0-1.052.027-1.63.081" transform="translate(2824.815 1887.551)" fill="none" stroke="#f7c544" stroke-linecap="round" stroke-linejoin="round" stroke-width="3"></path><path id="Path_779" data-name="Path 779" d="M-2790.931-1860.064c3.8,0,6.518-2.4,6.518-5.867v-2.934c0-3.472-2.72-5.867-6.518-5.867s-6.519,2.4-6.519,5.867v2.934C-2797.45-1862.46-2794.729-1860.064-2790.931-1860.064Z" transform="translate(2826.784 1889.397)" fill="none" stroke="#f7c544" stroke-linecap="round" stroke-linejoin="round" stroke-width="3"></path><line id="Line_72" data-name="Line 72" y1="20.955" transform="translate(65.186 50.519)" fill="none" stroke="#f7c544" stroke-linecap="round" stroke-linejoin="round" stroke-width="3"></line><line id="Line_73" data-name="Line 73" y1="25.844" transform="translate(45.63 45.63)" fill="none" stroke="#f7c544" stroke-linecap="round" stroke-linejoin="round" stroke-width="3"></line><line id="Line_74" data-name="Line 74" y2="25.844" transform="translate(26.074 45.63)" fill="none" stroke="#f7c544" stroke-linecap="round" stroke-linejoin="round" stroke-width="3"></line><path id="Path_780" data-name="Path 780" d="M-2766.393-1854.806c3.8,0,6.518-2.4,6.518-5.867v-2.933c0-3.471-2.719-5.867-6.518-5.867s-6.519,2.4-6.519,5.867v2.933C-2772.912-1857.2-2770.191-1854.806-2766.393-1854.806Z" transform="translate(2825.061 1889.028)" fill="none" stroke="#f7c544" stroke-linecap="round" stroke-linejoin="round" stroke-width="3"></path><path id="Path_781" data-name="Path 781" d="M-2822.48-1820.736c-3.17,0-6.519-1.719-6.519-4.889v-14.667c0-5.383,9.572-8.148,14.666-8.148.5,0,1.053.027,1.631.081" transform="translate(2828.999 1887.551)" fill="none" stroke="#f7c544" stroke-linecap="round" stroke-linejoin="round" stroke-width="3"></path><line id="Line_75" data-name="Line 75" y1="20.955" transform="translate(6.518 50.519)" fill="none" stroke="#f7c544" stroke-linecap="round" stroke-linejoin="round" stroke-width="3"></line><path id="Path_782" data-name="Path 782" d="M-2815.47-1854.806c-3.8,0-6.518-2.4-6.518-5.867v-2.933c0-3.471,2.719-5.867,6.518-5.867s6.519,2.4,6.519,5.867v2.933C-2808.952-1857.2-2811.671-1854.806-2815.47-1854.806Z" transform="translate(2828.507 1889.028)" fill="none" stroke="#f7c544" stroke-linecap="round" stroke-linejoin="round" stroke-width="3"></path><path id="Path_783" data-name="Path 783" d="M-2806.707-1875.838c-3.8,0-6.519-2.4-6.519-5.867v-2.933c0-3.472,2.721-5.867,6.519-5.867s6.519,2.4,6.519,5.867v2.933C-2800.187-1878.234-2802.908-1875.838-2806.707-1875.838Z" transform="translate(2827.891 1890.505)" fill="none" stroke="#f7c544" stroke-linecap="round" stroke-linejoin="round" stroke-width="3"></path><path id="Path_784" data-name="Path 784" d="M-2775.157-1875.838c-3.8,0-6.519-2.4-6.519-5.867v-2.933c0-3.472,2.72-5.867,6.519-5.867s6.519,2.4,6.519,5.867v2.933C-2768.639-1878.234-2771.359-1875.838-2775.157-1875.838Z" transform="translate(2825.676 1890.505)" fill="none" stroke="#f7c544" stroke-linecap="round" stroke-linejoin="round" stroke-width="3"></path></g><g id="Group_852" data-name="Group 852" transform="translate(-2828.999 -1890.505)"><path id="Path_785" data-name="Path 785" d="M-2781.892-1824.364a6.872,6.872,0,0,0,6.519-6.519v-14.667c0-5.382-10.636-8.148-16.3-8.148s-16.3,2.764-16.3,8.148v14.667a6.873,6.873,0,0,0,6.519,6.519" transform="translate(2827.522 1887.921)" fill="none" stroke="#f7c544" stroke-linecap="round" stroke-linejoin="round" stroke-width="3"></path><path id="Path_786" data-name="Path 786" d="M-2759.629-1820.736c3.171,0,6.519-1.719,6.519-4.889v-14.667c0-5.383-9.572-8.148-14.667-8.148-.5,0-1.052.027-1.63.081" transform="translate(2824.815 1887.551)" fill="none" stroke="#f7c544" stroke-linecap="round" stroke-linejoin="round" stroke-width="3"></path><path id="Path_787" data-name="Path 787" d="M-2790.931-1860.064c3.8,0,6.518-2.4,6.518-5.867v-2.934c0-3.472-2.72-5.867-6.518-5.867s-6.519,2.4-6.519,5.867v2.934C-2797.45-1862.46-2794.729-1860.064-2790.931-1860.064Z" transform="translate(2826.784 1889.397)" fill="none" stroke="#f7c544" stroke-linecap="round" stroke-linejoin="round" stroke-width="3"></path><line id="Line_76" data-name="Line 76" y1="20.955" transform="translate(65.186 50.519)" fill="none" stroke="#f7c544" stroke-linecap="round" stroke-linejoin="round" stroke-width="3"></line><line id="Line_77" data-name="Line 77" y1="25.844" transform="translate(45.63 45.63)" fill="none" stroke="#f7c544" stroke-linecap="round" stroke-linejoin="round" stroke-width="3"></line><line id="Line_78" data-name="Line 78" y2="25.844" transform="translate(26.074 45.63)" fill="none" stroke="#f7c544" stroke-linecap="round" stroke-linejoin="round" stroke-width="3"></line><path id="Path_788" data-name="Path 788" d="M-2766.393-1854.806c3.8,0,6.518-2.4,6.518-5.867v-2.933c0-3.471-2.719-5.867-6.518-5.867s-6.519,2.4-6.519,5.867v2.933C-2772.912-1857.2-2770.191-1854.806-2766.393-1854.806Z" transform="translate(2825.061 1889.028)" fill="none" stroke="#f7c544" stroke-linecap="round" stroke-linejoin="round" stroke-width="3"></path><path id="Path_789" data-name="Path 789" d="M-2822.48-1820.736c-3.17,0-6.519-1.719-6.519-4.889v-14.667c0-5.383,9.572-8.148,14.666-8.148.5,0,1.053.027,1.631.081" transform="translate(2828.999 1887.551)" fill="none" stroke="#f7c544" stroke-linecap="round" stroke-linejoin="round" stroke-width="3"></path><line id="Line_79" data-name="Line 79" y1="20.955" transform="translate(6.518 50.519)" fill="none" stroke="#f7c544" stroke-linecap="round" stroke-linejoin="round" stroke-width="3"></line><path id="Path_790" data-name="Path 790" d="M-2815.47-1854.806c-3.8,0-6.518-2.4-6.518-5.867v-2.933c0-3.471,2.719-5.867,6.518-5.867s6.519,2.4,6.519,5.867v2.933C-2808.952-1857.2-2811.671-1854.806-2815.47-1854.806Z" transform="translate(2828.507 1889.028)" fill="none" stroke="#f7c544" stroke-linecap="round" stroke-linejoin="round" stroke-width="3"></path><path id="Path_791" data-name="Path 791" d="M-2806.707-1875.838c-3.8,0-6.519-2.4-6.519-5.867v-2.933c0-3.472,2.721-5.867,6.519-5.867s6.519,2.4,6.519,5.867v2.933C-2800.187-1878.234-2802.908-1875.838-2806.707-1875.838Z" transform="translate(2827.891 1890.505)" fill="none" stroke="#f7c544" stroke-linecap="round" stroke-linejoin="round" stroke-width="3"></path><path id="Path_792" data-name="Path 792" d="M-2775.157-1875.838c-3.8,0-6.519-2.4-6.519-5.867v-2.933c0-3.472,2.72-5.867,6.519-5.867s6.519,2.4,6.519,5.867v2.933C-2768.639-1878.234-2771.359-1875.838-2775.157-1875.838Z" transform="translate(2825.676 1890.505)" fill="none" stroke="#f7c544" stroke-linecap="round" stroke-linejoin="round" stroke-width="3"></path></g></g></svg>