<svg id="Layer_1" data-name="Layer 1" xmlns="http://www.w3.org/2000/svg" viewBox="0 0 159 25"><defs><style>.cls-1{fill:#004493;}.cls-2{fill:#f05a25;}.cls-3{fill:#fd9514;}</style></defs><path class="cls-1" d="M.75,2.54H6.4c5.11,0,8.44,3,8.44,8.26s-3.33,8.3-8.44,8.3H.75Zm5.48,14c3.36,0,5.51-2,5.51-5.71S9.55,5.13,6.23,5.13H3.76V16.51Z"/><path class="cls-1" d="M22.68,6.93c3.4,0,5.27,2.49,5.27,5.64,0,.35-.07,1.1-.07,1.1H19.67a3.43,3.43,0,0,0,3.57,3.2,5.43,5.43,0,0,0,3.34-1.33l1.24,2.05A7.29,7.29,0,0,1,23,19.39a6.09,6.09,0,0,1-6.38-5.79c0-.15,0-.29,0-.44A5.86,5.86,0,0,1,22.68,6.93Zm2.24,4.69a2.32,2.32,0,0,0-2.21-2.41h0a2.86,2.86,0,0,0-2.92,2.41Z"/><path class="cls-1" d="M30.87,9.56H29.33V7.21h1.61V4h2.89V7.21h2.7V9.56h-2.7v4.81a2.11,2.11,0,0,0,2,2.25,2.41,2.41,0,0,0,.38,0,3.29,3.29,0,0,0,.54-.05v2.59a5.49,5.49,0,0,1-.91.07c-1.66,0-4.94-.49-4.94-4.48Z"/><path class="cls-1" d="M44.12,6.93c3.4,0,5.27,2.49,5.27,5.64,0,.35-.07,1.1-.07,1.1H41.11a3.43,3.43,0,0,0,3.57,3.2A5.38,5.38,0,0,0,48,15.54l1.24,2.05a7.24,7.24,0,0,1-4.78,1.8,6.11,6.11,0,0,1-6.39-5.79c0-.15,0-.29,0-.44A5.86,5.86,0,0,1,44.12,6.93Zm2.23,4.69a2.31,2.31,0,0,0-2.21-2.41h0a2.86,2.86,0,0,0-2.92,2.41Z"/><path class="cls-1" d="M57.57,6.93c1.54,0,4.32.63,4.32,2.68V11H59.28v-.66c0-.65-1-.93-1.71-.93a3.69,3.69,0,0,0,.19,7.37,5.35,5.35,0,0,0,3.52-1.61l1.24,2.05a6.77,6.77,0,0,1-5,2.15,6.12,6.12,0,0,1-6.43-5.77c0-.15,0-.3,0-.46A6.12,6.12,0,0,1,57.57,6.93Z"/><path class="cls-2" d="M78.19,6.93a6.24,6.24,0,0,1,6.53,5.94v.28a6.53,6.53,0,1,1-7.15-6.22Zm0,9.93A3.71,3.71,0,1,0,74.68,13a1.34,1.34,0,0,0,0,.2A3.54,3.54,0,0,0,78,16.86Z"/><path class="cls-2" d="M91.49,6.93a4,4,0,0,1,3.66,1.68h0V8.3c0-.53.37-1.09,1.3-1.09h2.76V9.73h-.91a.45.45,0,0,0-.51.39.17.17,0,0,0,0,.07v8.19c0,4.08-3.17,5.62-6.27,5.62a9.39,9.39,0,0,1-4.22-1l.91-2.33a7.62,7.62,0,0,0,3.28.79c1.8,0,3.36-.77,3.36-2.91V18c0-.28,0-.63,0-.63h0a3.66,3.66,0,0,1-3.31,1.54c-3.41,0-5.34-2.75-5.34-6S88.06,6.93,91.49,6.93ZM95,12.87c0-2.7-1.35-3.42-3-3.42-1.79,0-2.77,1.3-2.77,3.31s1,3.61,3,3.61c1.42,0,2.77-.81,2.77-3.5Z"/><path class="cls-2" d="M106.54,6.93c3.4,0,5.27,2.49,5.27,5.64,0,.35-.07,1.1-.07,1.1h-8.21a3.43,3.43,0,0,0,3.57,3.2,5.38,5.38,0,0,0,3.33-1.33l1.24,2.05a7.24,7.24,0,0,1-4.78,1.8,6.11,6.11,0,0,1-6.39-5.79c0-.15,0-.29,0-.44A5.86,5.86,0,0,1,106.54,6.93Zm2.23,4.69a2.31,2.31,0,0,0-2.21-2.41h0a2.86,2.86,0,0,0-2.92,2.41Z"/><path class="cls-2" d="M114.72,9.56h-1.53V7.21h1.61V4h2.88V7.21h2.71V9.56h-2.71v4.81a2.11,2.11,0,0,0,2,2.25,2.54,2.54,0,0,0,.39,0,3.07,3.07,0,0,0,.53-.05v2.59a5.46,5.46,0,0,1-.9.07c-1.66,0-5-.49-5-4.48Z"/><path class="cls-2" d="M123.07,5.58a.46.46,0,0,0-.39-.52h-1.05V2.54h2.82c1.09,0,1.58.49,1.58,1.56V8.28c0,.58,0,1,0,1h0a4.55,4.55,0,0,1,4.09-2.35c2.66,0,4.15,1.37,4.15,4.52v4.64a.47.47,0,0,0,.41.52h1V19.1h-2.82c-1.09,0-1.56-.46-1.56-1.58V12.06c0-1.45-.4-2.42-1.89-2.42a3.34,3.34,0,0,0-3.22,2.47,5.32,5.32,0,0,0-.18,1.54v5.46h-3Z"/><path class="cls-2" d="M143,6.93c3.4,0,5.27,2.49,5.27,5.64,0,.35-.07,1.1-.07,1.1h-8.22a3.43,3.43,0,0,0,3.57,3.2,5.43,5.43,0,0,0,3.34-1.33l1.23,2.05a7.24,7.24,0,0,1-4.78,1.8,6.09,6.09,0,0,1-6.38-5.79c0-.15,0-.29,0-.44A5.88,5.88,0,0,1,143,6.93Zm2.24,4.69A2.33,2.33,0,0,0,143,9.21h0A2.86,2.86,0,0,0,140,11.62Z"/><path class="cls-2" d="M151.09,10.24a.46.46,0,0,0-.4-.51h-1.05V7.21h2.71c1.05,0,1.58.44,1.58,1.44v.7a4.73,4.73,0,0,1-.05.75h.05A4.1,4.1,0,0,1,157.71,7a4.93,4.93,0,0,1,.54,0V10a5.85,5.85,0,0,0-.73,0,3.35,3.35,0,0,0-3.24,2.49,7.55,7.55,0,0,0-.26,1.94V19.1h-2.94Z"/><path class="cls-1" d="M74.61,5.07h-15V2.32h15Z"/><rect class="cls-1" x="65.64" y="6.65" width="3.09" height="3.09"/><rect class="cls-3" x="65.64" y="11.33" width="3.09" height="3.09"/><rect class="cls-2" x="65.64" y="16.01" width="3.09" height="3.09"/></svg>