<svg xmlns="http://www.w3.org/2000/svg" xmlns:xlink="http://www.w3.org/1999/xlink" viewBox="0 0 355.91 411.05"><defs><style>.cls-1{isolation:isolate;}.cls-2{fill:#f7c544;}.cls-3{fill:url(#linear-gradient);}.cls-4{fill:url(#_ÂÁ_Ï_ÌÌ_È_ËÂÌÚ_182);}.cls-5{fill:url(#linear-gradient-2);}.cls-6{fill:url(#_ÂÁ_Ï_ÌÌ_È_ËÂÌÚ_49);}.cls-7{fill:url(#linear-gradient-3);}.cls-8{fill:url(#linear-gradient-4);}.cls-9{fill:url(#_ÂÁ_Ï_ÌÌ_È_ËÂÌÚ_49-2);}.cls-10{fill:url(#linear-gradient-5);}.cls-11{fill:url(#_ÂÁ_Ï_ÌÌ_È_ËÂÌÚ_49-3);}.cls-12{fill:url(#linear-gradient-6);}.cls-13{fill:url(#_ÂÁ_Ï_ÌÌ_È_ËÂÌÚ_49-4);}.cls-14{fill:url(#linear-gradient-7);}.cls-15{fill:#0047cc;}.cls-16{fill:#901b73;mix-blend-mode:multiply;}.cls-17{fill:#fff;}.cls-18,.cls-19,.cls-20,.cls-21{mix-blend-mode:screen;}.cls-18{fill:url(#_ÂÁ_Ï_ÌÌ_È_ËÂÌÚ_10);}.cls-19{fill:url(#_ÂÁ_Ï_ÌÌ_È_ËÂÌÚ_33);}.cls-20{fill:url(#_ÂÁ_Ï_ÌÌ_È_ËÂÌÚ_33-2);}.cls-21{opacity:0.55;}.cls-22{fill:url(#_ÂÁ_Ï_ÌÌ_È_ËÂÌÚ_76);}.cls-23{fill:url(#_ÂÁ_Ï_ÌÌ_È_ËÂÌÚ_76-2);}.cls-24{fill:url(#_ÂÁ_Ï_ÌÌ_È_ËÂÌÚ_76-3);}.cls-25{fill:url(#_ÂÁ_Ï_ÌÌ_È_ËÂÌÚ_76-4);}</style><linearGradient id="linear-gradient" x1="5235.84" y1="411.05" x2="5235.84" y2="372.59" gradientTransform="matrix(-1, 0, 0, 1, 5413.79, 0)" gradientUnits="userSpaceOnUse"><stop offset="0" stop-color="#fec400"></stop><stop offset="1" stop-color="#f36630"></stop></linearGradient><linearGradient id="_&#xC2;&#xC1;_&#xCF;_&#xCC;&#xCC;_&#xC8;_&#xCB;&#xC2;&#xCC;&#xDA;_182" x1="5202.55" y1="367.21" x2="5269.12" y2="367.21" gradientTransform="matrix(-1, 0, 0, 1, 5413.79, 0)" gradientUnits="userSpaceOnUse"><stop offset="0" stop-color="#cb19ff"></stop><stop offset="0.14" stop-color="#aa15ec"></stop><stop offset="0.44" stop-color="#660cc4"></stop><stop offset="0.7" stop-color="#3305a8"></stop><stop offset="0.89" stop-color="#150196"></stop><stop offset="1" stop-color="#09008f"></stop></linearGradient><linearGradient id="linear-gradient-2" x1="5178.26" y1="349.15" x2="5293.41" y2="349.15" gradientTransform="matrix(-1, 0, 0, 1, 5413.79, 0)" gradientUnits="userSpaceOnUse"><stop offset="0" stop-color="#15cef4"></stop><stop offset="1" stop-color="#0047cc"></stop></linearGradient><linearGradient id="_&#xC2;&#xC1;_&#xCF;_&#xCC;&#xCC;_&#xC8;_&#xCB;&#xC2;&#xCC;&#xDA;_49" x1="5178.26" y1="343.57" x2="5293.41" y2="343.57" gradientTransform="matrix(-1, 0, 0, 1, 5413.79, 0)" gradientUnits="userSpaceOnUse"><stop offset="0" stop-color="#e2f4f7"></stop><stop offset="0.09" stop-color="#c6eef4"></stop><stop offset="0.34" stop-color="#80e0ee"></stop><stop offset="0.56" stop-color="#4ad6e9"></stop><stop offset="0.76" stop-color="#22cee6"></stop><stop offset="0.91" stop-color="#0ac9e4"></stop><stop offset="1" stop-color="#01c7e3"></stop></linearGradient><linearGradient id="linear-gradient-3" x1="110.94" y1="331.21" x2="244.97" y2="331.21" gradientTransform="matrix(1, 0, 0, 1, 0, 0)" xlink:href="#linear-gradient-2"></linearGradient><linearGradient id="linear-gradient-4" x1="5302.85" y1="331.21" x2="5168.82" y2="331.21" xlink:href="#linear-gradient-2"></linearGradient><linearGradient id="_&#xC2;&#xC1;_&#xCF;_&#xCC;&#xCC;_&#xC8;_&#xCB;&#xC2;&#xCC;&#xDA;_49-2" x1="5168.82" y1="325.63" x2="5302.85" y2="325.63" xlink:href="#_&#xC2;&#xC1;_&#xCF;_&#xCC;&#xCC;_&#xC8;_&#xCB;&#xC2;&#xCC;&#xDA;_49"></linearGradient><linearGradient id="linear-gradient-5" x1="5162.7" y1="313.92" x2="5308.97" y2="313.92" gradientTransform="matrix(-1, 0, 0, 1, 5413.79, 0)" gradientUnits="userSpaceOnUse"><stop offset="0" stop-color="#15cef4"></stop><stop offset="1" stop-color="#2d67ce"></stop></linearGradient><linearGradient id="_&#xC2;&#xC1;_&#xCF;_&#xCC;&#xCC;_&#xC8;_&#xCB;&#xC2;&#xCC;&#xDA;_49-3" x1="5162.7" y1="308.34" x2="5308.97" y2="308.34" xlink:href="#_&#xC2;&#xC1;_&#xCF;_&#xCC;&#xCC;_&#xC8;_&#xCB;&#xC2;&#xCC;&#xDA;_49"></linearGradient><linearGradient id="linear-gradient-6" x1="5158.74" y1="296.18" x2="5312.94" y2="296.18" gradientTransform="matrix(-1, 0, 0, 1, 5413.79, 0)" gradientUnits="userSpaceOnUse"><stop offset="0" stop-color="#15cef4"></stop><stop offset="1" stop-color="#52a4df"></stop></linearGradient><linearGradient id="_&#xC2;&#xC1;_&#xCF;_&#xCC;&#xCC;_&#xC8;_&#xCB;&#xC2;&#xCC;&#xDA;_49-4" x1="5158.74" y1="290.61" x2="5312.94" y2="290.61" xlink:href="#_&#xC2;&#xC1;_&#xCF;_&#xCC;&#xCC;_&#xC8;_&#xCB;&#xC2;&#xCC;&#xDA;_49"></linearGradient><linearGradient id="linear-gradient-7" x1="5121.66" y1="177.97" x2="5350.01" y2="177.97" gradientTransform="matrix(-1, 0, 0, 1, 5413.79, 0)" gradientUnits="userSpaceOnUse"><stop offset="0" stop-color="#254f9e"></stop><stop offset="0.51" stop-color="#1eb9d4"></stop><stop offset="0.68" stop-color="#1596d2"></stop><stop offset="1" stop-color="#0047cc"></stop></linearGradient><radialGradient id="_&#xC2;&#xC1;_&#xCF;_&#xCC;&#xCC;_&#xC8;_&#xCB;&#xC2;&#xCC;&#xDA;_10" cx="5228.78" cy="194.15" r="58.66" gradientTransform="matrix(-1, 0, 0, 1, 5413.79, 0)" gradientUnits="userSpaceOnUse"><stop offset="0" stop-color="#ff7862"></stop><stop offset="1"></stop><stop offset="1"></stop></radialGradient><radialGradient id="_&#xC2;&#xC1;_&#xCF;_&#xCC;&#xCC;_&#xC8;_&#xCB;&#xC2;&#xCC;&#xDA;_33" cx="5250.67" cy="170.32" r="14.83" gradientTransform="matrix(-1, 0, 0, 1, 5413.79, 0)" gradientUnits="userSpaceOnUse"><stop offset="0" stop-color="#ffca71"></stop><stop offset="1"></stop><stop offset="1"></stop></radialGradient><radialGradient id="_&#xC2;&#xC1;_&#xCF;_&#xCC;&#xCC;_&#xC8;_&#xCB;&#xC2;&#xCC;&#xDA;_33-2" cx="5228.78" cy="193.79" r="14.83" xlink:href="#_&#xC2;&#xC1;_&#xCF;_&#xCC;&#xCC;_&#xC8;_&#xCB;&#xC2;&#xCC;&#xDA;_33"></radialGradient><linearGradient id="_&#xC2;&#xC1;_&#xCF;_&#xCC;&#xCC;_&#xC8;_&#xCB;&#xC2;&#xCC;&#xDA;_76" x1="5263.9" y1="72.71" x2="5344.21" y2="72.71" gradientTransform="matrix(-1, 0, 0, 1, 5413.79, 0)" gradientUnits="userSpaceOnUse"><stop offset="0" stop-color="#fff"></stop><stop offset="0.04" stop-color="#f3f3f3"></stop><stop offset="0.4" stop-color="#8d8d8d"></stop><stop offset="0.69" stop-color="#414141"></stop><stop offset="0.89" stop-color="#121212"></stop><stop offset="1"></stop><stop offset="1"></stop></linearGradient><linearGradient id="_&#xC2;&#xC1;_&#xCF;_&#xCC;&#xCC;_&#xC8;_&#xCB;&#xC2;&#xCC;&#xDA;_76-2" x1="5219.87" y1="93.62" x2="5287.18" y2="93.62" xlink:href="#_&#xC2;&#xC1;_&#xCF;_&#xCC;&#xCC;_&#xC8;_&#xCB;&#xC2;&#xCC;&#xDA;_76"></linearGradient><linearGradient id="_&#xC2;&#xC1;_&#xCF;_&#xCC;&#xCC;_&#xC8;_&#xCB;&#xC2;&#xCC;&#xDA;_76-3" x1="5299.16" y1="112.02" x2="5351.62" y2="112.02" xlink:href="#_&#xC2;&#xC1;_&#xCF;_&#xCC;&#xCC;_&#xC8;_&#xCB;&#xC2;&#xCC;&#xDA;_76"></linearGradient><linearGradient id="_&#xC2;&#xC1;_&#xCF;_&#xCC;&#xCC;_&#xC8;_&#xCB;&#xC2;&#xCC;&#xDA;_76-4" x1="5250.87" y1="120.65" x2="5302.65" y2="120.65" xlink:href="#_&#xC2;&#xC1;_&#xCF;_&#xCC;&#xCC;_&#xC8;_&#xCB;&#xC2;&#xCC;&#xDA;_76"></linearGradient></defs><g class="cls-1"><g id="Layer_2" data-name="Layer 2"><g id="Layer_2-2" data-name="Layer 2"><circle class="cls-2" cx="177.96" cy="177.96" r="177.96"></circle><path class="cls-3" d="M178,355.21c17.22,0,31.41,4.53,33.12,10.32a34.1,34.1,0,0,1,1.69,10.7,34.81,34.81,0,1,1-69.61,0,34.39,34.39,0,0,1,1.69-10.7C146.55,359.74,160.73,355.21,178,355.21Z"></path><path class="cls-4" d="M178,346.36c17.23,0,31.41,8.22,33.12,18.73a13.6,13.6,0,0,1,.18,2.13c0,11.51-14.92,20.85-33.3,20.85s-33.28-9.34-33.28-20.85a13.6,13.6,0,0,1,.17-2.13C146.55,354.58,160.73,346.36,178,346.36Z"></path><path class="cls-5" d="M177.94,305.66c22.24,0,41.54,9.52,51.15,23.44.19.29.41.59.57.88a37.06,37.06,0,0,1,4.39,9.27,14.68,14.68,0,0,1,.47,1.82,32.29,32.29,0,0,1,1,8.08c0,1.06-.06,2.16-.16,3.21a.53.53,0,0,0,0,.21,33.42,33.42,0,0,1-1.58,7.28,29.44,29.44,0,0,1-1.1,2.88c-7.52,17.34-29.19,29.91-54.72,29.91-31.78,0-57.56-19.47-57.56-43.49S146.16,305.66,177.94,305.66Z"></path><path class="cls-6" d="M177.94,300.08c22.24,0,41.54,9.52,51.15,23.44.19.29.41.59.57.89a37.16,37.16,0,0,1,4.39,9.26,14.68,14.68,0,0,1,.47,1.82,32.35,32.35,0,0,1,1,8.08c0,1.06-.06,2.16-.16,3.22a.49.49,0,0,0,0,.21,33.46,33.46,0,0,1-1.58,7.27,28.5,28.5,0,0,1-1.1,2.88c-7.52,17.34-29.19,29.91-54.72,29.91-31.78,0-57.56-19.46-57.56-43.49S146.16,300.08,177.94,300.08Z"></path><path class="cls-7" d="M177.94,287.72c25.88,0,48.35,9.52,59.53,23.44a10.75,10.75,0,0,1,.66.89,35.1,35.1,0,0,1,5.11,9.26,13.69,13.69,0,0,1,.55,1.82,28,28,0,0,1,1,11.29.56.56,0,0,0,0,.22,29.29,29.29,0,0,1-1.84,7.27,27.5,27.5,0,0,1-1.29,2.88c-8.75,17.35-34,29.91-63.68,29.91-37,0-67-19.46-67-43.49S141,287.72,177.94,287.72Z"></path><path class="cls-8" d="M177.94,287.72c25.88,0,48.35,9.52,59.53,23.44a10.75,10.75,0,0,1,.66.89,35.1,35.1,0,0,1,5.11,9.26,13.69,13.69,0,0,1,.55,1.82,28,28,0,0,1,1,11.29.56.56,0,0,0,0,.22,29.29,29.29,0,0,1-1.84,7.27,27.5,27.5,0,0,1-1.29,2.88c-8.75,17.35-34,29.91-63.68,29.91-37,0-67-19.46-67-43.49S141,287.72,177.94,287.72Z"></path><path class="cls-9" d="M177.94,282.15c25.88,0,48.35,9.51,59.53,23.43.22.3.48.59.66.89a35.1,35.1,0,0,1,5.11,9.26,14.15,14.15,0,0,1,.55,1.82,28.46,28.46,0,0,1,1.18,8.08,29,29,0,0,1-.19,3.22.49.49,0,0,0,0,.21,29.37,29.37,0,0,1-1.84,7.28,28.3,28.3,0,0,1-1.29,2.87c-8.75,17.35-34,29.91-63.68,29.91-37,0-67-19.46-67-43.49S141,282.15,177.94,282.15Z"></path><path class="cls-10" d="M177.94,270.43c28.25,0,52.76,9.52,65,23.43.24.3.52.6.73.89A34.13,34.13,0,0,1,249.2,304a13.38,13.38,0,0,1,.6,1.82,25.88,25.88,0,0,1,1.29,8.08,28.81,28.81,0,0,1-.2,3.21.41.41,0,0,0,0,.21,29.43,29.43,0,0,1-3.41,10.16c-9.55,17.34-37.08,29.9-69.5,29.9-40.37,0-73.11-19.46-73.11-43.48S137.57,270.43,177.94,270.43Z"></path><path class="cls-11" d="M177.94,264.85c28.25,0,52.76,9.52,65,23.44.24.29.52.59.73.89a34.08,34.08,0,0,1,5.57,9.26,13.38,13.38,0,0,1,.6,1.82,25.93,25.93,0,0,1,1.29,8.08,28.66,28.66,0,0,1-.2,3.21.43.43,0,0,0,0,.22,27.34,27.34,0,0,1-2,7.27,26.36,26.36,0,0,1-1.4,2.88c-9.55,17.35-37.08,29.91-69.5,29.91-40.37,0-73.11-19.46-73.11-43.49S137.57,264.85,177.94,264.85Z"></path><path class="cls-12" d="M177.94,252.7c29.78,0,55.63,9.51,68.49,23.43.25.3.55.59.76.89a34,34,0,0,1,5.88,9.26,14.49,14.49,0,0,1,.63,1.82,24.87,24.87,0,0,1,1.36,8.08,29,29,0,0,1-.21,3.22.38.38,0,0,0,0,.21,26.47,26.47,0,0,1-2.12,7.28,27.83,27.83,0,0,1-1.48,2.87c-10.07,17.35-39.09,29.91-73.27,29.91-42.56,0-77.08-19.46-77.08-43.49S135.38,252.7,177.94,252.7Z"></path><path class="cls-13" d="M177.94,247.12c29.78,0,55.63,9.52,68.49,23.43.25.3.55.6.76.89a33.93,33.93,0,0,1,5.88,9.27,13.46,13.46,0,0,1,.63,1.82,24.83,24.83,0,0,1,1.36,8.08,29,29,0,0,1-.21,3.21.41.41,0,0,0,0,.21,26.47,26.47,0,0,1-2.12,7.28,28,28,0,0,1-1.48,2.88c-10.07,17.34-39.09,29.91-73.27,29.91-42.56,0-77.08-19.46-77.08-43.49S135.38,247.12,177.94,247.12Z"></path><path class="cls-14" d="M172.52,33.64c1.82-.09,3.63-.13,5.44-.13a114.17,114.17,0,0,1,97,174.43c-13.11,21-18.83,45.48-19.38,70.27-.25,11.26-7.75,22.45-22.54,31.05-30.2,17.55-79.34,17.55-109.75,0-14.91-8.61-22.54-19.84-22.89-31.12-.77-25.23-7.09-49.87-20.16-71.47A113.72,113.72,0,0,1,64,141.54C67,83.37,114.32,36.34,172.52,33.64Z"></path><path class="cls-15" d="M177.94,235.44c29.78,0,55.63,9.52,68.49,23.44.25.29.55.59.76.88a34.23,34.23,0,0,1,5.88,9.27,13.46,13.46,0,0,1,.63,1.82,24.87,24.87,0,0,1,1.36,8.08,29,29,0,0,1-.21,3.22.38.38,0,0,0,0,.21,26.51,26.51,0,0,1-2.12,7.27,28,28,0,0,1-1.48,2.88c-10.07,17.34-39.09,29.91-73.27,29.91-42.56,0-77.08-19.46-77.08-43.49S135.38,235.44,177.94,235.44Z"></path><path class="cls-16" d="M185.38,282.15h69.47a.38.38,0,0,0,0,.21,26.51,26.51,0,0,1-2.12,7.27H185.38c-2.79,0-5.07-.93-5.07-3.76S182.59,282.15,185.38,282.15Z"></path><path class="cls-16" d="M163.77,259.6h82.66a1.76,1.76,0,0,1,.76.16,34.23,34.23,0,0,1,5.88,9.27,13.46,13.46,0,0,1,.63,1.82H163.77c-2.8,0-5.08-2.84-5.08-5.63S161,259.6,163.77,259.6Z"></path><path class="cls-17" d="M183,185.85c2.8,0,3.76,2.28,3.76,5.08v93.64c0,2.8-1,5.07-3.76,5.07s-3.76-2.27-3.76-5.07V190.93C179.22,188.13,180.18,185.85,183,185.85Z"></path><path class="cls-17" d="M162.44,167.07c2.8,0,3.76,2.27,3.76,5.07v93.64c0,2.8-1,5.07-3.76,5.07s-3.76-2.27-3.76-5.07V172.14C158.68,169.34,159.64,167.07,162.44,167.07Z"></path><path class="cls-18" d="M185,135.6h0a58.55,58.55,0,1,1-58.76,58.47A58.58,58.58,0,0,1,185,135.6Z"></path><path class="cls-19" d="M163.13,155.49a14.83,14.83,0,1,1-14.84,14.83A14.83,14.83,0,0,1,163.13,155.49Z"></path><circle class="cls-20" cx="185.01" cy="193.79" r="14.83"></circle><g class="cls-21"><path class="cls-22" d="M138.54,50.79q3.63,10.41,7.28,20.81a89.55,89.55,0,0,0-30.19,23L99.54,80.54A115.67,115.67,0,0,1,138.54,50.79Z"></path><path class="cls-23" d="M147.26,75.74q3.65,10.4,7.28,20.8a58.1,58.1,0,0,0-19.61,15L118.84,97.42A84.13,84.13,0,0,1,147.26,75.74Z"></path><path class="cls-24" d="M110.81,100.76a89.57,89.57,0,0,0-15.18,34.79l-21.94-2.12A115.74,115.74,0,0,1,93.31,88.48Z"></path><path class="cls-25" d="M131.8,115.49a58.05,58.05,0,0,0-9.87,22.61L100,136a84.37,84.37,0,0,1,14.3-32.76Z"></path></g></g></g></g></svg>