<svg xmlns="http://www.w3.org/2000/svg" width="65" height="65" viewBox="0 0 65 65" fill="none"><path fill-rule="evenodd" clip-rule="evenodd" d="M32.5004 10.8333C39.8875 10.8333 46.9512 14.7079 53.5341 21.0739C55.7799 23.2457 57.8116 25.5643 59.6002 27.8839C60.6795 29.2836 61.4458 30.3847 61.8653 31.0407L62.7986 32.4999L61.8653 33.9592C61.4458 34.6151 60.6795 35.7162 59.6002 37.1159C57.8116 39.4355 55.7799 41.7542 53.5341 43.926C46.9512 50.292 39.8875 54.1666 32.5004 54.1666C25.1133 54.1666 18.0496 50.292 11.4667 43.926C9.22086 41.7542 7.18911 39.4355 5.40054 37.1159C4.32126 35.7162 3.55498 34.6151 3.13544 33.9592L2.20215 32.4999L3.13544 31.0407C3.55498 30.3847 4.32126 29.2836 5.40054 27.8839C7.18911 25.5643 9.22086 23.2457 11.4667 21.0739C18.0496 14.7079 25.1133 10.8333 32.5004 10.8333ZM55.3106 31.1915C53.6731 29.0677 51.8112 26.943 49.7686 24.9676C44.0988 19.4847 38.2016 16.2499 32.5004 16.2499C26.7991 16.2499 20.9019 19.4847 15.2321 24.9676C13.1895 26.943 11.3277 29.0677 9.6901 31.1915C9.33642 31.6501 9.0096 32.0878 8.71081 32.4999C9.0096 32.9121 9.33642 33.3497 9.6901 33.8084C11.3277 35.9321 13.1895 38.0569 15.2321 40.0322C20.9019 45.5152 26.7991 48.7499 32.5004 48.7499C38.2016 48.7499 44.0988 45.5152 49.7686 40.0322C51.8112 38.0569 53.6731 35.9321 55.3106 33.8084C55.6643 33.3497 55.9911 32.9121 56.2899 32.4999C55.9911 32.0878 55.6643 31.6501 55.3106 31.1915ZM21.667 32.4999C21.667 38.483 26.5173 43.3333 32.5004 43.3333C38.4835 43.3333 43.3337 38.483 43.3337 32.4999C43.3337 26.5168 38.4835 21.6666 32.5004 21.6666C26.5173 21.6666 21.667 26.5168 21.667 32.4999ZM37.917 32.4999C37.917 35.4915 35.4919 37.9166 32.5004 37.9166C29.5088 37.9166 27.0837 35.4915 27.0837 32.4999C27.0837 29.5084 29.5088 27.0833 32.5004 27.0833C35.4919 27.0833 37.917 29.5084 37.917 32.4999Z" fill="#07F2C2"></path></svg>